<?xml version="1.0" encoding="UTF-8"?>
<svg id="Capa_2" data-name="Capa 2" xmlns="http://www.w3.org/2000/svg" viewBox="0 0 25.5 25.5">
  <defs>
    <style>
      .cls-1 {
        fill: #293d1a;
      }

      .cls-2 {
        fill: #fff;
      }
    </style>
  </defs>
  <g id="Layer_1" data-name="Layer 1">
    <g>
      <path class="cls-1" d="M25.5,12.75C25.5,5.71,19.79,0,12.75,0S0,5.71,0,12.75c0,6.36,4.66,11.64,10.76,12.59v-8.91h-3.24v-3.69h3.24v-2.81c0-3.2,1.9-4.96,4.82-4.96,1.39,0,2.85.25,2.85.25v3.14h-1.61c-1.58,0-2.08.98-2.08,1.99v2.39h3.54l-.57,3.69h-2.97v8.91c6.1-.96,10.76-6.23,10.76-12.59Z"/>
      <path class="cls-2" d="M17.71,16.44l.57-3.69h-3.54v-2.39c0-1.01.49-1.99,2.08-1.99h1.61v-3.14s-1.46-.25-2.85-.25c-2.91,0-4.82,1.77-4.82,4.96v2.81h-3.24v3.69h3.24v8.91c.65.1,1.31.15,1.99.15s1.34-.05,1.99-.15v-8.91h2.97Z"/>
    </g>
  </g>
</svg>