<?xml version="1.0" encoding="UTF-8"?>
<svg id="Capa_2" data-name="Capa 2" xmlns="http://www.w3.org/2000/svg" xmlns:xlink="http://www.w3.org/1999/xlink" viewBox="0 0 25.5 25.5">
  <defs>
    <style>
      .cls-1 {
        fill: #293d1a;
      }

      .cls-2 {
        fill: #fff;
      }
    </style>
    <clipPath id="clippath">
      <circle class="cls-1" cx="12.75" cy="12.75" r="12.75"/>
    </clipPath>
  </defs>
  <g id="Layer_1" data-name="Layer 1">
    <g>
      <circle class="cls-1" cx="12.75" cy="12.75" r="12.75"/>
      <g>
        <path class="cls-2" d="M12.75,6.17c2.14,0,2.4,0,3.24.05.78.04,1.21.17,1.49.28.37.15.64.32.92.6.28.28.45.55.6.92.11.28.24.71.28,1.49.04.85.05,1.1.05,3.24s0,2.4-.05,3.24c-.04.78-.17,1.21-.28,1.49-.15.37-.32.64-.6.92-.28.28-.55.45-.92.6-.28.11-.71.24-1.49.28-.85.04-1.1.05-3.24.05s-2.4,0-3.24-.05c-.78-.04-1.21-.17-1.49-.28-.37-.15-.64-.32-.92-.6-.28-.28-.45-.55-.6-.92-.11-.28-.24-.71-.28-1.49-.04-.85-.05-1.1-.05-3.24s0-2.4.05-3.24c.04-.78.17-1.21.28-1.49.15-.37.32-.64.6-.92.28-.28.55-.45.92-.6.28-.11.71-.24,1.49-.28.85-.04,1.1-.05,3.24-.05M12.75,4.72c-2.18,0-2.45,0-3.31.05-.85.04-1.44.17-1.95.37-.53.21-.98.48-1.42.93-.45.45-.72.89-.93,1.42-.2.51-.33,1.09-.37,1.95-.04.86-.05,1.13-.05,3.31s0,2.45.05,3.31c.04.85.17,1.44.37,1.95.21.53.48.98.93,1.42.45.45.89.72,1.42.93.51.2,1.09.33,1.95.37.86.04,1.13.05,3.31.05s2.45,0,3.31-.05c.85-.04,1.44-.17,1.95-.37.53-.21.98-.48,1.42-.93.45-.45.72-.89.93-1.42.2-.51.33-1.09.37-1.95.04-.86.05-1.13.05-3.31s0-2.45-.05-3.31c-.04-.85-.17-1.44-.37-1.95-.21-.53-.48-.98-.93-1.42-.45-.45-.89-.72-1.42-.93-.51-.2-1.09-.33-1.95-.37-.86-.04-1.13-.05-3.31-.05h0Z"/>
        <path class="cls-2" d="M12.75,8.63c-2.28,0-4.12,1.85-4.12,4.12s1.85,4.12,4.12,4.12,4.12-1.85,4.12-4.12-1.85-4.12-4.12-4.12ZM12.75,15.43c-1.48,0-2.68-1.2-2.68-2.68s1.2-2.68,2.68-2.68,2.68,1.2,2.68,2.68-1.2,2.68-2.68,2.68Z"/>
        <circle class="cls-2" cx="17.03" cy="8.46" r=".96"/>
      </g>
    </g>
  </g>
</svg>