<?xml version="1.0" encoding="UTF-8"?>
<svg id="Capa_2" data-name="Capa 2" xmlns="http://www.w3.org/2000/svg" viewBox="0 0 25.5 25.5">
  <defs>
    <style>
      .cls-1 {
        fill: #293d1a;
      }

      .cls-2 {
        fill: #fff;
      }
    </style>
  </defs>
  <g id="Layer_1" data-name="Layer 1">
    <g>
      <circle class="cls-1" cx="12.75" cy="12.75" r="12.75"/>
      <g>
        <path class="cls-2" d="M13.74,11.01c.21-.24.38-.47.6-.68.66-.62,1.44-.94,2.36-.93.5,0,1,.04,1.48.18,1.11.32,1.75,1.08,2.06,2.16.23.81.27,1.64.27,2.48,0,1.76,0,3.52,0,5.28,0,.16-.05.21-.21.21-.91,0-1.81,0-2.72,0-.16,0-.19-.05-.19-.2,0-1.68,0-3.35,0-5.03,0-.42-.03-.84-.15-1.25-.22-.75-.76-1.14-1.54-1.09-1.08.06-1.64.59-1.77,1.68-.03.26-.05.52-.05.79,0,1.63,0,3.26,0,4.89,0,.16-.04.21-.21.21-.91,0-1.83,0-2.74,0-.15,0-.19-.04-.19-.19,0-3.23,0-6.45,0-9.68,0-.16.05-.2.2-.2.87,0,1.74,0,2.6,0,.16,0,.2.05.2.2,0,.39,0,.77,0,1.16Z"/>
        <path class="cls-2" d="M8.76,14.7c0,1.6,0,3.19,0,4.79,0,.18-.04.23-.23.23-.91,0-1.81,0-2.72,0-.15,0-.19-.04-.19-.19,0-3.23,0-6.46,0-9.7,0-.13.03-.18.17-.18.92,0,1.84,0,2.76,0,.18,0,.2.07.2.22,0,1.61,0,3.22,0,4.83Z"/>
        <path class="cls-2" d="M9.01,6.45c0,1-.81,1.82-1.81,1.82-.99,0-1.81-.82-1.81-1.8,0-1,.82-1.82,1.81-1.82.99,0,1.81.81,1.81,1.8Z"/>
      </g>
    </g>
  </g>
</svg>