<?xml version="1.0" encoding="UTF-8"?>
<svg id="Capa_2" data-name="Capa 2" xmlns="http://www.w3.org/2000/svg" viewBox="0 0 25.5 25.5">
  <defs>
    <style>
      .cls-1 {
        fill: #293d1a;
      }

      .cls-2 {
        fill: #fff;
        fill-rule: evenodd;
      }
    </style>
  </defs>
  <g id="Layer_1" data-name="Layer 1">
    <g>
      <circle class="cls-1" cx="12.75" cy="12.75" r="12.75"/>
      <g id="WA_Logo" data-name="WA Logo">
        <path class="cls-2" d="M18.88,6.77c-1.53-1.53-3.56-2.37-5.72-2.37-4.46,0-8.09,3.63-8.09,8.08,0,1.43.37,2.82,1.08,4.04l-1.15,4.19,4.29-1.12c1.18.64,2.51.98,3.87.98h0c4.46,0,8.09-3.63,8.09-8.09,0-2.16-.84-4.19-2.37-5.72ZM13.16,19.21h0c-1.21,0-2.39-.32-3.42-.94l-.25-.15-2.54.67.68-2.48-.16-.25c-.67-1.07-1.03-2.31-1.03-3.58,0-3.71,3.02-6.72,6.73-6.72,1.8,0,3.48.7,4.75,1.97,1.27,1.27,1.97,2.96,1.97,4.75,0,3.71-3.02,6.72-6.72,6.72ZM16.85,14.18c-.2-.1-1.2-.59-1.38-.66-.19-.07-.32-.1-.45.1-.13.2-.52.66-.64.79s-.24.15-.44.05c-.2-.1-.85-.31-1.63-1-.6-.54-1.01-1.2-1.12-1.4-.12-.2-.01-.31.09-.41.09-.09.2-.24.3-.35.1-.12.13-.2.2-.34.07-.13.03-.25-.02-.35-.05-.1-.45-1.1-.62-1.5-.16-.39-.33-.34-.45-.35-.12,0-.25,0-.39,0s-.35.05-.54.25c-.19.2-.71.69-.71,1.69s.72,1.96.83,2.09,1.43,2.18,3.45,3.05c.48.21.86.33,1.15.43.48.15.92.13,1.27.08.39-.06,1.2-.49,1.36-.96.17-.47.17-.88.12-.96s-.19-.13-.39-.24Z"/>
      </g>
    </g>
  </g>
</svg>