<?xml version="1.0" encoding="UTF-8"?>
<svg id="Capa_2" data-name="Capa 2" xmlns="http://www.w3.org/2000/svg" xmlns:xlink="http://www.w3.org/1999/xlink" viewBox="0 0 86.58 105.83">
  <defs>
    <style>
      .cls-1 {
        fill: #293d1a;
      }

      .cls-2 {
        mask: url(#mask);
      }

      .cls-3 {
        fill: #3c5a2a;
      }

      .cls-4 {
        fill: #a9872f;
        fill-rule: evenodd;
      }

      .cls-5 {
        fill: url(#linear-gradient);
      }

      .cls-6 {
        fill: #995925;
      }
    </style>
    <linearGradient id="linear-gradient" x1="-149.03" y1="440.88" x2="-155.97" y2="433.59" gradientTransform="translate(193.73 -396.41)" gradientUnits="userSpaceOnUse">
      <stop offset="0" stop-color="#fff"/>
      <stop offset="1" stop-color="#231f20"/>
    </linearGradient>
    <mask id="mask" x="16.31" y="0" width="37.27" height="68.46" maskUnits="userSpaceOnUse">
      <rect class="cls-5" x="16.31" y="0" width="37.27" height="68.46"/>
    </mask>
  </defs>
  <g id="Layer_1" data-name="Layer 1">
    <g>
      <path class="cls-4" d="M52.22,14.6h4.82l.03,9.5h1.85s7.72,0,7.72,0v22.72h-7.75s-1.82,0-1.82,0l-.03,9.5h-8.19l1.99,2h8.05l.02-9.65h9.52v-26.42h-9.52l-.02-9.64h-5.48l-1.18,2ZM25.69,58.31h5.07v-2h-3.05l.03-9.5h-1.24s-8.79,0-8.79,0v-22.72h8.01s2.02,0,2.02,0v-4.13s-2.04-1.31-2.04-1.31v3.58s-9.79,0-9.79,0v26.42h9.8l-.02,9.65Z"/>
      <path class="cls-3" d="M24.2,5.57c4.13,4.01,8.27,8.02,12.4,12.03-4.06-6.98-5.64-7.93-12.4-12.03M34.62,19.92C23.92,17.59,18.13,10.65,16.31,0c6.77,1.15,13.88,1.23,18.71,8.67,2.05,3.15,3.68,7.62,4.71,14.05,2.12-7.01,5.45-10.92,8.67-15.09-3.51,2.48-6.09,6.16-8.21,10.41-.5-5.85.98-13.69,13.3-16.08.36,4.16-.41,7.85-2.52,10.82-1.52,2.14-3.76,3.88-6.4,5.53-4.23,2.65-2.64,1.88-4.08,6.77,4.29-3.26,8.41-2.71,11.18-1.29.7.36.83,5.5.18,6.38-.76-2.46-2.26-4-3.89-4.62-3.27-1.23-7.28,1.99-5.71,5.14.52,1.04,1.51,2.04,2.68,3.02,3.03,2.52,7.33,4.94,8.12,7.74.44,1.57.41,3.2-.28,4.92-.79,1.96-1.65,3.25-3.53,4.35-2.04,1.19-4.63,1.72-5.46,2.96-1.93,2.85,2.98,4.07,4.88,5.44,1.14.82,1.71,1.95.61,4.53.32-6.13-7.78-2.31-7.63-8.15-2.62,5.19,5.49,8.58.12,12.95.85-1.38.82-3.05.01-4.57-.73-1.36-2.17-2.54-2.55-4.22-2.01.7-3.88,1.63-3.96,3.18-.76-2.94,1.44-2.3,3.01-4.55,1.19-1.7-.37-2.15,2.57-5.69-4.86.33-7.36,2.48-8.21,5.9.55-10.83,11.96-5.71,15.61-11.33.77-1.23.94-2.34.69-3.37-1.18-4.77-8.6-5.07-10.98-10.04-.98-2.04-.54-4.46-.24-6.73.26-1.98.46-3.87-.27-5.39-.77-1.59-1.3-1.41-2.8-1.74Z"/>
      <path class="cls-1" d="M80.67,89.51s0,0,0,0h0s0,0,0,0ZM80.67,89.51h0s0,0,0,0h0ZM78.1,72.91c1.22.08,2.34.32,3.34.72.97.39,1.83.95,2.56,1.67.74.74,1.3,1.6,1.67,2.58.37.97.56,2.05.56,3.25,0,.86-.1,1.68-.29,2.46-.19.78-.48,1.53-.87,2.23-.23.42-.47.8-.74,1.14-.27.35-.57.66-.88.93h0c-.31.28-.68.53-1.09.78-.41.25-.88.48-1.38.71-.11.05-.19.09-.25.13.01,0,.03,0,.04.02.11.09.28.19.52.32.42.24.89.45,1.3.7.3.16.6.28.9.36.3.08.6.12.91.12.19,0,.39-.05.61-.14.22-.1.46-.24.71-.44h.01s.09-.08.13-.1c.06-.03.12-.05.17-.06h0c.09-.01.17,0,.25.06.05.04.11.09.16.15h0c.05.07.08.14.1.2.03.07.04.15.03.22h0c-.02.14-.11.3-.27.49-.14.17-.35.37-.62.6h-.01c-.53.47-1.04.81-1.55,1.05-.52.24-1.04.36-1.54.36-.3,0-.61-.03-.93-.1-.31-.06-.64-.16-.96-.29-.32-.13-.71-.31-1.15-.54-.44-.23-.94-.51-1.49-.84-.84-.5-1.5-.85-1.99-1.11-.31-.16-.54-.29-.7-.39-.39-.23-.81-.44-1.23-.65-1.31-.65-2.67-1.33-3.67-2.98-.63-1.03-1.06-2.4-1.25-3.8-.18-1.36-.13-2.76.22-3.9.56-1.83,1.76-3.36,3.3-4.41,1.55-1.05,3.45-1.61,5.38-1.48ZM62.16,74.83l5.29,12.13c.13.3.25.54.37.75.12.2.25.36.41.49.2.17.49.2.82.23.15.02.32.03.48.06h0c.14.02.24.09.31.21.06.09.09.21.09.35,0,.04,0,.09,0,.15,0,.12-.02.26-.06.38-.06.19-.17.32-.37.32h-.02c-.06,0-.13-.01-.21-.03h0c-.08-.01-.16-.03-.25-.05h0c-.29-.06-.67-.11-1.14-.14-.47-.03-1.04-.05-1.7-.05s-1.22.02-1.66.05c-.44.03-.78.07-1.01.13h0c-.06.02-.12.03-.17.04-.06.01-.12.02-.18.02-.2,0-.33-.14-.41-.32-.08-.18-.1-.43-.1-.58,0-.12.05-.23.14-.31.07-.07.17-.12.29-.15.16-.05.31-.05.44-.06.13,0,.25,0,.34-.11.11-.12.18-.24.23-.37.05-.12.07-.24.07-.37,0-.19-.08-.51-.24-.97-.17-.47-.42-1.08-.75-1.81-.09-.2-.19-.36-.29-.47h-.01c-.08-.1-.16-.15-.24-.17h0c-.11-.03-.38-.05-.8-.07-.43-.02-1.03-.02-1.81-.02h-2.06s-.08.03-.16.15c-.13.22-.32.64-.64,1.43l-.36.9c-.05.12-.08.23-.11.35-.02.11-.04.23-.04.34,0,.44,0,.71.13.85.13.16.44.24,1.06.31.19.02.34.08.44.16.14.11.2.25.19.42,0,.11-.02.28-.07.44-.07.22-.21.39-.47.39-.08,0-.17,0-.29-.02-.11-.01-.23-.03-.35-.06h-.02c-.24-.05-.47-.09-.69-.12-.22-.03-.42-.04-.62-.04-.18,0-.41,0-.7.03-.3.02-.65.05-1.05.09-.32.03-.57.06-.74.07-.2.02-.33.02-.41.02-.06,0-.3-.14-.44-.34h0c-.06-.09-.1-.18-.13-.28-.03-.12-.03-.24.02-.37h0c.07-.16.22-.3.5-.39.13-.04.25-.07.36-.09.21-.05.38-.08.51-.26h0c.12-.17.28-.44.46-.8.19-.37.4-.82.64-1.38h0c.39-.91.73-1.69,1.07-2.46,1.24-2.83,2.49-5.66,3.59-8.54.12-.32.32-.73.51-1.13.09-.19.18-.38.24-.52.02-.04.04-.07.07-.1l.02-.02c.08-.07.2-.12.33-.13.12-.01.26,0,.38.06.06.03.12.07.18.12.1.09.14.22.18.33.01.04.02.07.03.08.05.09.1.19.16.29.05.09.1.2.15.32l.28.63ZM62.17,82.29l-1.52-3.55c-.18-.42-.33-.73-.45-.93-.08-.14-.1-.21-.11-.21-.04,0,.04.03,0,.1-.08.13-.18.32-.3.59l-.22.48c-.49,1.12-.97,2.3-1.49,3.4-.02.04-.03.08-.04.12h0s-.01.06-.01.08c0,.04.03.07.08.09.11.05.28.08.53.08h3.43c.1,0,.17,0,.21-.03,0-.02-.02-.05-.03-.09l-.06-.13ZM36.34,74.2l4.51,10.43c.09.21.17.36.25.45.04.05.04.08.05.08,0,0,.03-.02.06-.05.06-.06.11-.16.17-.28l4.1-9.46c.18-.41.34-.75.48-1.01h0c.18-.33.33-.56.43-.7.28-.36,3.58-.36,4.26-.36h.07s0,0,0,0c.19,0,.34.04.45.13.13.1.19.24.19.43,0,.16-.05.28-.15.38-.09.09-.22.13-.38.15-.33.03-.62.09-.84.2-.21.1-.38.25-.5.43h0c-.12.2-.22.46-.29.79-.07.35-.1.78-.1,1.28v.02s.01.77.01.77c0,.19.01.55.02,1.02.03,2.45.1,8,.79,8.94.31.42.84.48,1.61.57h.07c.16.03.29.09.38.18.1.1.15.24.15.4,0,.18-.11.42-.34.59-.16.12-.38.2-.66.2-.08,0-.19,0-.32-.02-.13-.01-.28-.03-.45-.05-.46-.06-.86-.1-1.19-.13-.33-.03-.59-.04-.79-.04-.41,0-.78,0-1.1.03-.33.02-.63.05-.89.09h-.02c-.26.04-.47.07-.63.09-.19.02-.33.03-.43.03-.19,0-.32-.13-.41-.3-.08-.17-.13-.39-.13-.53s.05-.26.16-.36c.08-.08.2-.14.35-.18.18-.05.33-.07.47-.08.17-.02.3-.03.35-.11.07-.11.13-.26.17-.43.04-.18.06-.4.06-.65,0-.15,0-.26,0-.32,0-.08,0-.15,0-.21l-.33-7.67c-.06.09-.12.21-.19.36l-4.39,9.27-.17.37c-.11.25-.22.44-.32.57-.14.18-.28.27-.42.28h-.01c-.17,0-.34-.14-.53-.42-.15-.22-.33-.55-.53-.99h0s-.59-1.21-.59-1.21l-3.68-8.22v.04c-.13,2.2-.11,4.49-.17,6.7l.1,1.08c.05.52.23.89.5,1.15.28.27.67.45,1.14.56.2.05.36.12.48.21.15.11.22.25.22.42s-.05.35-.17.5c-.11.13-.26.22-.46.22-.11,0-.23,0-.36-.02-.13,0-.27-.02-.41-.04-.28-.04-.56-.07-.84-.12-.1-.01-.22-.02-.37-.03-.14,0-.31-.01-.51-.01-.42,0-1.22.01-1.86.03-.45.02-.85.04-1,.06-.13.02-.25.04-.35.05-.11.01-.2.02-.27.02-.19,0-.34-.1-.45-.24-.12-.15-.18-.35-.18-.5,0-.13.04-.24.13-.34.07-.08.17-.14.31-.19l.17-.06c.48-.16.89-.29,1.05-.68.4-.99.85-4.54,1.04-7.7.16-2.61.17-4.93-.14-5.2-.17-.1-.35-.18-.55-.23-.21-.06-.44-.08-.68-.08-.2,0-.35-.04-.47-.13-.14-.1-.2-.25-.2-.43,0-.38.24-.57.73-.57.03,0,.07,0,.13,0,.06,0,.11,0,.16,0l.68.05c.06,0,.13,0,.2,0,.06,0,.14,0,.26,0,.18,0,.36,0,.53-.02.18-.01.35-.03.51-.05h0c.25-.03.47-.05.66-.07.18-.02.31-.03.39-.03.3,0,.57.07.79.22.22.15.39.36.52.65h0ZM24.47,73.25s.09,0,.16,0c.05,0,.11.02.17.03.06,0,.15.02.29.03.16.01.36.02.59.04l1.23.06,1.12-.04c.22-.02.41-.03.55-.05.15-.01.31-.03.47-.05h.02c.07,0,.14-.01.2-.02.07,0,.14,0,.2,0,.18,0,.32.09.42.22.09.13.14.3.14.46,0,.14-.05.26-.14.35-.08.08-.2.13-.34.16l-.44.08c-.23.04-.41.16-.52.38-.14.25-.21.64-.2,1.19,0,.82,0,1.61-.01,2.44h0c0,1.11-.03,2.13-.08,3.03-.06.91-.14,1.71-.25,2.41h0c-.11.7-.26,1.31-.44,1.85-.18.55-.4,1.02-.66,1.4h0c-.61.94-1.43,1.64-2.45,2.11-1.02.46-2.25.7-3.68.7-1,0-1.9-.1-2.68-.29-.79-.19-1.47-.48-2.04-.87h0c-.78-.54-1.36-1.32-1.75-2.34-.38-1.01-.57-2.26-.57-3.74v-.03s.13-4.47.13-4.47l-.04-2.11h0c0-.26-.01-.47-.04-.64-.02-.16-.05-.29-.1-.37h0c-.24-.48-.94-.58-1.49-.65l-.22-.03c-.19-.03-.34-.09-.45-.17-.14-.11-.2-.24-.2-.41,0-.16.04-.33.15-.46.1-.12.24-.2.43-.2.05,0,.11,0,.2,0,.1,0,.19.01.3.02h.02c.47.05.89.08,1.27.1.37.02.7.03.97.03.39,0,.79,0,1.2-.03.42-.02.85-.05,1.3-.09h0c.18-.01.34-.03.48-.03.14,0,.26-.01.33-.01.24,0,.43.08.56.2.17.15.25.36.25.55,0,.09-.01.17-.04.24-.03.09-.08.16-.15.21h-.01c-.05.04-.12.08-.22.1-.08.03-.19.05-.31.08h-.04c-.36.08-.43.09-.53.26h0c-.07.11-.12.27-.17.5-.05.24-.08.55-.1.91-.08,1.34-.15,2.91-.12,4.45.03,1.53.16,3.04.47,4.3.09.37.24.72.43,1.04.19.32.43.61.72.88h0c.55.5,1.23.81,1.96.95.74.14,1.51.09,2.22-.12.71-.21,1.36-.59,1.84-1.12.41-.44.7-1,.82-1.65.23-1.24.22-2.88.2-4.36,0-.4,0-.8,0-1.05v-.96s-.06-2.36-.06-2.36c0-.39-.12-.93-.37-1.3-.16-.25-.37-.43-.65-.43-.2,0-.36-.04-.48-.13-.14-.1-.2-.25-.2-.45,0-.13.03-.3.09-.44.07-.15.18-.27.34-.28h0ZM9.72,74.3c-.02,1-.01,1.1.06,1.67.02.19.05.43.09.71v.08c.02.07.03.13.02.19h0c-.01.29-.16.48-.36.58h-.02c-.09.05-.2.08-.3.08-.11,0-.21,0-.31-.04-.22-.06-.39-.21-.42-.41-.06-.39-.26-.81-.55-1.19-.3-.39-.69-.75-1.13-1.02-1.04-.63-2.02-.56-2.69-.12-.31.2-.56.49-.72.81-.16.33-.23.7-.19,1.08.09.89.77,1.85,2.33,2.49.93.38,1.7.76,2.32,1.13.63.38,1.11.77,1.43,1.15h0c.37.46.65.96.83,1.51.18.55.28,1.14.28,1.78,0,.7-.13,1.37-.39,1.98-.26.61-.64,1.18-1.15,1.7-.51.52-1.06.91-1.66,1.17-.6.26-1.25.39-1.94.39-.28,0-.64-.05-1.09-.14-.43-.09-.94-.23-1.53-.42h0c-.27-.09-.5-.16-.69-.22-.19-.06-.36-.1-.49-.13h0c-.4-.08-.65-.17-.74-.28h0c-.05-.07-.09-.17-.13-.31-.03-.11-.05-.25-.07-.42-.02-.18-.06-.39-.11-.64-.06-.25-.13-.55-.23-.9-.05-.17-.17-.71-.17-1.18,0-.2.02-.39.08-.55.07-.2.19-.34.39-.4h.01s.09-.02.14-.02c.09,0,.24.02.37.09.11.06.2.15.24.3.1.37.19.66.29.92.09.25.19.46.31.66.44.73.89,1.17,1.42,1.42.54.25,1.18.32,2.02.32.2,0,.43-.05.67-.13.29-.1.59-.24.89-.4.31-.17.56-.48.73-.85.14-.31.21-.67.2-1.04,0-.36-.1-.73-.29-1.07-.24-.44-.64-.82-1.25-1.09l-1.77-.79c-.84-.38-1.55-.74-2.13-1.1-.59-.36-1.04-.72-1.35-1.07h-.01c-.32-.37-.55-.77-.71-1.24-.16-.47-.24-.99-.24-1.56,0-.67.11-1.28.33-1.84.22-.56.55-1.07.99-1.52,1.09-1.13,2.83-1.47,4.44-1.43.87.02,1.7.15,2.36.33.68.18,1.2.41,1.42.62.11.1.16.22.16.34ZM77.26,74.51c-1.43.03-2.54.65-3.36,1.6-.95,1.1-1.48,2.64-1.6,4.21-.09,1.15.03,2.21.31,3.17.31,1.08.81,2.04,1.41,2.88.56.77,1.16,1.24,1.83,1.51.68.27,1.44.33,2.32.28,2.22-.13,3.59-1.82,4.16-3.96.24-.92.34-1.92.3-2.92-.05-1-.23-2-.56-2.91-.79-2.21-2.42-3.91-4.81-3.85Z"/>
      <path class="cls-1" d="M36.19,94.03c.92,0,1.99.27,3.21.8.15.06.27.11.36.14.07.02.12.04.14.04,0,0,.01,0,.02,0,0,0,.02,0,.03-.02l.09-.08s.09-.08.15-.1c.06-.03.12-.04.18-.05h.03c.15,0,.26.05.35.15l.02.02c.07.09.1.2.1.35v.02c0,.54-.03,1.08-.04,1.63l.02.56.02.22c0,.06.01.14.02.23v.17c0,.15-.04.27-.13.35-.09.09-.21.13-.36.12h0c-.13-.01-.23-.07-.31-.19-.06-.08-.1-.2-.12-.34h0c-.05-.3-.15-.59-.31-.88-.16-.3-.37-.59-.65-.88-.38-.41-.8-.71-1.25-.92-.45-.2-.95-.3-1.49-.3-.51,0-.96.1-1.36.3-.4.2-.75.49-1.06.89h0c-.31.4-.54.88-.69,1.42-.16.55-.23,1.16-.23,1.85,0,.74.08,1.42.24,2.04.16.62.4,1.17.73,1.67h0c.32.49.67.86,1.05,1.1.38.24.79.35,1.24.35.13,0,.29-.02.46-.04.18-.03.38-.08.59-.14h.02c.21-.07.4-.13.56-.2.16-.07.29-.13.39-.2h0c.08-.05.15-.12.21-.2h0c.06-.08.1-.18.13-.28.04-.12.06-.27.08-.46.02-.19.03-.43.03-.7,0-.3-.03-.55-.08-.75-.05-.18-.12-.32-.2-.41-.09-.09-.22-.17-.4-.23-.2-.06-.44-.1-.74-.12h0c-.14,0-.25-.05-.33-.13-.09-.09-.13-.2-.13-.34,0-.15.05-.27.16-.35.09-.07.21-.1.36-.1.03,0,.07,0,.13,0h.17s.02.01.02.01c.25.02.52.04.81.05.28.01.59.02.93.02s.65,0,.88-.01c.24,0,.44-.02.59-.04.12-.02.23-.03.34-.04.11,0,.2-.01.29-.01.15,0,.26.03.35.1.11.08.17.2.17.34,0,.26-.16.41-.47.48h-.02c-.11.03-.2.07-.28.13-.07.06-.13.14-.18.23h0c-.05.12-.08.28-.11.47-.03.21-.04.47-.04.78,0,.1,0,.19,0,.27,0,.08,0,.16.02.24h0c.01.13.02.24.02.35h0c0,.11,0,.19,0,.24,0,.1-.01.19-.03.27-.03.09-.07.17-.12.24,0,0-.01.02-.02.02-.05.05-.12.1-.2.15-.08.04-.17.09-.28.13h0c-.06.02-.2.08-.41.17-.22.09-.5.21-.85.36h0c-.65.28-1.26.49-1.82.63-.58.14-1.11.21-1.6.21-.75,0-1.43-.13-2.05-.38-.62-.26-1.17-.64-1.65-1.15h-.01c-.47-.52-.83-1.1-1.07-1.76-.24-.66-.36-1.38-.36-2.18,0-.89.14-1.71.41-2.46.27-.75.68-1.43,1.23-2.04.55-.61,1.17-1.07,1.85-1.37.69-.31,1.43-.46,2.25-.46M60.17,95.09c-.5,0-.94.09-1.33.27-.38.18-.71.46-.99.82-.28.37-.5.82-.64,1.34-.14.53-.22,1.14-.22,1.83,0,.82.09,1.55.27,2.21.18.65.45,1.23.81,1.73.36.49.77.86,1.22,1.11.46.24.97.36,1.53.36.51,0,.97-.1,1.37-.3.4-.2.76-.5,1.06-.9h.01c.3-.42.53-.89.69-1.44.16-.56.24-1.19.24-1.89,0-.4-.04-.8-.11-1.19-.07-.39-.18-.78-.33-1.17-.15-.38-.32-.73-.51-1.03-.19-.3-.4-.56-.64-.78h0c-.35-.33-.72-.57-1.12-.73-.4-.16-.84-.24-1.32-.24ZM60.74,94.03c.86,0,1.63.13,2.33.38.7.25,1.32.63,1.85,1.14h.01c.53.52.93,1.1,1.19,1.76.27.66.4,1.4.4,2.22,0,.88-.14,1.7-.41,2.45-.27.75-.68,1.44-1.23,2.05-.54.61-1.18,1.06-1.92,1.37-.74.3-1.57.45-2.5.45-1.79,0-3.22-.53-4.3-1.58-.54-.53-.95-1.15-1.22-1.85-.27-.7-.4-1.49-.4-2.36,0-.37.03-.75.1-1.13.07-.38.17-.75.3-1.12h0c.13-.38.29-.72.47-1.02h0c.18-.31.39-.6.63-.85h0c.27-.3.58-.56.92-.8.34-.23.72-.43,1.13-.6.41-.17.84-.29,1.28-.37.44-.08.89-.13,1.35-.13ZM46.78,96.04v2.77c0,.27.02.44.06.48.01.01.05.03.11.04.09.02.21.03.36.03.49,0,.88,0,1.15-.01.28,0,.48-.02.58-.04.09-.01.18-.04.26-.09.09-.04.17-.1.26-.18h0c.17-.15.29-.33.38-.54.09-.21.13-.46.13-.74,0-.37-.06-.71-.18-1.02-.12-.3-.3-.57-.54-.81-.24-.24-.51-.42-.82-.54-.31-.12-.65-.18-1.03-.18-.16,0-.29.02-.39.05-.08.03-.15.06-.18.11h0s-.07.12-.1.22h0c-.03.13-.04.28-.04.46ZM46.78,102.28c0,.5.02.91.07,1.24.04.31.11.55.19.7h0c.07.14.18.25.32.33.16.09.36.14.6.17h0c.15.02.27.06.36.13.12.09.18.21.18.36s-.05.26-.15.35c-.09.07-.21.11-.35.11-.03,0-.08,0-.14,0-.05,0-.11,0-.2-.02-.45-.04-.89-.06-1.31-.06-.19,0-.35,0-.49,0-.15,0-.3.01-.45.02-.06,0-.67.06-.67.06l-.54.05c-.08,0-.14.01-.18.02-.06,0-.11,0-.14,0-.15,0-.27-.03-.35-.1-.11-.08-.16-.2-.16-.35,0-.11.03-.2.08-.28.06-.08.14-.13.24-.17.16-.05.3-.11.41-.17.1-.06.17-.12.23-.19.05-.07.09-.16.12-.27h0c.03-.13.05-.28.05-.45v-.78s0-.28,0-.28h0v-5.77c0-.31-.02-.56-.06-.76-.03-.18-.08-.31-.14-.39h0c-.11-.16-.25-.27-.43-.36-.19-.1-.42-.16-.69-.19h-.02c-.15-.03-.26-.07-.35-.15-.11-.09-.16-.21-.16-.36,0-.14.04-.25.12-.33.08-.09.19-.13.33-.13.03,0,.08,0,.13,0h0s.1,0,.18.02c.2.02.41.03.63.04.21,0,.44.01.7.01.28,0,.57,0,.88-.02.31-.01.66-.04,1.06-.07.44-.03.82-.06,1.15-.08.32-.02.57-.03.73-.03.53,0,1.02.07,1.46.22.45.15.85.37,1.2.66.36.3.63.64.81,1.01.18.38.27.8.27,1.25,0,.29-.04.56-.12.83-.08.26-.2.51-.36.75-.16.23-.35.44-.57.62-.21.17-.46.32-.73.44v.02s.07.09.11.16c.04.07.08.14.13.23l.71,1.26.83,1.48c.13.23.26.43.38.59.12.16.22.28.32.37.18.15.39.23.63.23.06,0,.11,0,.16,0,.05,0,.09-.01.14-.02.03,0,.07-.01.11-.02h0s.07,0,.11,0c.12,0,.22.04.29.13.06.07.09.17.09.28,0,.15-.08.29-.25.43-.13.1-.31.2-.54.31-.23.1-.45.18-.66.23-.21.05-.41.08-.6.08-.31,0-.61-.08-.9-.23-.28-.15-.54-.37-.79-.66h0c-.24-.28-.51-.68-.82-1.2-.3-.51-.64-1.15-1.01-1.9h0c-.14-.29-.27-.52-.38-.7-.11-.17-.2-.28-.27-.35h0c-.07-.06-.16-.1-.27-.13-.13-.03-.29-.05-.48-.05h-.48l-.25.04s-.02.1-.02.17v1.62ZM23.12,97.28s0,0-.01,0c-.02,0-.01,0,.01,0ZM24.47,100.46l-1.05-2.44c-.12-.28-.22-.49-.31-.63-.04.08-.1.19-.16.32l-.15.33c-.34.78-.67,1.56-1.03,2.34-.01.03-.02.05-.03.07h0s0,.03,0,.04c0,0,0,0,.01,0,.06.03.17.05.33.05h2.41s-.03-.07-.03-.07ZM24.6,95.27l3.64,8.34c.08.19.17.37.27.51.1.14.2.26.3.35.11.09.23.16.37.22.14.06.3.11.48.14h.01c.11.02.19.08.25.17.05.08.07.17.07.28,0,.13-.03.23-.1.31-.08.09-.19.14-.32.13h0s-.09,0-.15-.02c-.04,0-.1-.02-.18-.03h0c-.2-.04-.45-.08-.77-.1-.32-.02-.71-.03-1.17-.03s-.84.01-1.14.03c-.3.02-.52.05-.68.09-.05.01-.09.02-.13.03-.05,0-.09.01-.13.01-.14,0-.25-.04-.33-.12-.08-.08-.12-.19-.12-.33,0-.1.04-.19.12-.27.06-.05.13-.09.22-.12h.02c.1-.04.19-.08.28-.13.09-.05.16-.12.23-.2.07-.08.12-.16.15-.24h0c.03-.08.04-.15.04-.22,0-.27-.22-.89-.67-1.88-.11-.24-.22-.38-.32-.4h0c-.07-.02-.25-.03-.54-.04-.29-.01-.7-.02-1.24-.02h-1.07l-.67.12c-.05.03-.12.11-.19.23-.1.16-.22.39-.33.69l-.25.63c-.03.07-.05.14-.07.21-.01.07-.02.15-.02.22,0,.26.09.47.27.62.2.17.51.27.93.32h.02c.14.02.24.06.32.13h.02c.1.1.15.21.14.34h0c-.01.15-.07.26-.17.34-.09.06-.2.1-.34.1-.05,0-.12,0-.21-.02-.08-.01-.16-.02-.25-.04h-.02c-.16-.04-.32-.06-.46-.08-.15-.02-.29-.03-.42-.03s-.28,0-.48.02c-.21.01-.45.03-.72.06-.22.02-.4.04-.51.05-.14.01-.23.02-.29.02-.13,0-.24-.04-.32-.11-.09-.08-.13-.19-.13-.32,0-.11.04-.21.12-.3.06-.07.15-.12.26-.16h0c.12-.04.23-.09.32-.16.1-.07.18-.15.25-.25h0s0,0,0,0c.08-.11.18-.29.31-.53.13-.25.28-.57.44-.95.75-1.6,1.5-3.39,2.18-5.03.08-.19.16-.36.22-.5.07-.15.12-.26.15-.33l.74-1.53v-.02s.39-.74.39-.74c0-.01.02-.03.02-.04l.09-.22c.05-.12.1-.21.14-.27.08-.12.18-.18.29-.18.13,0,.25.09.37.27.08.12.18.3.28.53.06.15.14.29.2.44Z"/>
      <g class="cls-2">
        <path class="cls-6" d="M24.2,5.57c4.13,4.01,8.27,8.02,12.4,12.03-4.06-6.98-5.64-7.93-12.4-12.03M34.62,19.92C23.92,17.59,18.13,10.65,16.31,0c6.77,1.15,13.88,1.23,18.71,8.67,2.05,3.15,3.68,7.62,4.71,14.05,2.12-7.01,5.45-10.92,8.67-15.09-3.51,2.48-6.09,6.16-8.21,10.41-.5-5.85.98-13.69,13.3-16.08.36,4.16-.41,7.85-2.52,10.82-1.52,2.14-3.76,3.88-6.4,5.53-4.23,2.65-2.64,1.88-4.08,6.77,4.29-3.26,8.41-2.71,11.18-1.29.7.36.83,5.5.18,6.38-.76-2.46-2.26-4-3.89-4.62-3.27-1.23-7.28,1.99-5.71,5.14.52,1.04,1.51,2.04,2.68,3.02,3.03,2.52,7.33,4.94,8.12,7.74.44,1.57.41,3.2-.28,4.92-.79,1.96-1.65,3.25-3.53,4.35-2.04,1.19-4.63,1.72-5.46,2.96-1.93,2.85,2.98,4.07,4.88,5.44,1.14.82,1.71,1.95.61,4.53.32-6.13-7.78-2.31-7.63-8.15-2.62,5.19,5.49,8.58.12,12.95.85-1.38.82-3.05.01-4.57-.73-1.36-2.17-2.54-2.55-4.22-2.01.7-3.88,1.63-3.96,3.18-.76-2.94,1.44-2.3,3.01-4.55,1.19-1.7-.37-2.15,2.57-5.69-4.86.33-7.36,2.48-8.21,5.9.55-10.83,11.96-5.71,15.61-11.33.77-1.23.94-2.34.69-3.37-1.18-4.77-8.6-5.07-10.98-10.04-.98-2.04-.54-4.46-.24-6.73.26-1.98.46-3.87-.27-5.39-.77-1.59-1.3-1.41-2.8-1.74Z"/>
      </g>
    </g>
  </g>
</svg>