<?xml version="1.0" encoding="UTF-8"?>
<svg id="Capa_2" data-name="Capa 2" xmlns="http://www.w3.org/2000/svg" xmlns:xlink="http://www.w3.org/1999/xlink" viewBox="0 0 127.29 155.6">
  <defs>
    <style>
      .cls-1, .cls-2 {
        fill: #fff;
      }

      .cls-3 {
        mask: url(#mask);
      }

      .cls-2 {
        fill-rule: evenodd;
      }

      .cls-4 {
        fill: url(#linear-gradient);
      }
    </style>
    <linearGradient id="linear-gradient" x1="-128.02" y1="461.79" x2="-138.22" y2="451.08" gradientTransform="translate(193.73 -396.41)" gradientUnits="userSpaceOnUse">
      <stop offset="0" stop-color="#fff"/>
      <stop offset="1" stop-color="#231f20"/>
    </linearGradient>
    <mask id="mask" x="23.97" y="0" width="54.79" height="100.66" maskUnits="userSpaceOnUse">
      <rect class="cls-4" x="23.97" y="0" width="54.79" height="100.66"/>
    </mask>
  </defs>
  <g id="Layer_1" data-name="Layer 1">
    <g>
      <path class="cls-2" d="M76.77,21.46h7.08l.04,13.96h2.72s11.35,0,11.35,0v33.41h-11.39s-2.68,0-2.68,0l-.04,13.96h-12.04l2.92,2.93h11.84l.04-14.18h13.99v-38.85h-13.99l-.04-14.18h-8.06l-1.74,2.94ZM37.77,85.74h7.46v-2.93h-4.48l.04-13.96h-1.83s-12.92,0-12.92,0v-33.41h11.78s2.98,0,2.98,0l-.02-6.06-2.98-1.93v5.27s-14.39,0-14.39,0v38.85h14.4l-.04,14.18Z"/>
      <path class="cls-1" d="M35.58,8.18c6.08,5.89,12.16,11.79,18.24,17.68-5.97-10.27-8.29-11.65-18.24-17.68M50.9,29.28c-15.73-3.42-24.24-13.62-26.93-29.28,9.96,1.7,20.41,1.81,27.5,12.75,3.01,4.63,5.41,11.2,6.93,20.66,3.12-10.31,8.01-16.06,12.75-22.19-5.17,3.64-8.95,9.05-12.07,15.3-.73-8.59,1.44-20.12,19.55-23.63.54,6.11-.6,11.54-3.71,15.91-2.24,3.14-5.53,5.71-9.41,8.14-6.22,3.89-3.88,2.76-6.01,9.96,6.3-4.8,12.37-3.99,16.44-1.9,1.04.53,1.22,8.08.26,9.38-1.12-3.62-3.32-5.89-5.71-6.79-4.8-1.81-10.7,2.92-8.4,7.56.76,1.54,2.22,3,3.95,4.44,4.46,3.71,10.77,7.26,11.94,11.39.65,2.31.61,4.7-.4,7.23-1.16,2.88-2.42,4.78-5.2,6.4-3,1.75-6.8,2.53-8.03,4.35-2.83,4.18,4.39,5.99,7.17,7.99,1.68,1.21,2.52,2.87.9,6.66.47-9.01-11.43-3.4-11.22-11.99-3.85,7.62,8.07,12.61.17,19.04,1.25-2.03,1.2-4.49.02-6.72-1.07-2-3.19-3.74-3.76-6.2-2.96,1.03-5.7,2.4-5.82,4.68-1.12-4.32,2.12-3.39,4.43-6.69,1.75-2.5-.55-3.16,3.78-8.36-7.14.49-10.82,3.65-12.07,8.67.81-15.93,17.58-8.4,22.95-16.66,1.13-1.81,1.39-3.44,1.02-4.95-1.73-7.01-12.64-7.46-16.15-14.76-1.44-3-.79-6.56-.36-9.9.38-2.91.68-5.69-.4-7.93-1.13-2.33-1.91-2.07-4.11-2.55Z"/>
      <path class="cls-1" d="M118.61,131.6s0-.01,0,0h0s0,0,0,0ZM118.61,131.6h0s0,0,0,0h0ZM114.82,107.2c1.8.12,3.44.46,4.91,1.06,1.43.58,2.69,1.39,3.76,2.46,1.09,1.09,1.91,2.36,2.46,3.79.54,1.43.82,3.02.82,4.78,0,1.26-.14,2.47-.42,3.62-.28,1.15-.71,2.24-1.27,3.28-.33.61-.7,1.17-1.09,1.68-.4.51-.83.97-1.3,1.36h0c-.46.4-1,.79-1.6,1.15-.61.36-1.29.71-2.03,1.04-.16.07-.28.13-.36.19.02,0,.04.01.07.03.16.13.42.28.76.46.62.35,1.31.66,1.91,1.02.44.24.88.41,1.33.53.44.12.89.17,1.34.17.28,0,.58-.07.89-.2.33-.14.68-.36,1.05-.65h.02c.07-.07.13-.11.19-.14.09-.04.17-.07.26-.08h0c.13-.02.25.01.37.09.08.05.16.13.23.22h0c.07.11.12.2.15.29.04.11.06.22.04.33h0c-.02.2-.16.44-.4.71-.21.24-.51.54-.91.89l-.02.02c-.77.67-1.54,1.18-2.28,1.52-.77.35-1.53.52-2.27.52-.44,0-.9-.05-1.37-.15-.46-.1-.94-.24-1.42-.43-.47-.19-1.04-.45-1.69-.79-.65-.34-1.39-.75-2.19-1.24-1.24-.73-2.21-1.25-2.93-1.64-.45-.24-.8-.43-1.03-.57-.57-.34-1.18-.65-1.81-.96-1.92-.96-3.93-1.95-5.4-4.38-.92-1.52-1.57-3.54-1.84-5.59-.27-2.01-.19-4.06.32-5.74.82-2.69,2.59-4.94,4.86-6.48,2.28-1.55,5.07-2.37,7.92-2.18ZM91.39,110.01l7.77,17.83c.19.43.36.8.55,1.11.18.29.37.53.6.72.29.25.72.29,1.21.34.23.02.46.05.7.09h0c.2.03.35.14.46.3.09.14.13.31.13.52,0,.05,0,.13,0,.21-.01.18-.04.39-.09.56-.09.27-.25.47-.54.47h-.03c-.09,0-.19-.02-.31-.04h-.01c-.12-.02-.24-.04-.37-.07h-.01c-.43-.09-.98-.16-1.67-.21-.69-.05-1.53-.07-2.5-.07s-1.79.02-2.44.07c-.65.04-1.14.11-1.48.2h0c-.09.03-.18.05-.26.06-.1.02-.18.02-.26.02-.3,0-.49-.2-.6-.47-.11-.27-.15-.63-.15-.85,0-.18.07-.33.2-.46.1-.1.24-.17.42-.23.24-.07.45-.08.64-.09.2,0,.37-.01.49-.16.15-.18.27-.36.34-.54.07-.17.11-.35.11-.54,0-.28-.12-.76-.35-1.42-.25-.7-.61-1.58-1.1-2.66-.14-.3-.28-.53-.43-.69v-.02c-.13-.13-.25-.21-.37-.24h0c-.16-.04-.56-.08-1.18-.1-.63-.02-1.52-.03-2.66-.03h-3.02c-.06,0-.12.04-.23.21-.2.32-.47.94-.94,2.1l-.53,1.32c-.07.17-.12.34-.16.51-.04.17-.05.33-.05.5,0,.64,0,1.04.19,1.25.2.23.65.35,1.56.46.28.03.5.11.65.23.2.16.29.36.28.62,0,.17-.03.42-.1.64-.1.32-.3.57-.69.57-.11,0-.25-.01-.42-.03-.16-.02-.34-.05-.52-.09h-.02c-.35-.08-.69-.14-1.02-.17-.32-.04-.62-.06-.91-.06-.27,0-.61.01-1.03.04-.44.03-.96.07-1.54.13-.47.05-.84.09-1.09.11-.29.02-.49.04-.61.04-.09,0-.44-.21-.64-.5h0c-.08-.13-.15-.27-.19-.41-.04-.17-.04-.36.04-.54h0c.1-.24.33-.44.74-.58.19-.06.36-.1.52-.13.31-.07.56-.12.75-.38h0c.18-.25.41-.64.68-1.18.27-.54.59-1.21.94-2.02v-.02c.58-1.32,1.08-2.47,1.59-3.61,1.82-4.15,3.65-8.32,5.27-12.56.18-.46.47-1.08.74-1.66.13-.28.26-.55.36-.76.03-.06.06-.1.1-.15l.03-.03c.12-.11.29-.18.48-.19.18-.02.38.01.56.09.09.04.18.1.26.17.14.14.21.33.26.49.02.05.04.11.04.12.07.13.15.27.23.43.07.14.15.3.23.47l.42.92ZM91.41,120.98l-2.23-5.22c-.26-.61-.48-1.07-.66-1.36-.12-.2-.15-.31-.17-.31-.06,0,.06.05,0,.14-.11.19-.26.48-.44.87l-.32.71c-.72,1.65-1.43,3.38-2.2,5-.03.06-.05.12-.06.17h0s-.02.08-.02.12c0,.05.04.1.11.13.16.07.42.11.77.11h5.05c.14,0,.25-.01.31-.04-.01-.03-.03-.08-.05-.13l-.09-.2ZM53.42,109.09l6.63,15.34c.13.3.25.53.36.67.06.08.06.12.07.12.01,0,.04-.03.09-.08.08-.09.17-.23.25-.42l6.03-13.9c.26-.6.5-1.1.71-1.49h0c.26-.49.48-.83.64-1.03.42-.53,5.26-.53,6.26-.52h.1s0,0,0,0c.28,0,.5.06.66.19.19.15.28.36.28.62,0,.23-.07.42-.22.56-.13.13-.32.2-.55.21-.49.04-.91.14-1.24.3-.32.15-.56.36-.74.63h0c-.18.29-.32.68-.42,1.16-.1.52-.15,1.14-.15,1.88v.02s.02,1.13.02,1.13c.01.28.02.81.03,1.5.04,3.6.14,11.75,1.16,13.15.45.62,1.24.71,2.36.84h.1c.24.04.42.13.55.27.14.15.21.35.21.58,0,.27-.16.62-.49.87-.24.17-.56.29-.97.29-.11,0-.27,0-.47-.03-.19-.02-.4-.04-.66-.07-.68-.08-1.27-.14-1.75-.19-.49-.04-.87-.06-1.16-.06-.6,0-1.14.01-1.62.04-.48.03-.92.07-1.31.13h-.02c-.38.06-.69.1-.93.13-.27.03-.48.05-.63.05-.27,0-.47-.19-.6-.44-.12-.24-.19-.58-.19-.78s.08-.38.23-.53c.12-.12.29-.21.51-.27.26-.07.48-.1.68-.12.24-.03.43-.04.52-.17.11-.17.19-.38.25-.63.06-.27.09-.59.09-.96,0-.22,0-.38,0-.48,0-.12,0-.22-.01-.3l-.49-11.27c-.08.13-.18.31-.29.53l-6.45,13.63-.25.54c-.17.37-.33.64-.47.84-.2.27-.41.4-.62.41h-.02c-.25,0-.51-.2-.78-.61-.22-.33-.48-.81-.78-1.46h0s-.87-1.78-.87-1.78l-5.41-12.09v.06c-.18,3.24-.16,6.6-.25,9.85l.15,1.59c.07.76.33,1.31.74,1.7.41.4.99.66,1.67.83.3.08.53.18.7.31.22.17.33.37.33.62s-.08.52-.25.73c-.15.19-.38.32-.67.32-.16,0-.34,0-.53-.02-.19-.01-.39-.04-.61-.06-.41-.07-.83-.11-1.24-.17-.14-.02-.32-.03-.54-.04-.2,0-.45-.01-.74-.01-.62,0-1.79.02-2.74.05-.67.02-1.24.05-1.47.09-.19.03-.37.06-.51.08-.16.02-.29.03-.4.03-.28,0-.5-.15-.67-.35-.17-.22-.27-.51-.27-.74,0-.19.06-.36.19-.5.11-.12.26-.21.45-.28l.25-.08c.7-.23,1.31-.43,1.54-1.01.58-1.45,1.24-6.67,1.54-11.32.24-3.84.25-7.25-.21-7.65-.24-.15-.51-.27-.8-.34-.31-.08-.64-.12-1.01-.12-.29,0-.52-.06-.69-.19-.2-.15-.3-.36-.3-.63,0-.56.36-.84,1.07-.84.04,0,.11,0,.19,0,.08,0,.16,0,.23.01l1,.07c.09,0,.19,0,.29.01.08,0,.21,0,.38,0,.27,0,.52,0,.77-.02.26-.02.51-.04.75-.08h0c.37-.05.69-.08.97-.11.27-.02.46-.04.58-.04.44,0,.83.11,1.16.33.32.22.58.53.76.95h0ZM35.97,107.7c.06,0,.14,0,.23.01.08,0,.16.03.26.05.08.01.23.03.43.04.24.02.52.04.86.05l1.81.09,1.65-.06c.33-.03.6-.05.8-.07.22-.02.45-.05.69-.08h.02c.1-.01.2-.02.3-.03.11,0,.21-.01.29-.01.26,0,.47.13.61.33.14.19.21.45.21.68,0,.21-.07.38-.21.52-.12.12-.29.2-.5.23l-.65.12c-.34.06-.6.23-.77.55-.2.37-.3.94-.29,1.75.01,1.21,0,2.37-.02,3.58h0c0,1.64-.04,3.13-.12,4.46-.08,1.34-.2,2.52-.37,3.54h0c-.17,1.02-.38,1.93-.65,2.73-.27.81-.59,1.49-.96,2.06v.02c-.91,1.37-2.11,2.4-3.62,3.08-1.5.68-3.31,1.02-5.41,1.02-1.48,0-2.79-.14-3.95-.42-1.17-.28-2.17-.71-3.01-1.28h0c-1.15-.79-2-1.94-2.57-3.45-.56-1.48-.84-3.32-.84-5.5v-.04s.19-6.57.19-6.57l-.05-3.1h0c0-.38-.02-.69-.05-.94-.03-.24-.08-.42-.14-.55h0c-.35-.7-1.38-.85-2.19-.96l-.33-.05c-.28-.04-.5-.13-.66-.25-.2-.16-.3-.36-.3-.61,0-.24.06-.49.22-.68.14-.17.35-.29.64-.29.07,0,.17,0,.29.01.14,0,.28.02.44.03h.03c.69.07,1.31.12,1.87.15.55.03,1.02.05,1.42.05.57,0,1.16-.01,1.76-.04.61-.03,1.25-.07,1.91-.13h0c.26-.02.5-.04.71-.05.21-.01.38-.02.49-.02.35,0,.63.12.82.29.25.22.37.53.37.8,0,.13-.02.25-.05.35-.05.13-.12.23-.22.31h-.02c-.08.06-.18.11-.32.15-.12.04-.27.08-.45.11h-.05c-.53.11-.63.13-.78.38h0c-.1.16-.18.4-.24.73-.07.36-.12.81-.15,1.34-.11,1.98-.21,4.28-.17,6.54.04,2.25.23,4.48.69,6.32.14.55.35,1.06.63,1.53.28.47.64.9,1.07,1.29h0c.81.74,1.81,1.2,2.88,1.39,1.08.2,2.22.14,3.27-.18,1.04-.31,1.99-.87,2.71-1.65.6-.65,1.03-1.47,1.21-2.42.34-1.83.32-4.23.29-6.42,0-.59-.01-1.17-.01-1.54v-1.41s-.09-3.47-.09-3.47c-.01-.58-.18-1.36-.54-1.92-.23-.37-.55-.63-.96-.63-.3,0-.54-.07-.71-.2-.2-.15-.3-.37-.3-.66,0-.19.05-.45.14-.65.1-.22.27-.39.5-.41h.01ZM14.29,109.24c-.04,1.48-.02,1.62.09,2.46.04.28.08.64.13,1.05v.11c.03.1.04.18.04.28h0c-.02.43-.24.71-.53.85h-.03c-.14.08-.29.11-.44.12-.16,0-.31-.01-.46-.05-.32-.09-.57-.31-.62-.61-.09-.57-.38-1.19-.81-1.75-.44-.58-1.01-1.11-1.66-1.5-1.54-.93-2.97-.82-3.95-.17-.45.3-.82.71-1.05,1.2-.23.48-.34,1.03-.29,1.59.13,1.31,1.13,2.72,3.43,3.65,1.37.56,2.5,1.11,3.41,1.66.93.56,1.63,1.13,2.1,1.69h0c.54.67.95,1.41,1.23,2.22.27.81.41,1.68.41,2.61,0,1.04-.19,2.01-.57,2.92-.38.9-.94,1.74-1.69,2.5-.75.77-1.56,1.34-2.45,1.73-.89.39-1.84.58-2.85.58-.42,0-.95-.07-1.6-.21-.63-.14-1.38-.34-2.25-.61h0c-.4-.13-.73-.24-1.01-.32-.29-.08-.53-.15-.72-.19h-.01c-.59-.12-.95-.25-1.09-.4h-.01c-.07-.11-.14-.25-.18-.45-.04-.16-.07-.36-.1-.62-.03-.26-.08-.57-.17-.94-.08-.37-.19-.81-.34-1.32-.07-.25-.25-1.04-.25-1.74,0-.29.03-.57.12-.8.1-.29.29-.51.57-.59h.02c.07-.02.14-.03.21-.03.13,0,.36.03.55.13.16.09.3.23.35.44.15.54.28.98.42,1.36.14.37.28.68.46.97.65,1.07,1.31,1.71,2.09,2.08.79.37,1.74.48,2.97.48.29,0,.63-.07.99-.19.42-.14.87-.35,1.31-.59.46-.25.83-.7,1.07-1.25.2-.46.31-.99.29-1.52-.01-.53-.15-1.08-.42-1.58-.35-.64-.95-1.21-1.83-1.6l-2.61-1.16c-1.24-.55-2.29-1.09-3.13-1.62-.86-.54-1.53-1.06-1.99-1.57l-.02-.02c-.46-.52-.81-1.12-1.04-1.8-.23-.68-.35-1.45-.35-2.3,0-.98.16-1.89.48-2.71.32-.83.81-1.58,1.45-2.24,1.61-1.66,4.17-2.16,6.52-2.1,1.28.03,2.5.22,3.47.48,1.01.26,1.77.6,2.09.91.16.15.24.32.24.49ZM113.59,109.54c-2.1.05-3.74.96-4.93,2.35-1.39,1.62-2.18,3.88-2.35,6.19-.13,1.69.05,3.24.45,4.66.45,1.59,1.19,3,2.08,4.23.82,1.14,1.71,1.83,2.69,2.22,1,.39,2.12.49,3.41.41,3.26-.19,5.28-2.67,6.12-5.83.36-1.35.5-2.82.43-4.29-.07-1.47-.34-2.93-.82-4.27-1.17-3.25-3.55-5.74-7.07-5.66Z"/>
      <path class="cls-1" d="M53.21,138.24c1.35,0,2.93.39,4.73,1.17.22.09.39.16.52.2.11.04.18.05.2.05.01,0,.02,0,.03,0,.01,0,.02-.01.04-.02l.13-.12c.07-.06.14-.11.22-.15.08-.04.17-.06.27-.07h.04c.22,0,.39.07.51.22l.02.03c.1.13.14.3.14.51v.04c-.01.8-.04,1.59-.06,2.4l.04.83.03.32c0,.09.02.2.04.35v.25c.01.22-.05.4-.19.52-.13.13-.31.18-.53.17h-.01c-.19-.02-.34-.11-.46-.28-.08-.12-.14-.29-.18-.49v-.02c-.08-.43-.23-.85-.45-1.27-.23-.43-.55-.87-.95-1.29-.56-.6-1.17-1.05-1.84-1.35-.67-.3-1.39-.44-2.18-.44-.75,0-1.41.14-2,.43-.59.29-1.11.73-1.55,1.31h0c-.45.59-.79,1.29-1.02,2.08-.23.8-.35,1.71-.35,2.72,0,1.09.12,2.09.36,3,.24.91.59,1.73,1.07,2.46h0c.47.72.98,1.26,1.55,1.61.55.35,1.16.52,1.82.52.2,0,.42-.02.67-.07.26-.05.55-.11.87-.21h.02c.31-.1.58-.19.82-.29.23-.1.42-.19.58-.29h0c.12-.08.23-.18.31-.29h0c.08-.12.15-.26.2-.41.05-.17.09-.4.12-.68.03-.28.04-.63.04-1.03,0-.44-.04-.81-.11-1.1-.07-.27-.17-.47-.3-.61-.13-.14-.32-.25-.58-.33-.29-.09-.65-.15-1.08-.17h0c-.21-.01-.37-.08-.49-.19-.13-.13-.2-.29-.2-.49,0-.22.08-.39.24-.51.13-.1.31-.15.52-.15.04,0,.1,0,.19,0h.25s.03.02.03.02c.37.03.76.06,1.19.07.41.02.87.02,1.37.02s.95,0,1.29-.02c.35-.01.64-.03.87-.06.18-.02.34-.04.5-.05.16-.01.3-.02.42-.02.21,0,.39.05.52.14.16.12.24.29.24.5,0,.38-.23.61-.69.7h-.02c-.16.04-.3.1-.41.19-.11.09-.2.2-.26.34h0c-.07.18-.12.41-.16.7-.04.31-.06.69-.06,1.15,0,.15,0,.28,0,.39,0,.12.01.24.03.35h0c.02.19.03.36.04.51h0c0,.16.01.27.01.35,0,.15-.02.28-.05.4-.04.14-.1.25-.18.35,0,.01-.02.02-.03.03-.07.08-.17.15-.29.22-.11.06-.25.13-.42.19h0c-.09.03-.29.12-.6.24-.32.13-.73.31-1.25.53h0c-.95.41-1.85.72-2.68.93-.85.21-1.63.31-2.35.31-1.1,0-2.1-.19-3.01-.56-.91-.38-1.72-.94-2.42-1.69l-.02-.02c-.7-.75-1.22-1.6-1.57-2.56-.35-.97-.53-2.03-.53-3.21,0-1.31.2-2.51.6-3.62.4-1.11,1.01-2.11,1.81-3,.81-.89,1.71-1.57,2.72-2.02,1.01-.45,2.11-.68,3.3-.68M88.46,139.81c-.74,0-1.39.13-1.96.4-.56.27-1.05.67-1.46,1.21-.42.55-.73,1.21-.94,1.98-.21.78-.32,1.67-.32,2.69,0,1.2.13,2.28.4,3.25.27.96.66,1.8,1.2,2.54.52.73,1.12,1.27,1.8,1.63.67.36,1.42.54,2.26.54.75,0,1.42-.15,2.01-.44.59-.29,1.11-.74,1.56-1.33l.02-.02c.45-.59.78-1.29,1.01-2.09.23-.82.35-1.74.35-2.78,0-.59-.05-1.18-.16-1.75-.11-.58-.27-1.15-.49-1.72-.22-.57-.47-1.07-.75-1.51-.28-.44-.59-.82-.94-1.14h0c-.51-.48-1.06-.84-1.65-1.08-.6-.24-1.24-.36-1.93-.36ZM89.3,138.24c1.26,0,2.4.18,3.43.55,1.03.37,1.94.93,2.73,1.67l.02.02c.78.74,1.36,1.6,1.75,2.57.39.97.59,2.06.59,3.26,0,1.29-.2,2.49-.6,3.6-.4,1.11-1.01,2.11-1.81,3.02-.79.89-1.73,1.56-2.82,2.01-1.08.44-2.31.67-3.68.67-2.63,0-4.74-.77-6.33-2.32-.8-.78-1.39-1.68-1.79-2.72-.39-1.03-.59-2.19-.59-3.47,0-.55.05-1.1.15-1.65.1-.55.25-1.1.45-1.64v-.02c.2-.54.44-1.03.7-1.48h0c.27-.46.58-.88.93-1.25h0c.4-.44.85-.83,1.35-1.17.5-.34,1.06-.64,1.67-.88.61-.24,1.23-.43,1.87-.55.64-.12,1.31-.18,1.98-.18ZM68.78,141.2v4.07c0,.4.03.64.09.71.02.02.07.04.16.06.13.03.3.04.52.04.72,0,1.29,0,1.69-.02.42-.01.7-.03.86-.05.13-.02.26-.06.38-.13.13-.06.25-.15.38-.27h0c.25-.23.43-.49.56-.8.13-.31.19-.68.19-1.09,0-.55-.09-1.05-.27-1.5-.18-.45-.44-.84-.79-1.19-.35-.35-.75-.62-1.2-.79-.45-.18-.95-.27-1.51-.27-.24,0-.43.02-.57.07-.12.04-.21.09-.27.15h0c-.06.07-.11.18-.15.33h0c-.04.19-.06.41-.06.67ZM68.78,150.38c0,.73.03,1.34.1,1.83.06.46.15.81.27,1.04h0c.1.21.26.37.47.49.23.13.52.21.88.25h.01c.22.02.4.09.53.19.17.13.26.31.26.53s-.07.39-.22.51c-.13.11-.3.16-.52.16-.05,0-.12,0-.21-.01-.07,0-.17-.01-.3-.03-.66-.05-1.3-.08-1.92-.08-.28,0-.52,0-.72,0-.22,0-.44.02-.66.03-.08,0-.98.09-.98.09l-.8.07c-.11.01-.2.02-.27.03-.09,0-.16.01-.21.01-.22,0-.39-.05-.52-.15-.16-.12-.24-.29-.24-.51,0-.16.04-.3.12-.41.08-.12.2-.2.35-.24.24-.07.44-.16.6-.26.15-.09.26-.18.33-.28.07-.1.13-.24.17-.4h0c.04-.19.07-.41.07-.67v-1.15s.01-.42.01-.42h0v-8.48c0-.45-.03-.82-.08-1.11-.05-.26-.12-.45-.2-.57v-.02c-.17-.21-.38-.39-.64-.52-.28-.14-.62-.23-1.01-.28h-.03c-.22-.04-.39-.11-.51-.22-.16-.14-.24-.31-.24-.53,0-.2.06-.37.18-.49.12-.13.28-.19.49-.19.05,0,.12,0,.2,0h0c.05,0,.14.01.26.02.3.03.6.05.93.07.31.01.65.02,1.02.02.41,0,.84-.01,1.3-.03.46-.02.98-.05,1.55-.1.65-.05,1.21-.09,1.69-.12.47-.03.83-.04,1.08-.04.78,0,1.5.11,2.15.32.66.22,1.25.54,1.77.98.53.44.92.94,1.19,1.49.27.56.4,1.17.4,1.84,0,.42-.06.83-.18,1.21-.12.39-.3.75-.53,1.1-.24.34-.52.65-.84.91-.32.26-.67.47-1.07.64l.02.03c.04.05.08.13.15.24.06.1.12.21.19.34l1.05,1.86,1.22,2.17c.2.34.38.63.56.87.17.23.33.41.47.54.26.22.57.34.92.34.09,0,.16,0,.23,0,.07,0,.14-.02.2-.03.05-.01.1-.02.17-.03h0c.06,0,.11-.01.16-.01.18,0,.32.07.43.2.08.11.13.24.13.41,0,.22-.12.43-.37.63-.18.15-.45.3-.8.45-.34.15-.66.27-.97.34-.31.08-.61.12-.88.12-.46,0-.9-.11-1.32-.34-.41-.22-.8-.54-1.16-.97h0c-.35-.41-.75-1-1.2-1.77-.44-.75-.94-1.69-1.49-2.8h0c-.2-.42-.39-.77-.56-1.03-.16-.25-.29-.42-.4-.51h0c-.1-.08-.23-.14-.4-.19-.19-.05-.43-.07-.71-.07h-.7l-.37.06c-.01.06-.02.14-.02.25v2.38ZM33.99,143.02s0-.01-.02-.01c-.04,0-.02,0,.02.01ZM35.98,147.69l-1.54-3.59c-.18-.42-.33-.72-.45-.93-.06.12-.14.28-.23.47l-.22.49c-.5,1.14-.99,2.3-1.51,3.43-.02.05-.03.08-.04.11h0s0,.04,0,.06c0,0,0-.01.02,0,.09.04.26.07.49.07h3.54s-.05-.1-.05-.1ZM36.17,140.07l5.35,12.27c.12.29.26.54.4.75.14.21.29.38.44.51.16.13.34.24.54.33.21.09.44.16.7.2h.02c.16.04.28.12.37.26.07.11.11.25.11.42,0,.19-.05.34-.15.46-.12.14-.27.2-.47.19h-.01c-.06,0-.13-.01-.22-.03-.06,0-.15-.03-.27-.05h-.01c-.29-.06-.67-.11-1.13-.14-.47-.03-1.04-.05-1.71-.05s-1.23.02-1.68.05c-.44.03-.77.07-1,.13-.07.02-.13.04-.19.05-.07.01-.14.02-.2.02-.2,0-.37-.06-.49-.18-.12-.12-.18-.28-.18-.49,0-.15.06-.28.17-.39.08-.08.19-.14.32-.18h.03c.15-.05.29-.11.41-.19.13-.08.24-.18.34-.29.1-.12.17-.23.22-.35h0c.04-.12.06-.22.06-.33,0-.39-.33-1.31-.99-2.76-.16-.36-.32-.55-.48-.59h0c-.1-.03-.37-.05-.79-.07-.43-.02-1.03-.02-1.83-.02h-1.57l-.98.17c-.08.05-.17.17-.29.34-.15.24-.32.58-.49,1.01l-.37.93c-.04.1-.07.21-.1.31-.02.11-.03.21-.03.33,0,.39.13.69.39.91.29.24.75.4,1.37.47h.03c.2.03.36.09.48.19l.02.02c.15.13.22.29.21.49h0c-.02.22-.1.38-.26.49-.13.09-.3.14-.51.14-.08,0-.18,0-.3-.02-.12-.01-.24-.03-.36-.06h-.03c-.24-.06-.46-.09-.68-.12-.22-.03-.42-.04-.61-.04s-.42,0-.7.03c-.31.02-.66.05-1.06.09-.33.03-.58.06-.75.07-.2.02-.34.03-.43.03-.2,0-.35-.05-.47-.16-.13-.12-.2-.27-.2-.47,0-.17.06-.31.17-.44.09-.1.22-.18.38-.24h.01c.18-.06.34-.14.48-.24.14-.1.26-.22.37-.37h0s0,0,0,0c.12-.16.27-.42.45-.78.19-.37.41-.84.65-1.4,1.11-2.35,2.21-4.98,3.21-7.39.12-.28.23-.53.32-.74.1-.21.17-.38.22-.48l1.09-2.24.02-.03.56-1.08s.02-.04.04-.05l.14-.33c.07-.17.14-.31.21-.4.12-.17.26-.26.42-.26.19,0,.37.13.54.4.12.18.26.44.42.78.09.21.2.43.29.64Z"/>
      <g class="cls-3">
        <path class="cls-1" d="M35.58,8.18c6.08,5.89,12.16,11.79,18.24,17.68-5.97-10.27-8.29-11.65-18.24-17.68M50.9,29.28c-15.73-3.42-24.24-13.62-26.93-29.28,9.96,1.7,20.41,1.81,27.5,12.75,3.01,4.63,5.41,11.2,6.93,20.66,3.12-10.31,8.01-16.06,12.75-22.19-5.17,3.64-8.95,9.05-12.07,15.3-.73-8.59,1.44-20.12,19.55-23.63.54,6.11-.6,11.54-3.71,15.91-2.24,3.14-5.53,5.71-9.41,8.14-6.22,3.89-3.88,2.76-6.01,9.96,6.3-4.8,12.37-3.99,16.44-1.9,1.04.53,1.22,8.08.26,9.38-1.12-3.62-3.32-5.89-5.71-6.79-4.8-1.81-10.7,2.92-8.4,7.56.76,1.54,2.22,3,3.95,4.44,4.46,3.71,10.77,7.26,11.94,11.39.65,2.31.61,4.7-.4,7.23-1.16,2.88-2.42,4.78-5.2,6.4-3,1.75-6.8,2.53-8.03,4.35-2.83,4.18,4.39,5.99,7.17,7.99,1.68,1.21,2.52,2.87.9,6.66.47-9.01-11.43-3.4-11.22-11.99-3.85,7.62,8.07,12.61.17,19.04,1.25-2.03,1.2-4.49.02-6.72-1.07-2-3.19-3.74-3.76-6.2-2.96,1.03-5.7,2.4-5.82,4.68-1.12-4.32,2.12-3.39,4.43-6.69,1.75-2.5-.55-3.16,3.78-8.36-7.14.49-10.82,3.65-12.07,8.67.81-15.93,17.58-8.4,22.95-16.66,1.13-1.81,1.39-3.44,1.02-4.95-1.73-7.01-12.64-7.46-16.15-14.76-1.44-3-.79-6.56-.36-9.9.38-2.91.68-5.69-.4-7.93-1.13-2.33-1.91-2.07-4.11-2.55Z"/>
      </g>
    </g>
  </g>
</svg>