<?xml version="1.0" encoding="UTF-8"?>
<svg id="Capa_2" data-name="Capa 2" xmlns="http://www.w3.org/2000/svg" viewBox="0 0 61.15 60.2">
  <defs>
    <style>
      .cls-1 {
        fill: #1c75bc;
      }
    </style>
  </defs>
  <g id="Layer_1" data-name="Layer 1">
    <g>
      <path class="cls-1" d="M35.22,49.05c-.03.99-.81,1.63-1.66,1.64s-1.67-.64-1.7-1.6l-.73-22.52c-.05-1.44.82-2.61,2.29-2.7,1.25-.08,2.58.95,2.53,2.38l-.73,22.8Z"/>
      <path class="cls-1" d="M19.84,41.78h-11.32s-.01-1.95-.01-1.95c-.02-3.17,2.67-5.65,5.77-5.6s5.61,2.66,5.58,5.85v1.71Z"/>
      <path class="cls-1" d="M13.65,59.19c-1.41-.88-2.46-1.96-3.36-3.21-1.18-1.71-1.8-3.64-1.79-5.73v-7.42s5.15,0,5.15,0v16.36Z"/>
      <path class="cls-1" d="M19.85,50.62c-.09,3.55-2.2,6.68-5.15,8.57v-16.36s5.15,0,5.15,0v7.8Z"/>
      <path class="cls-1" d="M57.07,30.58c-1.49,1.9-3.5,2.98-5.89,2.67-1.11-.14-2.13-.42-3.22-.83.62-2.3,2.41-3.93,4.92-3.48,1.49.27,2.89.85,4.18,1.64Z"/>
      <path class="cls-1" d="M37.56,5.58c-1.04.73-2.12,1.21-3.35,1.63-.97-2.15-.65-4.52,1.55-5.79,1.31-.75,2.74-1.16,4.31-1.42.12,2.13-.69,4.34-2.51,5.58Z"/>
      <path class="cls-1" d="M47.62,26.98c-1.14,4.14-4.42,4.5-8.16,3.75.1-.77.31-1.45.66-2.1,1.48-2.78,4.88-2.46,7.5-1.64Z"/>
      <path class="cls-1" d="M29.78,8.94c-.93.99-1.99,1.71-3.2,2.35-.44-.66-.71-1.38-.86-2.15-.53-3.05,2.33-4.93,4.79-5.91.9,2.03.83,4.08-.73,5.72Z"/>
      <path class="cls-1" d="M22.27,7.94c2.33,3.71.35,6.32-2.59,8.62-1.54-1.76-1.96-3.97-.51-5.91.83-1.11,1.87-2,3.1-2.71Z"/>
      <path class="cls-1" d="M47.13,7.4c-1.14.55-2.29.72-3.5.52-1.14-.18-2.19-.57-3.22-1.13.66-.95,1.47-1.69,2.45-2.25,1.26-.69,2.66-.87,4.06-.5,1.06.28,2,.75,2.91,1.42-.8.8-1.67,1.44-2.69,1.94Z"/>
      <path class="cls-1" d="M61.15,40.95c-1.1.11-2.13.06-3.16-.16-1.25-.27-2.31-.87-3.16-1.83-.77-.87-1.36-1.84-1.8-2.95,1.07-.29,2.06-.34,3.09-.22,1.42.2,2.64.9,3.53,2.02.71.91,1.19,1.91,1.51,3.13Z"/>
      <path class="cls-1" d="M42.69,13.38c-1.03.32-2.08.44-3.14.36-1.2-.1-2.24-.59-3.02-1.5-.6-.69-1.03-1.47-1.35-2.38,2.21-.83,4.94-1.1,6.46,1.03.51.73.83,1.5,1.05,2.49Z"/>
      <path class="cls-1" d="M50.6,42.57c-1.06-.45-2-1.06-2.8-1.88-1.53-1.58-1.49-3.62-.76-5.61,1.17.38,2.19.94,3.07,1.75,1.71,1.57,1.52,3.74.49,5.74Z"/>
      <path class="cls-1" d="M43.63,40.28c-1.11-.24-2.11-.69-3.01-1.35-1.76-1.28-2.05-3.31-1.65-5.41,1.24.17,2.39.58,3.39,1.28,1.82,1.26,1.94,3.39,1.26,5.48Z"/>
      <path class="cls-1" d="M32.84,16.89c-1.26.11-2.35-.26-3.25-1.05-.67-.59-1.2-1.27-1.63-2.08.99-.59,2.05-1,3.2-1.14,1.26-.17,2.42.24,3.28,1.14.63.65,1.07,1.41,1.4,2.29-.96.45-1.91.75-3,.83Z"/>
      <path class="cls-1" d="M26.71,21.1c-2.2.57-4.04-.66-5.27-2.33.91-.77,1.88-1.32,2.97-1.65,2.29-.68,4.07.78,5.11,2.66-.88.6-1.77,1.05-2.81,1.32Z"/>
      <path class="cls-1" d="M14.88,29.86c0,.44-.36.7-.68.7-.41,0-.72-.31-.72-.74v-6.05c1.86-2.12,3.81-4.08,5.9-5.95.3-.27.79-.14.98.12.23.3.2.71-.1.99-1.89,1.7-3.65,3.46-5.37,5.38v5.56Z"/>
      <path class="cls-1" d="M32.87,54.69c1.41-.38,2.77.46,3.11,1.84.32,1.29-.47,2.66-1.84,3.01-1.28.33-2.66-.43-3.03-1.78-.35-1.26.36-2.68,1.76-3.06Z"/>
      <path class="cls-1" d="M3.36,57.76c-.82.73-1.55,1.5-2.31,2.26-.25.24-.61.25-.86.02-.22-.21-.26-.6,0-.87l2.46-2.47v-7.66c0-.35.24-.64.6-.64h3.18c.35,0,.61.22.65.53s-.2.67-.57.67l-2.64.02v7.55c0,.38-.27.39-.5.6Z"/>
      <path class="cls-1" d="M27.22,58.76c.22.23.22.56.07.78-.13.2-.59.39-.8.17l-2.61-2.6v-7.71s-2.57-.01-2.57-.01c-.35,0-.6-.25-.62-.57s.25-.63.63-.63h3.1c.34,0,.66.23.66.6v7.82s2.14,2.16,2.14,2.16Z"/>
      <path class="cls-1" d="M6.87,39.32c.38,0,.62.26.64.55.02.33-.22.65-.6.65h-3.27c-.27,0-.57-.26-.57-.54v-5.26s-1.89-1.89-1.89-1.89c-.25-.25-.18-.66.04-.86.24-.21.61-.2.86.05l2,2c.15.15.2.44.2.66v4.62s2.59,0,2.59,0Z"/>
      <path class="cls-1" d="M24.37,40.59h-3.22c-.38,0-.62-.32-.6-.63.02-.37.31-.57.69-.57h2.52s0-5.03,0-5.03l2.18-2.2c.23-.23.62-.22.83-.03.25.22.27.62.02.88l-1.84,1.84v5.13c0,.29-.24.61-.58.61Z"/>
      <path class="cls-1" d="M29.85,31.52c-2.67.01-5.23.11-7.87.32-.47.04-.82-.37-.85-.76-.04-.46.29-.87.79-.91,2.63-.22,5.2-.32,7.87-.31l.07,1.66Z"/>
      <path class="cls-1" d="M27.56,46.77c0,.36-.32.61-.58.61-.35,0-.62-.26-.62-.63v-2.16s-5.21,0-5.21,0c-.35,0-.59-.27-.6-.57s.23-.63.61-.63h5.69c.38,0,.71.22.71.62v2.75Z"/>
      <path class="cls-1" d="M1.67,44.58l-.03,2.17c0,.36-.24.63-.57.65-.28.02-.64-.21-.64-.57v-2.78c-.01-.22.11-.54.28-.68h6.19c.35,0,.59.29.61.57.02.33-.23.64-.6.64H1.67Z"/>
      <path class="cls-1" d="M11.77,30.76c.28.28.27.65.03.9-.21.22-.61.27-.88,0l-4.19-4.19c-.26-.26-.22-.68.04-.9s.61-.2.88.07l4.12,4.12Z"/>
      <path class="cls-1" d="M17.4,31.64c-.28.28-.61.27-.85.06s-.27-.6,0-.86l3.9-3.9c.24-.24.6-.25.82-.04.25.22.27.6,0,.87l-3.88,3.88Z"/>
      <path class="cls-1" d="M16.4,33.54c-1.49-.44-2.96-.5-4.44.03-.08-1.27.9-2.3,2.09-2.36s2.39.87,2.35,2.34Z"/>
    </g>
  </g>
</svg>