<?xml version="1.0" encoding="UTF-8"?>
<svg id="Capa_2" data-name="Capa 2" xmlns="http://www.w3.org/2000/svg" viewBox="0 0 57.82 57.8">
  <defs>
    <style>
      .cls-1 {
        fill: #b76428;
      }
    </style>
  </defs>
  <g id="Layer_1" data-name="Layer 1">
    <g>
      <path class="cls-1" d="M50.57,43.53c-3.46-.66-5.3-2.65-5.43-6.17-.02-.48.3-1.02.82-1.01,1.7.01,3.22.59,4.59,1.61v-2.12c-3.48-.55-5.47-2.89-5.4-6.35.01-.52.54-.86,1.01-.82,1.64.13,3.07.62,4.38,1.62v-1.71c-2.43-2.93-2.36-5.96.06-8.88.21-.26.53-.49.82-.51.34-.02.7.22.93.5,2.43,3.05,2.47,5.8.06,8.92-.03.49-.02,1.11,0,1.68,1.33-1.01,2.8-1.53,4.49-1.61.34-.02.86.32.88.7.1,1.66-.39,3.33-1.5,4.55-1.02,1.13-2.37,1.61-3.88,1.92v2.12c1.35-1.01,2.81-1.56,4.49-1.62.43-.02.89.35.9.81.03,1.52-.36,3.03-1.31,4.22-1.01,1.27-2.48,1.83-4.08,2.16v1.62s4.38,0,4.38,0c.53,0,.94.29,1.02.79.07.44-.24,1.05-.81,1.05h-9.98s1.53,1.81,1.53,1.81h8.34c.54,0,.89.37.92.85.02.41-.28.95-.81.95h-6.88s1.54,1.79,1.54,1.79h5.34c.48.01.78.49.8.87.02.41-.29.94-.8.95l-3.7.02,1.49,1.76h1.98c.54,0,.95.27,1.02.78.06.45-.21,1.06-.83,1.06H.85c-.53,0-.82-.49-.84-.85-.03-.45.3-.96.82-.97l2.19-.03,1.51-1.76-3.71-.02c-.52,0-.83-.54-.8-.95.04-.56.46-.87,1.03-.87h5.1s1.56-1.78,1.56-1.78H1.04c-.57,0-.99-.29-1.03-.86-.03-.48.34-.95.92-.95h8.36s1.58-1.79,1.58-1.79H.83c-.49,0-.8-.49-.82-.86-.03-.41.29-.97.8-.97l4.6-.02.03-1.58C2.03,42.85.15,40.99,0,37.36c-.02-.47.31-1.02.82-1.01,1.67.02,3.17.55,4.58,1.6l.02-2.11C1.95,35.26.05,33.07,0,29.58c0-.5.42-.94.92-.92,1.67.08,3.16.59,4.48,1.61v-1.71c-2.43-2.93-2.36-5.96.06-8.88.21-.26.54-.49.83-.51.31-.02.66.19.87.44,2.48,2.99,2.54,5.9.12,8.98v1.67c1.37-1,2.97-1.64,4.68-1.56.64.03.75.82.7,1.32-.31,3.41-2.02,5.17-5.4,5.82v2.12c1.35-1.01,2.82-1.56,4.49-1.62.57-.02.95.48.93,1.02-.15,3.61-2.03,5.48-5.43,6.18v1.6s9.41,0,9.41,0c.04-.31.11-.84-.03-1.03-2.26-3.03-2.38-5.8.06-8.78.23-.28.55-.54.87-.56.35-.02.7.2.94.49,2.39,2.9,2.47,5.8.15,8.78-.19.25-.13.8-.03,1.1h9.35s.02-1.63.02-1.63c-3.44-.58-5.4-2.8-5.42-6.26,0-.58.48-.96,1.03-.92,1.63.12,3.06.62,4.38,1.62v-2.12c-3.41-.6-5.23-2.58-5.42-6.03-.03-.58.3-1.16.93-1.14,1.66.07,3.16.61,4.48,1.61v-1.68c-2.51-3.03-2.33-6.31.28-9.14.33-.36.97-.36,1.3,0,2.63,2.83,2.75,6.11.29,9.16v1.66c1.32-1,2.71-1.47,4.36-1.61.64-.06,1.07.44,1.05,1.03-.12,3.48-1.97,5.54-5.42,6.15v2.12c1.32-.99,2.74-1.52,4.37-1.63,1.93-.13.74,3.46.04,4.56-1.02,1.61-2.57,2.22-4.42,2.63v1.62s9.39,0,9.39,0c.05-.35.07-.8-.01-1.05-2.37-2.93-2.31-5.88.04-8.76.23-.29.55-.54.87-.56.35-.02.7.2.94.49,2.38,2.9,2.49,5.88.09,8.84-.08.25-.06.7-.01,1.05h9.39s.02-1.61.02-1.61ZM18.28,48.76l1.41-1.77-6.37-.02-1.53,1.8h6.5ZM28,48.77l-.02-1.79h-5.83s-1.5,1.78-1.5,1.78h7.35ZM37.16,48.76l-1.48-1.79h-5.82s-.03,1.8-.03,1.8h7.33ZM46.06,48.76l-1.54-1.79-6.38.03,1.48,1.78,6.44-.02ZM15.26,52.37l1.42-1.78h-6.54s-1.48,1.76-1.48,1.76l6.61.02ZM27.99,52.37v-1.79s-8.86,0-8.86,0l-1.49,1.79h10.35ZM40.16,52.36l-1.47-1.79h-8.87s.04,1.8.04,1.8h10.3ZM49.2,52.36l-1.53-1.78h-6.55s1.49,1.79,1.49,1.79h6.59ZM12.27,55.95l1.42-1.76h-6.68s-1.54,1.78-1.54,1.78l6.8-.02ZM27.99,55.98l-.02-1.79h-11.83s-1.46,1.78-1.46,1.78h13.31ZM43.13,55.96l-1.44-1.78h-11.85s0,1.8,0,1.8h13.29ZM52.33,55.96l-1.51-1.78-6.68.03,1.47,1.78,6.71-.02Z"/>
      <path class="cls-1" d="M34.27,18.09h-10.76c-.6,0-.94-.47-.93-1.04.07-3.47,2.9-6.2,6.29-6.22s6.32,2.72,6.39,6.23c.01.58-.33,1.04-.99,1.04Z"/>
      <path class="cls-1" d="M35.98,11.42c-.4.4-.97.34-1.3.05s-.43-.94-.04-1.33l5.19-5.19c.38-.38.96-.18,1.25.12.36.37.35.91-.05,1.31l-5.04,5.04Z"/>
      <path class="cls-1" d="M23.16,10.11c.4.4.34.97.05,1.3s-.94.42-1.33.04l-5.07-5.07c-.41-.41-.4-.93-.06-1.31.37-.4.93-.44,1.37,0l5.03,5.04Z"/>
      <path class="cls-1" d="M19.89,18.1h-7.33c-.47,0-.79-.51-.81-.87-.02-.42.29-.97.81-.97h7.43c.52,0,.84.55.82.97s-.39.88-.91.88Z"/>
      <path class="cls-1" d="M45.12,18.09h-7.18c-.53,0-.89-.43-.92-.87-.03-.51.35-.97.92-.97h7.21c.53,0,.9.41.92.86.02.5-.33.97-.96.97Z"/>
      <path class="cls-1" d="M29.83,8.2c0,.55-.47.83-.86.86-.42.03-.96-.28-.96-.81V.82c0-.52.57-.85.95-.82.57.04.88.47.88,1.03v7.16Z"/>
      <path class="cls-1" d="M33.25,9.13c-.22.54-.76.73-1.19.57-.46-.17-.75-.69-.55-1.19l1.18-2.87c.2-.48.68-.72,1.09-.61.49.13.88.67.66,1.2l-1.19,2.91Z"/>
      <path class="cls-1" d="M20.94,12.87c.51.21.63.76.5,1.16-.15.45-.69.76-1.2.55l-3.02-1.26c-.43-.18-.56-.78-.44-1.09.17-.45.68-.79,1.17-.59l3,1.23Z"/>
      <path class="cls-1" d="M37.64,14.56c-.55.23-1.08-.08-1.24-.53s.03-.97.54-1.17l2.96-1.22c.49-.2,1,.14,1.17.59.14.38-.04.94-.52,1.13l-2.9,1.2Z"/>
      <path class="cls-1" d="M26.3,8.45c.22.53-.02,1-.45,1.21-.36.18-1,.07-1.21-.43l-1.25-3.02c-.21-.51.12-1.02.57-1.18s.96.07,1.18.59l1.16,2.82Z"/>
    </g>
  </g>
</svg>