<?xml version="1.0" encoding="UTF-8"?>
<svg id="Capa_2" data-name="Capa 2" xmlns="http://www.w3.org/2000/svg" viewBox="0 0 62.13 62.14">
  <defs>
    <style>
      .cls-1 {
        fill: #3e642f;
      }
    </style>
  </defs>
  <g id="Layer_1" data-name="Layer 1">
    <g>
      <path class="cls-1" d="M29.56,6.2c13.8-.84,25.56,9.76,26.37,23.38.82,13.71-9.67,25.53-23.37,26.35-13.68.82-25.47-9.59-26.36-23.27-.89-13.66,9.53-25.62,23.36-26.46ZM24.37,24.05c4.33-1.72,9.07-.41,11.92,3.24l.02-3.42c-5.62-1.98-8.18-8.33-5.56-13.65.14-.29.58-.57.92-.48,5.96,1.58,8.98,8.03,6.45,13.63-.13.28-.03.85,0,1.23,2.77-3.63,7.54-4.92,11.81-3.28.58.22.9.7.66,1.34-1.41,5.43-7.04,8.58-12.52,7.01v8.94s14.85,0,14.85,0c3.31-9.68-.09-20.24-8.2-26.19-8.18-6-19.35-5.95-27.48.11-8.03,5.99-11.35,16.56-8.04,26.09l9.92-.02v-3.11c-4.34,1.03-8.68-1.46-9.74-5.8-.12-.49.13-.92.56-1.1,3.24-1.31,6.79-.46,9.15,2.1v-1.94c-4.38-1.65-6.31-6.61-4.27-10.8.23-.48.73-.59,1.19-.44,4.72,1.48,6.92,6.52,4.8,11.11,1.12-.95,2.03-1.74,3.3-2.21l-.36-1.2c-.14-.48.08-.95.6-1.16ZM36.71,22.1c1.58-4.25-.52-8.81-4.67-10.38-1.58,4.15.46,8.81,4.67,10.38ZM16.1,19.53c-.95,3.03.46,6.17,3.37,7.44,1.13-2.77-.47-6.54-3.37-7.44ZM48.68,22.77c-4.36-1.33-8.87.95-10.27,5.12,4.3,1.33,8.9-.91,10.27-5.12ZM29.64,30.05c2.01,1,4.33,1.24,6.35.5-1.47-4.28-6.1-6.36-10.22-5.08-.21,1.05,1.64-.18,4.43,1.1,1.17.54-.2,2.67-.55,3.48ZM28.64,27.92c-1.71-.5-3.26-.19-4.66.56-1.27.64-2.22,1.72-2.72,3.14,3.05.84,6.35-.74,7.39-3.7ZM18.82,33.69c-1.2-3.06-4.43-4.5-7.48-3.67,1.22,2.99,4.41,4.55,7.48,3.67ZM36.33,38.59l-.02-6.23c-2.71.73-5.44.43-7.86-.94-2.05,1.93-4.77,2.59-7.53,1.97v5.2s15.42-.01,15.42-.01ZM52.2,40.41H9.92c3.75,8.49,12.14,13.8,21.19,13.79,8.98-.02,17.37-5.31,21.09-13.79Z"/>
      <path class="cls-1" d="M18.3,7.33l-4.31-.24c-.21-.01-.55-.17-.68-.31-.14-.15-.26-.67-.14-.93l1.83-4.01c.22-.48.77-.67,1.14-.51.55.24.68.75.47,1.27-.16.39-.29.71-.48,1.23C28.37-2.88,43.43-.58,53.14,9.22c10.61,10.71,12.04,27.6,3.17,39.93-.23.32-.86.34-1.21.07s-.43-.83-.16-1.2c7.99-11.23,6.99-26.42-2.1-36.52C43.75,1.4,28.82-1.2,16.83,5.49l1.68.07c.47.02.81.54.79.9-.02.54-.44.9-1,.87Z"/>
      <path class="cls-1" d="M47.28,57.38l-2.31,3.86c-.25.41-.74.53-1.16.37s-.65-.73-.41-1.18l.59-1.1c-12.23,5.58-26.52,2.67-35.62-7.05S-2.76,26.68,4.65,14.74c.23-.37.81-.47,1.19-.24s.55.81.29,1.23C-.73,26.86.68,41.12,9.35,50.71s22.69,12.41,34.44,6.73l-1.86-.3c-.44-.07-.75-.56-.72-.95.04-.43.47-.9.98-.82l4.48.77c.46.08.9.74.6,1.23Z"/>
      <path class="cls-1" d="M18.2,43.76c.32.32.25.92,0,1.2-.27.31-.91.41-1.24.08l-1.88-1.87c-.35-.35-.34-.91-.03-1.25.32-.35.92-.4,1.3-.02l1.85,1.85Z"/>
      <path class="cls-1" d="M37.8,47.56c.36.36.34.94.05,1.26-.31.34-.93.4-1.29.03l-1.87-1.87c-.32-.32-.26-.89,0-1.19.3-.33.9-.42,1.26-.07l1.85,1.83Z"/>
      <path class="cls-1" d="M29.11,48.49c.37.37.34.92.03,1.25s-.89.42-1.26.05l-1.88-1.88c-.33-.33-.27-.9-.01-1.19.32-.35.9-.43,1.27-.06l1.85,1.84Z"/>
      <path class="cls-1" d="M40.92,43.7c.34.33.34.87.11,1.19-.21.31-.89.52-1.22.2l-1.95-1.92c-.35-.35-.35-.91-.03-1.26s.91-.39,1.3,0l1.79,1.79Z"/>
      <path class="cls-1" d="M35.94,51.8c.39.38.37.92.1,1.24-.34.4-.95.43-1.32.05l-1.82-1.82c-.35-.35-.32-.89-.05-1.21.33-.39.94-.42,1.31-.04l1.78,1.78Z"/>
      <path class="cls-1" d="M46.34,44.65c.39.39.3,1-.06,1.3-.34.29-.87.29-1.23-.07l-1.76-1.75c-.37-.37-.4-.91-.1-1.26.32-.37.94-.42,1.3-.05l1.84,1.84Z"/>
      <path class="cls-1" d="M23.56,44.65c.39.39.3,1.01-.06,1.31-.34.29-.87.28-1.23-.08l-1.75-1.75c-.33-.33-.39-.83-.16-1.18.25-.38.92-.56,1.29-.19l1.91,1.89Z"/>
      <path class="cls-1" d="M32.21,45.52c.39.39.37.93.08,1.26s-.91.43-1.26.08l-1.93-1.93c-.33-.33-.22-.96.09-1.24s.88-.29,1.21.04l1.8,1.79Z"/>
      <path class="cls-1" d="M23.56,49.16c.39.39.3,1.01-.06,1.32-.34.29-.87.28-1.23-.09l-1.76-1.75c-.33-.33-.38-.83-.15-1.18.25-.37.92-.56,1.29-.19l1.91,1.89Z"/>
    </g>
  </g>
</svg>