<?xml version="1.0" encoding="UTF-8"?>
<svg id="Capa_2" data-name="Capa 2" xmlns="http://www.w3.org/2000/svg" viewBox="0 0 56.12 56.13">
  <defs>
    <style>
      .cls-1 {
        fill: #f7941d;
      }
    </style>
  </defs>
  <g id="Layer_1" data-name="Layer 1">
    <g>
      <path class="cls-1" d="M3.61,15.08l.02-4.3c0-.9.8-1.72,1.73-1.72h9.3c.83,0,1.62.84,1.63,1.63l.04,2.76,1.8-4.37c.98-2.37,3.37-3.66,5.91-3.66h7.73c1.48.02,2.78.54,3.96,1.46l.47-.78V1.73c.01-.89.81-1.72,1.74-1.72h9.3c.83.11,1.63.77,1.63,1.64l.02,4.45,6.84,11.97c.22.39.4.81.4,1.28v32.14c0,2.36-1.82,4.6-4.3,4.6l-47.27.02c-2.4,0-4.53-1.94-4.53-4.38v-30.66c-.01-.93.3-1.84.84-2.53l2.75-3.48ZM47.05,5.43V1.83s-9.03,0-9.03,0v3.59s9.03,0,9.03,0ZM19.55,19.93c-.66-.1-1.21-.29-1.64-.72l-2.9-2.89H4.97s-2.6,3.25-2.6,3.25c-.48.6-.62,1.38-.52,2.15h34.33s0-9.93,0-9.93c0-2.49-1.96-4.45-4.43-4.52h-7.89c-1.87,0-3.51,1.12-4.2,2.85l-2.36,5.88,1.38,1.36,2.65-6.6c.47-1.14,1.5-1.71,2.71-1.71h7.48c1.51-.06,2.87,1.09,2.88,2.65v8.23s-14.84,0-14.84,0ZM38.03,18.1h15.59s-6.18-10.84-6.18-10.84h-9.77s-.66,1.11-.66,1.11c.71,1.08,1.01,2.22,1.01,3.48v6.24ZM14.47,14.48v-3.6s-9.03,0-9.03,0v3.59s9.03,0,9.03,0ZM32.57,18.1v-6.32c-.03-.51-.38-.87-.9-.9h-7.81c-.4.01-.71.23-.85.6l-2.64,6.61h12.2ZM48.86,39.64c-.3,3.08-2.87,5.47-5.89,5.64-1.98.1-3.37-.45-4.94-1.78v7.84c0,1.09-.26,2.03-.89,2.95h14.27c1.77.01,2.9-1.24,2.9-2.97v-31.39s-16.27,0-16.27,0v12.48s.02.48.02.48l.87-1.45c.4-.67.8-1.3,1.28-1.93l1.22-1.59c.35-.45.69-.85,1.14-1.32,2.56,2.93,5.36,6.93,6.2,10.7.12.53.17,1.71.11,2.33ZM33.35,54.29c1.61.03,2.8-1.16,2.84-2.72v-28.03s-34.36,0-34.36,0v28.19c.11,1.35,1.06,2.32,2.39,2.55h29.13ZM45.14,42.54c1.15-.81,1.81-2.09,1.85-3.5.08-2.8-2.22-6.28-3.77-8.53-.22-.32-.45-.59-.7-.87-1.78,2.28-4.66,6.73-4.44,9.55.13,1.64,1.08,3.03,2.46,3.72,1.51.75,3.19.62,4.61-.37Z"/>
      <path class="cls-1" d="M32.59,50.69H5.43s0-23.54,0-23.54h27.16s0,23.54,0,23.54ZM30.76,48.86v-19.88s-23.5,0-23.5,0v19.88s23.5,0,23.5,0Z"/>
      <path class="cls-1" d="M23.92,45.74l-.7-1.34c-.3-.58-.9-.94-1.57-.94-3.53-.02-6.44-2.46-7.15-5.89-.16-.74-.83-1.3-1.57-1.32l-1.33-.04c-1.58-.05-2.7-1.52-2.55-2.97.17-1.69,1.55-2.46,3.12-2.51,3.72-.1,6.93,2.18,7.71,5.89.15.71.8,1.36,1.6,1.37,2.64.01,5.06,1.29,6.4,3.59.33.57.62,1.15.88,1.76.57,1.32-.05,2.82-1.28,3.45s-2.88.27-3.56-1.04ZM12.65,34.4v-1.79c-.37,0-.69,0-1.04.02-.47.04-.75.49-.73.91.02.36.29.81.74.83l1.03.04ZM15.56,35.65l1.23-1.24c-.63-.69-1.32-1.19-2.28-1.49v1.87s1.05.86,1.05.86ZM18.46,37.96c-.48-.88-.32-1.26-.7-1.9l-1.39,1.38c.13.59.36,1.12.68,1.58l1.41-1.07ZM21.14,39.83c-.54-.16-.92-.3-1.42-.51l-1.46,1.1c.65.51,1.31.83,2.09,1.01l.8-1.61ZM23.39,42.04l1.62-1.03c-.56-.42-1.17-.74-1.92-.98l-.81,1.62,1.11.38ZM27.05,43.95l-.78-1.54-1.52.94c.29.56.52,1.04.8,1.53.24.41.85.42,1.17.22.38-.24.53-.74.32-1.15Z"/>
      <polygon class="cls-1" points="16.29 47.08 9.04 47.07 9.05 45.26 16.3 45.25 16.29 47.08"/>
      <rect class="cls-1" x="9.05" y="41.63" width="5.44" height="1.82"/>
    </g>
  </g>
</svg>