<?xml version="1.0" encoding="UTF-8"?>
<svg id="Capa_2" data-name="Capa 2" xmlns="http://www.w3.org/2000/svg" viewBox="0 0 68.63 68.63">
  <defs>
    <style>
      .cls-1 {
        fill: #008f55;
      }
    </style>
  </defs>
  <g id="Layer_1" data-name="Layer 1">
    <g>
      <path class="cls-1" d="M22.91,59.14l3.53-9.41,2.78-2.83H12.64c.67,1.11,1.62,1.95,2.14,3.06.24,1.13.03,2.47.1,3.65.05.74-.46,1.26-1.08,1.29-.74.04-1.23-.51-1.23-1.28l.02-2.87-2.3-3.07-2.29,3.08v3c0,.67-.5,1.11-1.08,1.14-.51.03-1.2-.34-1.19-1v-3.96s2.23-3.03,2.23-3.03H1.14c-.66-.01-1.11-.52-1.14-1.08-.03-.63.43-1.21,1.14-1.21h8.01s0-4.03,0-4.03c-1.18.27-2.25.51-3.37.41-2.94-.26-4.42-2.59-4.65-5.37-.06-.69.39-1.17,1.01-1.32,2.85-.72,5.94-1.1,8.16,1.4,2.21-2.49,5.3-2.12,8.16-1.4.61.15,1.07.63,1.01,1.32-.24,2.83-1.77,5.17-4.77,5.38-1.08.07-2.11-.16-3.25-.42v4.03s19.45,0,19.45,0l-.02-7.99c-1.3.74-2.47,1.18-3.82,1.22-3.61-.07-5.48-3.38-6.4-6.46-.22-.76.12-1.47.91-1.64,3.22-1.09,6.58-.56,9.31,1.6l.02-6.19c-2.63.24-4.88-1.26-5.5-3.81-.23-.91-.69-4.11.77-4.16,1.26-.05,2.41.11,3.57.54,2.09.79,3.49,2.74,3.47,5.04l-.03,3.56c2.89-2.27,5.6-2.67,9.13-2.32.69.07,1.24.61,1.14,1.32-.53,3.8-2.76,7.68-7.16,7.29-1.08-.13-2.09-.46-3.13-.9v12.9s20.59,0,20.59,0v-16.8s-3.89-5.8-3.89-5.8c-3.27.97-6.51.48-7.94-2.89-.71-1.66-.85-3.41-.78-5.24.03-.73.51-1.37,1.33-1.28,2.62.3,5.51.97,7.5,2.76,1.33,1.32,2.02,3.07,1.59,5l2.18,3.28c-.1-1.72.22-3.37-.06-5.04-.47-2.8-1.35-5.47-1.97-8.28-1.2-.17-2.27-.37-3.3-.95-3.01-1.7-3.39-5.39-2.65-8.46.16-.66.78-.97,1.41-.88,1.75.23,3.43.6,4.93,1.47,2.98,1.7,3.29,4.91,1.74,7.85l1.61,6.37,2.8-3.47c.24-3.17,1.38-5.79,4.54-7.05,1.24-.49,5.73-1.43,5.8.41.13,3.21-.95,6.59-4.14,7.88-1.46.59-2.98.66-4.54.4l-3.9,4.87.02,7c.52-.45.94-.85,1.28-1.26.73-1.97,1.6-3.75,3.06-5.23,1.92-1.95,4.59-2.82,7.23-2.1.63.17,1.07.62,1,1.31-.18,1.86-.53,3.67-1.38,5.31-1.76,3.43-5.13,4.18-8.65,2.79l-2.55,2.53v15.52s11.57,0,11.57,0c.67,0,1.03.71,1.01,1.2-.03.59-.48,1.08-1.14,1.08l-9.77.02,6.24,6.26,1.19,5.76,3.16,3.16c.45.45.42,1.17.03,1.6-.36.4-1.14.55-1.59.1l-3.74-3.72-1.15-5.72-3.41-3.43-3.54,4.4v2.43s4.44,3.33,4.44,3.33l1.27,5c.16.63-.29,1.23-.8,1.37-.63.17-1.28-.16-1.45-.85l-1.07-4.18-3.04-2.27-2.87,6.67c-.26.6-.94.79-1.49.58-.49-.19-.9-.84-.64-1.44l3.38-7.91v-3.55s4.16-5.21,4.16-5.21l-1.79-1.8-4.7,5.63-1.13,7.93-4.73,7.1c-.37.55-1.09.63-1.57.32s-.75-1.01-.38-1.56l4.46-6.69,1.17-8.07,4.31-5.21h-17.55s6.26,6.3,6.26,6.3l1.21,7.25c.04.66-.38,1.18-.95,1.27-.63.11-1.24-.29-1.36-.99l-1.06-6.43-6.92-6.94-1.91,1.9,3.03,4.06.02,4.84c0,.72-.43,1.25-1.08,1.28-.73.03-1.23-.5-1.22-1.29,0-1.29.07-2.7-.03-3.99-.67-1.1-1.55-2.13-2.38-3.23l-3.35,8.89c-.24.63-.83.89-1.43.73-.48-.13-1.03-.75-.77-1.44Z"/>
      <path class="cls-1" d="M1.5,24.01c-.74.1-1.28-.22-1.45-.81-.16-.55.14-1.34.84-1.43,2.71-.37,5.23-1.08,7.75-2.17,7.72-3.33,14.93-9.16,20.89-15.1l-1.78-1.82c-.22-.22-.31-.78-.22-1.06.11-.33.51-.74.9-.8L34.17.01c.72-.1,1.39.56,1.28,1.29l-.82,5.74c-.05.34-.43.74-.7.86-.25.11-.87.08-1.08-.12l-1.7-1.63C23.56,13.72,12.4,22.54,1.5,24.01Z"/>
    </g>
  </g>
</svg>