<?xml version="1.0" encoding="UTF-8"?>
<svg id="Capa_2" data-name="Capa 2" xmlns="http://www.w3.org/2000/svg" viewBox="0 0 83.52 94.46">
  <defs>
    <style>
      .cls-1 {
        fill: #fafbfb;
      }

      .cls-2 {
        fill: #c85148;
      }
    </style>
  </defs>
  <g id="Layer_1" data-name="Layer 1">
    <g>
      <path class="cls-2" d="M39.52,69.2v4.69c.02,10.84-9.05,19.36-19.73,19.37-10.63.01-19.73-8.51-19.74-19.37l-.04-29.78h19.26c-.34-.4-.63-.6-.69-1.07V14.91c-2.83-2.94-4.44-6.55-2.63-10.48.71-1.56,1.72-2.91,2.98-4.07.52-.48,1.23-.45,1.74.02,1.29,1.2,2.32,2.6,3.03,4.22,1.7,3.85.07,7.46-2.71,10.3v28.01c-.02.54-.29.8-.72,1.2h19.27s0,24.11,0,24.11v.98ZM24.15,84.87c2.94-1.93,4.86-5.53,5.8-8.85.75-2.66,1.09-5.36.95-8.13-.32-6.38-5.62-12.66-10.48-16.37-.45-.24-.94-.28-1.36.04-4.92,3.75-10.18,10.04-10.46,16.51-.24,5.45,1.49,12.38,5.76,16.05,2.88,2.48,6.54,2.87,9.77.75Z"/>
      <polygon class="cls-2" points="60.99 84.54 55.81 84.55 53.23 80.09 55.81 75.62 60.98 75.62 63.56 80.08 60.99 84.54"/>
      <polygon class="cls-2" points="70.86 67.45 65.68 67.45 63.1 62.99 65.68 58.53 70.87 58.53 73.43 62.98 70.86 67.45"/>
      <polygon class="cls-2" points="60.99 73.14 55.8 73.14 53.23 68.69 55.81 64.21 60.98 64.21 63.56 68.69 60.99 73.14"/>
      <polygon class="cls-2" points="70.85 78.84 65.68 78.86 63.1 74.39 65.67 69.94 70.87 69.94 73.43 74.38 70.85 78.84"/>
      <path class="cls-2" d="M18.33,24.99c-1.45-.16-2.78-.53-4.04-1.12-.95-.5-1.8-1.07-2.47-1.89-.81-1.06-1.38-2.22-1.6-3.57,1.21.18,2.3.47,3.4.87.95.39,1.76.88,2.54,1.56,1.13,1.11,1.85,2.5,2.18,4.16Z"/>
      <path class="cls-2" d="M24.95,24c-1.23.52-2.45.88-3.74.98.87-4.33,4.09-6.01,8.14-6.56-.57,2.6-1.91,4.52-4.4,5.58Z"/>
      <path class="cls-2" d="M18.35,37.14c-1.44-.13-2.69-.52-3.95-1.06-2.31-1.08-3.63-2.89-4.19-5.48,2.69.29,5.71,1.4,7.11,3.85.45.83.8,1.66,1.04,2.7Z"/>
      <path class="cls-2" d="M29.36,30.6c-1,4.36-3.9,5.92-8.12,6.57.15-1.09.59-2.06,1.17-2.97,1.45-2.29,4.32-3.3,6.96-3.59Z"/>
      <path class="cls-2" d="M50.68,68.31c-.27.58.12,1.01.42,1.59h-9.15s0-2.44,0-2.44h9.11s-.39.85-.39.85Z"/>
      <path class="cls-2" d="M75.6,75.62l.38-.86c.24-.55-.1-.97-.42-1.56h6.83c.7-.01,1.15.65,1.13,1.25-.03.65-.55,1.18-1.25,1.18h-6.67Z"/>
      <path class="cls-2" d="M82.45,64.2h-6.85s.36-.79.36-.79c.25-.56-.04-.96-.38-1.63h6.78c.67-.01,1.13.57,1.16,1.17.02.5-.39,1.25-1.07,1.25Z"/>
      <path class="cls-2" d="M56.34,61.75c-1.24.18-1.55-.36-2.44.83v-7.19c.01-.7.74-1.09,1.31-1.05.62.04,1.13.52,1.13,1.22v6.19Z"/>
      <path class="cls-2" d="M71.68,56.09l-1.36-.03v-6.3c0-.73.7-1.18,1.29-1.14.77.05,1.16.66,1.16,1.41v6.74c-.38-.3-.66-.67-1.09-.68Z"/>
      <path class="cls-2" d="M70.31,87.5v-6.18c1.3-.15,1.45.33,2.44-.73v7.13c0,.69-.75,1.08-1.3,1.03-.61-.05-1.13-.52-1.13-1.25Z"/>
      <path class="cls-2" d="M64.89,56.08c-.5.01-.74.37-1.14.72v-6.87c-.01-.73.47-1.27,1.17-1.31.6-.04,1.28.44,1.28,1.15v6.28s-1.3.03-1.3.03Z"/>
      <path class="cls-2" d="M56.34,87.02v6.12c0,.72-.47,1.25-1.13,1.31s-1.33-.46-1.33-1.21v-6.97c.39.32.62.69,1.01.7l1.45.05Z"/>
      <path class="cls-2" d="M60.46,93.33v-6.31c1.27-.16,1.42.33,2.43-.74v6.87c.02.71-.46,1.26-1.15,1.3-.57.04-1.28-.42-1.28-1.12Z"/>
      <path class="cls-1" d="M24.15,84.87c-3.23,2.12-6.89,1.72-9.77-.75-4.27-3.67-6-10.61-5.76-16.05.28-6.47,5.54-12.76,10.46-16.51.42-.32.91-.28,1.36-.04,4.86,3.71,10.15,9.99,10.48,16.37.14,2.77-.2,5.47-.95,8.13-.95,3.33-2.86,6.93-5.8,8.85ZM20.99,58.78l.05,8.42,2.51-2.97c.5-.6,1.32-.58,1.83-.05s.4,1.2-.09,1.79l-4.26,5.1v3.86s2.58-3.04,2.58-3.04c.47-.56,1.34-.46,1.76-.01.5.55.45,1.18-.03,1.75l-4.32,5.18v4.82c3.17-.82,5.15-4.19,6.2-7.03.77-2.1,1.12-4.23,1.27-6.47s-.16-4.39-1.09-6.46c-1.56-3.67-4.55-7.03-7.61-9.59-3.22,2.72-6.13,6.02-7.73,9.87-.83,1.99-1.12,4.01-.97,6.16.17,2.57.62,5.04,1.64,7.41,1.08,2.5,3.05,5.48,5.85,6.09v-4.77s-4.32-5.18-4.32-5.18c-.44-.52-.46-1.22.02-1.71.39-.39,1.21-.58,1.65-.06l2.6,3.05.03-3.83-4.42-5.3c-.46-.58-.34-1.32.2-1.75s1.25-.31,1.73.25l2.47,2.91v-8.23c.01-.7.49-1.24,1.17-1.28.51-.03,1.27.35,1.28,1.07Z"/>
      <path class="cls-2" d="M20.99,58.78c0-.72-.76-1.09-1.28-1.07-.68.03-1.16.57-1.16,1.28v8.23s-2.49-2.91-2.49-2.91c-.48-.56-1.18-.69-1.73-.25s-.66,1.17-.2,1.75l4.42,5.3-.03,3.83-2.6-3.05c-.44-.51-1.27-.33-1.65.06-.49.5-.46,1.19-.02,1.71l4.32,5.18v4.77c-2.81-.61-4.78-3.59-5.86-6.09-1.02-2.37-1.47-4.84-1.64-7.41-.14-2.14.14-4.17.97-6.16,1.61-3.85,4.51-7.15,7.73-9.87,3.06,2.56,6.05,5.91,7.61,9.59.93,2.07,1.24,4.2,1.09,6.46s-.5,4.37-1.27,6.47c-1.04,2.84-3.03,6.21-6.2,7.03v-4.82s4.32-5.18,4.32-5.18c.47-.57.53-1.2.03-1.75-.41-.45-1.28-.55-1.76.01l-2.57,3.04v-3.86s4.25-5.1,4.25-5.1c.49-.59.62-1.24.09-1.79s-1.32-.55-1.83.05l-2.51,2.97-.05-8.42Z"/>
    </g>
  </g>
</svg>