<?xml version="1.0" encoding="UTF-8"?>
<svg id="Capa_2" data-name="Capa 2" xmlns="http://www.w3.org/2000/svg" viewBox="0 0 83.13 83.14">
  <defs>
    <style>
      .cls-1 {
        fill: #bfd730;
      }
    </style>
  </defs>
  <g id="Layer_1" data-name="Layer 1">
    <g>
      <path class="cls-1" d="M39.56,8.3c18.47-1.12,34.19,13.05,35.28,31.28,1.09,18.35-12.94,34.16-31.26,35.26-18.31,1.1-34.08-12.83-35.27-31.14-1.19-18.27,12.75-34.28,31.26-35.41ZM32.6,32.18c5.79-2.3,12.13-.55,15.95,4.33l.03-4.58c-7.51-2.65-10.95-11.14-7.44-18.27.19-.39.77-.76,1.23-.64,7.97,2.11,12.02,10.75,8.63,18.24-.17.37-.05,1.14,0,1.65,3.71-4.86,10.1-6.59,15.81-4.39.78.3,1.21.94.88,1.79-1.89,7.27-9.42,11.48-16.75,9.38v11.96s19.87,0,19.87,0c4.43-12.95-.12-27.08-10.98-35.04-10.94-8.03-25.89-7.96-36.77.15-10.75,8.01-15.18,22.16-10.75,34.9l13.27-.03v-4.16c-5.81,1.38-11.62-1.95-13.03-7.76-.16-.65.18-1.24.75-1.47,4.34-1.75,9.09-.61,12.24,2.8v-2.59c-5.85-2.2-8.44-8.84-5.72-14.45.31-.64.97-.78,1.6-.59,6.31,1.97,9.26,8.73,6.42,14.86,1.49-1.28,2.72-2.32,4.42-2.96l-.48-1.61c-.19-.64.1-1.27.81-1.55ZM49.12,29.57c2.11-5.69-.69-11.79-6.25-13.89-2.11,5.55.61,11.78,6.25,13.89ZM21.54,26.13c-1.27,4.06.62,8.26,4.51,9.95,1.51-3.7-.63-8.75-4.51-9.95ZM65.14,30.47c-5.84-1.77-11.87,1.26-13.74,6.85,5.76,1.78,11.91-1.22,13.74-6.85ZM39.65,40.2c2.69,1.34,5.79,1.66,8.49.66-1.97-5.73-8.17-8.51-13.67-6.79-.28,1.41,2.19-.24,5.92,1.47,1.57.72-.27,3.58-.74,4.66ZM38.32,37.35c-2.29-.67-4.36-.25-6.24.75-1.7.86-2.97,2.31-3.65,4.2,4.07,1.12,8.5-.99,9.89-4.95ZM25.19,45.08c-1.61-4.1-5.93-6.01-10.01-4.92,1.63,4,5.9,6.09,10.01,4.92ZM48.61,51.64l-.02-8.33c-3.63.97-7.28.57-10.52-1.26-2.74,2.58-6.38,3.46-10.08,2.64v6.96s20.63-.02,20.63-.02ZM69.85,54.08H13.27c5.01,11.35,16.24,18.47,28.35,18.45,12.02-.02,23.24-7.1,28.23-18.45Z"/>
      <path class="cls-1" d="M24.48,9.81l-5.76-.32c-.29-.02-.74-.23-.9-.41-.19-.2-.35-.9-.19-1.24l2.45-5.37c.29-.64,1.03-.89,1.53-.68.74.32.91,1.01.63,1.69-.22.52-.39.95-.64,1.64C37.96-3.85,58.11-.78,71.1,12.34c14.19,14.34,16.11,36.92,4.24,53.43-.31.43-1.16.46-1.62.09s-.58-1.11-.22-1.61c10.69-15.02,9.35-35.35-2.81-48.87S38.56-1.61,22.52,7.34l2.25.09c.64.03,1.08.72,1.06,1.21-.03.73-.59,1.2-1.34,1.16Z"/>
      <path class="cls-1" d="M63.26,76.78l-3.09,5.17c-.33.55-.99.71-1.56.49s-.88-.97-.55-1.58l.79-1.47c-16.36,7.47-35.48,3.58-47.66-9.44C-1.55,56.31-3.7,35.71,6.22,19.72c.31-.49,1.08-.63,1.6-.32s.73,1.08.39,1.64C-.98,35.94.92,55.02,12.51,67.85c11.59,12.82,30.36,16.61,46.09,9.01l-2.49-.4c-.59-.1-1.01-.75-.96-1.27.05-.57.63-1.21,1.31-1.09l6,1.04c.61.11,1.2.99.81,1.65Z"/>
      <path class="cls-1" d="M24.35,58.55c.43.43.34,1.23.01,1.6-.36.42-1.21.55-1.66.11l-2.52-2.5c-.47-.46-.46-1.22-.05-1.67.43-.47,1.23-.54,1.74-.03l2.47,2.48Z"/>
      <path class="cls-1" d="M50.58,63.63c.48.48.46,1.26.07,1.69-.41.45-1.24.53-1.73.04l-2.5-2.5c-.43-.43-.35-1.2,0-1.59.4-.44,1.21-.56,1.68-.09l2.47,2.45Z"/>
      <path class="cls-1" d="M38.95,64.89c.5.5.45,1.23.04,1.67s-1.19.56-1.69.06l-2.51-2.51c-.44-.44-.36-1.21-.02-1.6.42-.47,1.21-.58,1.7-.08l2.47,2.46Z"/>
      <path class="cls-1" d="M54.76,58.47c.45.45.45,1.16.15,1.6-.28.41-1.19.7-1.63.27l-2.61-2.57c-.47-.47-.47-1.22-.04-1.68s1.22-.52,1.74,0l2.39,2.39Z"/>
      <path class="cls-1" d="M48.1,69.3c.52.51.5,1.23.13,1.66-.45.53-1.27.57-1.77.07l-2.43-2.43c-.46-.46-.43-1.19-.07-1.62.45-.52,1.25-.56,1.75-.06l2.39,2.38Z"/>
      <path class="cls-1" d="M62.01,59.75c.52.52.4,1.33-.08,1.74-.45.39-1.16.38-1.65-.1l-2.35-2.35c-.49-.49-.54-1.22-.13-1.69.42-.49,1.25-.56,1.74-.07l2.47,2.47Z"/>
      <path class="cls-1" d="M31.52,59.74c.52.52.4,1.35-.07,1.76-.45.39-1.17.37-1.65-.11l-2.35-2.34c-.45-.45-.52-1.12-.21-1.58.34-.51,1.23-.75,1.73-.26l2.56,2.53Z"/>
      <path class="cls-1" d="M43.1,60.91c.52.52.5,1.25.11,1.69s-1.22.58-1.69.11l-2.58-2.58c-.44-.44-.29-1.29.13-1.66s1.18-.39,1.63.05l2.4,2.39Z"/>
      <path class="cls-1" d="M31.52,65.77c.52.52.41,1.35-.07,1.76-.45.39-1.17.37-1.65-.11l-2.35-2.35c-.44-.44-.51-1.12-.2-1.58.34-.5,1.23-.74,1.72-.26l2.56,2.53Z"/>
    </g>
  </g>
</svg>