<?xml version="1.0" encoding="UTF-8"?>
<svg id="Capa_2" data-name="Capa 2" xmlns="http://www.w3.org/2000/svg" viewBox="0 0 69.51 87.67">
  <defs>
    <style>
      .cls-1 {
        fill: #1c75bc;
      }
    </style>
  </defs>
  <g id="Layer_1" data-name="Layer 1">
    <g>
      <path class="cls-1" d="M11.56,11.72c3.03.15,5.6,1.42,7.02,4.11.66,1.24,1.12,2.49,1.48,3.9-2.81,1.04-5.79.38-7.15-2.52-.81-1.73-1.22-3.58-1.35-5.49Z"/>
      <path class="cls-1" d="M14.74,24.03c5.08-1.84,7.83,1.28,9.77,5.65-.86.45-1.71.74-2.63.85-3.93.5-6.07-3.22-7.14-6.51Z"/>
      <path class="cls-1" d="M19.25,0c.91,1.05,1.61,2.14,2.13,3.37.63,1.48.79,3.01.42,4.57-.33,1.42-.9,2.73-1.72,3.99-1.07-.88-1.84-1.87-2.47-3.01-.82-1.6-.99-3.36-.49-5.09.42-1.4,1.1-2.62,2.12-3.82Z"/>
      <path class="cls-1" d="M28.57,9.65c.31,1.42.37,2.82.11,4.23-.51,2.71-2.63,4.16-5.21,4.86-.46-1.48-.62-2.94-.43-4.42.38-2.89,2.74-4.28,5.53-4.67Z"/>
      <path class="cls-1" d="M31.29,18.47c.56,1.32.82,2.67.8,4.06-.04,2.73-1.91,4.5-4.36,5.62-.73-1.4-1.14-2.87-1.15-4.41-.03-2.78,2.07-4.45,4.71-5.27Z"/>
    </g>
    <g>
      <path class="cls-1" d="M55.05,12.27c-.92,1.31-1.99,2.34-3.27,3.35-2.06-2.13-2.69-5.08-.62-7.51,1.23-1.45,2.75-2.54,4.49-3.51,1.05,2.47,1.02,5.43-.6,7.67Z"/>
      <path class="cls-1" d="M47.27,19.56c-.68,1.57-1.63,2.87-2.79,4.14-.8-.59-1.43-1.32-1.93-2.18-1.93-3.38.66-6.83,3.16-9.03,1.93,2.02,2.72,4.47,1.56,7.08Z"/>
      <path class="cls-1" d="M37.95,21.57c4.33,3.41,3.1,7.33.6,11.3-2.57-1.42-4-3.86-3.12-6.78.51-1.67,1.37-3.17,2.52-4.53Z"/>
      <path class="cls-1" d="M67.15,10.37c-1.11,1.14-2.4,1.82-3.93,2.1-1.42.27-2.83.25-4.29.03.38-1.4,1.03-2.63,1.95-3.7,1.2-1.36,2.78-2.16,4.59-2.32,1.37-.12,2.69.04,4.04.44-.61,1.28-1.36,2.41-2.36,3.44Z"/>
      <path class="cls-1" d="M64.43,19.33c-1.08.82-2.27,1.4-3.57,1.76-1.46.39-2.91.25-4.21-.49-1-.57-1.85-1.3-2.61-2.25,2.26-1.92,5.37-3.41,8.08-1.52.92.64,1.61,1.42,2.3,2.51Z"/>
      <path class="cls-1" d="M54.27,27.67c-1.44.66-2.9.69-4.3.14-1.04-.41-1.96-1-2.81-1.77.92-1.13,2-2.06,3.3-2.7,1.42-.73,2.96-.74,4.37-.04,1.02.51,1.86,1.21,2.63,2.12-.94.94-1.95,1.7-3.19,2.26Z"/>
      <path class="cls-1" d="M48.8,35.25c-2.36,1.61-5.06.93-7.23-.51.75-1.3,1.66-2.36,2.82-3.21,2.42-1.77,5.14-.81,7.18.97-.78,1.09-1.65,2-2.77,2.75Z"/>
    </g>
    <g>
      <path class="cls-1" d="M58.72,73.69c-.04,1.39-1.13,2.29-2.33,2.3s-2.33-.9-2.38-2.24l-1.03-31.55c-.07-2.02,1.15-3.66,3.21-3.79,1.75-.11,3.61,1.34,3.55,3.33l-1.02,31.96Z"/>
      <path class="cls-1" d="M55.43,80.78c1.98-.54,3.88.65,4.36,2.57.44,1.8-.66,3.73-2.57,4.22-1.8.46-3.72-.6-4.24-2.5-.49-1.76.51-3.76,2.46-4.29Z"/>
    </g>
    <path class="cls-1" d="M23.54,84.11c-2.24-1.12-4.31-2.3-6.31-3.75-6.07-4.39-10.19-10.11-11.7-17.49-1.5.05-2.92-.07-4.19-.66-1.12-.52-1.59-1.56-1.21-2.75.68-2.16,2.24-3.97,4.25-5.06,2.72-1.47,5.85-.8,8.38.82l-.15-3.1c-1.56-.11-4.96-.61-5.37-2.43-.15-.65.07-1.33.4-1.93,1.06-1.92,2.8-3.38,4.85-4.17,3.38-1.3,7.12.08,9.59,2.47.98.96,1.92,2.33.81,3.57-1.31,1.36-3.6,1.9-5.43,2.25.07,3.36.49,6.63,1.24,9.92,2.6-2.21,5.57-2.34,8.47-.55-.2-5.5-.76-10.91-1.58-16.35-1.72-.27-3.71-.74-4.93-1.96-.65-.7-.78-1.58-.36-2.48,1.69-3.62,5.98-6.19,10.1-4.63,2.25.85,4.18,2.49,5.3,4.58.54,1.01.39,2.05-.44,2.8-1.32,1.14-3.36,1.55-5.11,1.76,1.33,9.5,2.06,18.86,1.2,28.57,3.46-5.67,4.97-13.35,5.5-19.81-1.39-.36-2.64-.82-3.66-1.66-.95-.79-1.15-1.91-.47-2.95,1.89-2.96,5.82-4.82,9.28-3.35,2.17.92,3.97,2.63,4.91,4.77.43.97.21,1.95-.64,2.56-.49.36-1.06.58-1.65.79-1.02.24-2.05.37-3.13.41l-.56,4.74c1.63-1.01,3.5-1.49,5.38-1,2.2.57,4.08,2.05,5.2,3.98.61,1.1.26,2.19-.82,2.8s-2.39.84-3.71.97c-2.85,9.13-8.93,16.88-18.75,18.63-.53.09-.99.02-1.51.02h-1.32c-.65,0-1.24-.03-1.87-.34ZM26.63,81.74c-.14.47.37.88.65.91.43.06.73-.21.87-.65,3.32-10.72,2.08-25.84.52-36.92h-1.57c.87,5.87,1.4,11.64,1.58,17.49.5.52.9,1.07,1.06,1.73.2.81-.32,1.48-1.02,1.9-.15,5.68-.45,9.97-2.08,15.53ZM25.51,80.17c-3.16-4.18-5.45-8.7-7.04-13.58l-.78-.53c-.74-.5-.97-1.37-.59-2.17l.37-.78c-.91-3.65-1.41-7.32-1.51-11.05l-1.88.1c.05,1.49.13,2.95.29,4.41l.49.66c.54.73.51,1.63-.07,2.36,1.42,8.37,4.89,16.39,10.37,22.95-.05-.91.11-1.55.35-2.37ZM38.52,63.71c-.84-1.15-.08-2.22.64-3.15.39-2.09.63-4.12.83-6.28l-1.68-.2c-.69,7.54-2.59,16.6-7.4,22.71l-.47,2.43c.53-.09.86-.34,1.18-.72,3.62-4.2,5.61-9.46,6.9-14.79ZM18.47,75.2c-2.32-4.56-4.02-9.34-4.96-14.44-.95.53-1.8.91-2.83,1.25.83,4.97,3.73,9.85,7.79,13.19ZM22.78,82.01l-2.26-3.32c-5.78-3.96-9.95-9.23-11.27-16.26l-2.22.38c1.82,8.76,7.94,15.19,15.76,19.2ZM42.18,65.51c-.83-.22-1.6-.47-2.39-.79-1.14,4.42-2.57,8.11-4.87,11.89,3.45-2.84,5.83-6.96,7.27-11.1ZM29.56,82.62c3.05-.77,5.61-2.19,7.9-4.14,3.82-3.31,6.4-7.85,7.94-12.63l-1.74-.11c-2.3,6.71-6.7,13.01-13.67,15.26l-.43,1.61ZM26.71,74.12c.34-2.36.44-4.72.53-7.24l-1.32.28c.04,2.37.25,4.64.79,6.96ZM21.56,67.28l-1.36-.17,1.53,3.79-.18-3.62ZM26,77.17c-1.03-3.22-1.49-6.46-1.54-9.84l-1.39.04c0,2.76.36,5.4,1.01,8.05l1.89,2.88c.24-.42.17-.7.04-1.12Z"/>
  </g>
</svg>