<?xml version="1.0" encoding="UTF-8"?>
<svg id="Capa_2" data-name="Capa 2" xmlns="http://www.w3.org/2000/svg" viewBox="0 0 76.56 89.65">
  <defs>
    <style>
      .cls-1 {
        fill: #00a796;
      }
    </style>
  </defs>
  <g id="Layer_1" data-name="Layer 1">
    <g>
      <path class="cls-1" d="M50.14,69.75l-6.41,3.08c-.23.11-.82-.06-.88-.25s-.1-.6-.05-.85c.74-3.66,2.51-6.91,5.44-9.18,1.81-1.4,4.12-1.53,6.02-.26,2.02,1.35,3.45,3.49,6.26,1.63,1.93-1.27,2.66-3.39,1.72-5.62-.11-.26-.07-.83.09-1.05.92-1.22,3.4.97,6.21,1.42,1.95.31,3.8-.39,4.97-1.81,1.15-1.4,1.52-3.31.88-5.08-1.03-2.84-4.48-1.81-6.57-1.39-.38.08-1.02-.14-1.22-.39-.23-.3-.21-.99.02-1.31,1.91-2.62,3.6-3.16,6.01-5.53,2.22-2.19,2.46-5.37.89-8-1.08-1.81-2.83-2.79-4.98-2.56-2.14.23-3.93,1.48-4.67,3.57-1.1,3.12-1.13,5.62-2.82,8.9-1.15,2.23-2.91,3.98-5.26,4.88-.15.06-.53.05-.67-.02s-.3-.42-.31-.59l-.06-1.52c-.07-1.72-1.52-2.7-3.25-2.45-2.01.29-3.36,2.23-3.37,4.32-.01,2.33-.37,4.55-1.65,6.53s-2.96,3.28-5.18,3.76c-.5-4.69.46-9.36,2.83-13.46,1.83-3.16,4.97-4.96,8.59-5.23,1.65-.12,3.2-.45,4.6-1.34,2.17-1.38,2.73-4.22,1.21-6.28-.86-1.16-2.35-1.27-3.48-.39l-1.57,1.23c-.57.44-1.36.46-1.86.02-.41-.36-.73-1.08-.45-1.67,3.07-6.36,11.17-4.99,14.8-8.05,1.64-1.38,2-3.32,1.23-5.26-.83-2.09-2.98-3.56-5.25-2.81-2.38.78-2.49,3.81-4.36,3.78-.58-.01-1.41-.28-1.54-1.01-.27-1.58,2.13-4.8,3.12-6.23,1.43-2.04,1.45-4.32.27-6.44-1.08-1.93-2.85-2.95-5.12-2.7-2.15.24-3.85,1.53-4.43,3.71s-.79,4.43-1.11,6.76c-.72,5.21-2.41,10.13-4.72,14.8-.37.74-1.54,1.2-2.15.71-.35-.27-.51-.97-.7-1.39-.71-1.59-2.55-2.41-4.08-1.48-2,1.21-2.69,3.68-1.85,5.84,1.32,3.38,4.47,7.4,2.49,10.76-.13.23-.49.52-.71.55-1.36.18-4.33-4.07-5.02-5.41-1.47-2.81-2.1-6-1.76-9.14.31-2.86,1.89-5.24,4.3-6.7,2.68-1.62,4.19-1.26,7.27-3.06,1.26-.74,1.79-2.05,2.07-3.42s-.08-2.78-1.41-3.42c-1.51-.73-2.18,1.39-4.28,1.13-.36-.04-.56-.66-.42-.98,1.5-3.28,4.99-3.35,6.18-6.46.58-1.49.06-3.07-.76-4.37-1.11-1.77-2.94-2.75-4.99-2.54-7,.72-4.55,13.07-8.94,13.51-.57.06-1.4-.12-1.75-.72-.69-1.2.33-3.03.27-4.9-.07-2.33-1.9-3.79-4.11-3.74-2.08.05-3.74,1.39-3.9,3.56-.09,1.25.1,2.6.54,3.8l1.53,4.12c.58,1.56,1.74,4.66-.32,5.21-2.89.78-2.19-5.17-6.94-5.37-1.34-.06-2.66.53-3.56,1.63-1.88,2.31-1.39,5.54,1.02,7.35,3.06,2.31,9.86,3.45,11.89,9.58.1.29,0,.78-.2.94-1.27,1.03-3.2-2.13-5.14-1-.46.26-1.08.89-1.18,1.58-.31,2.07.7,4.08,2.47,5.15,2.55,1.54,4.74,1.2,8.26,4.21,4.25,3.64,7.29,9.51,6.77,15.33-3.61-1.07-6.28-3.67-7.4-7.19-.87-2.73-.58-6.03-3.25-6.34-3.7-.43-3.2,3.8-4.27,4.09-1.13.3-3.17-2.11-3.86-3.38-2.23-4.1-2.09-7.24-2.93-11.59-.61-3.15-2.78-5.64-6.03-5.22-1.56.2-3.04,1.2-3.81,2.82-1.13,2.4-.71,5.15.99,7.23,1,1.23,2.07,2.32,3.17,3.47.67.7.63,1.86-.21,2.35-.3.17-.98,0-1.28-.18-1.41-.84-3.21-.84-4.48.19-1.18.95-1.32,2.47-1,3.87.49,2.14,2.03,3.65,4.29,3.84,3.31.27,6.24-.87,8.96,1.15.55.41,1.01,1.01,1,1.66-.03,1.84-3.63,2.98-1.67,6.54,1.69,3.07,4.86,2.53,7.49.99,4.02-2.35,8.12-2.03,10.84,1.88.98,1.4,1.6,2.93,2.25,4.55.17.43-.06,1.14-.36,1.34s-1.05.26-1.37.06c-2.09-1.25-4.08-2.34-6.4-3.07-4.21-1.32-8.52-.94-12.46,1.03-3.19,1.59-6.6,2.14-10.11,1.62-1.28-.19-2.22.67-2.62,1.76-.63,1.71.18,3.26,1.95,3.84,4.83,1.58,8.93-.35,13.27-2.04,5.77-2.24,9.8-.21,14.81,2.43,4.54,2.39,9.75,2.57,14.47.55,1.73-.74,3.3-1.55,4.98-2.39,3.64-1.83,7.68-2.03,11.45-.46,4.46,1.86,8.48,3.36,13.19,1.55,1.44-.55,2.06-1.8,1.81-3.28-.24-1.39-1.28-2.4-2.75-2.1-4.27.87-7.94-.33-11.83-2.06-3.74-1.66-7.88-1.86-11.71-.02ZM62.72,86.26c2.34,1.22,4.78,1.66,7.42,1.63,1.76-.02,3.47-.15,4.95-1.13.83-.55,1.44-1.38,1.47-2.35.02-.84-.29-1.84-1.1-2.37-2.04-1.32-5.23,1.99-11.33-1.42-2.61-1.46-5.51-2.16-8.49-1.96-2.96.19-5.59,1.24-8.15,2.66-6.54,3.63-12.81,3.38-19.16-.45-4.8-2.89-10.35-2.98-15.28-.36-3.27,1.74-6.75,2.16-10.3,1.29-1.11-.27-2.08.67-2.46,1.46-.45.94-.36,1.9.32,2.78,1.48,1.92,3.48,1.82,5.81,1.88,2.99.08,5.7-.61,8.3-2,2.87-1.53,6.15-1.76,9.23-.82,1.48.45,2.78,1.09,4.13,1.83,6.81,3.74,13.72,3.52,20.53-.1,4.76-2.53,9.18-3.15,14.12-.57Z"/>
      <path class="cls-1" d="M50.14,69.75c3.82-1.84,7.97-1.65,11.71.02,3.89,1.73,7.56,2.92,11.83,2.06,1.46-.3,2.51.71,2.75,2.1.25,1.49-.37,2.73-1.81,3.28-4.71,1.81-8.73.3-13.19-1.55-3.77-1.57-7.82-1.37-11.45.46-1.68.84-3.24,1.65-4.98,2.39-4.72,2.01-9.93,1.84-14.47-.55-5.01-2.64-9.04-4.67-14.81-2.43-4.35,1.69-8.45,3.62-13.27,2.04-1.77-.58-2.58-2.13-1.95-3.84.4-1.08,1.35-1.95,2.62-1.76,3.5.52,6.92-.03,10.11-1.62,3.94-1.97,8.25-2.35,12.46-1.03,2.33.73,4.32,1.81,6.4,3.07.33.2,1.07.14,1.37-.06s.54-.91.36-1.34c-.65-1.62-1.28-3.15-2.25-4.55-2.73-3.9-6.83-4.23-10.84-1.88-2.63,1.54-5.8,2.09-7.49-.99-1.96-3.56,1.64-4.69,1.67-6.54.01-.65-.45-1.25-1-1.66-2.72-2.02-5.65-.88-8.96-1.15-2.26-.18-3.8-1.7-4.29-3.84-.32-1.4-.19-2.92,1-3.87,1.28-1.03,3.07-1.03,4.48-.19.3.17.98.35,1.28.18.84-.49.88-1.65.21-2.35-1.11-1.15-2.18-2.24-3.17-3.47-1.7-2.09-2.12-4.84-.99-7.23.77-1.62,2.25-2.62,3.81-2.82,3.25-.41,5.42,2.07,6.03,5.22.84,4.35.7,7.49,2.93,11.59.69,1.27,2.73,3.68,3.86,3.38,1.08-.29.57-4.52,4.27-4.09,2.67.31,2.38,3.61,3.25,6.34,1.12,3.53,3.79,6.12,7.4,7.19.52-5.82-2.52-11.69-6.77-15.33-3.52-3.02-5.71-2.67-8.26-4.21-1.77-1.07-2.79-3.08-2.47-5.15.11-.7.73-1.32,1.18-1.58,1.94-1.13,3.87,2.03,5.14,1,.19-.16.29-.65.2-.94-2.03-6.13-8.83-7.27-11.89-9.58-2.41-1.81-2.9-5.04-1.02-7.35.9-1.1,2.22-1.69,3.56-1.63,4.75.2,4.05,6.15,6.94,5.37,2.06-.55.9-3.65.32-5.21l-1.53-4.12c-.44-1.19-.63-2.54-.54-3.8.15-2.17,1.82-3.51,3.9-3.56,2.21-.05,4.04,1.41,4.11,3.74.06,1.87-.97,3.7-.27,4.9.34.6,1.18.78,1.75.72,4.39-.44,1.94-12.8,8.94-13.51,2.06-.21,3.88.77,4.99,2.54.81,1.3,1.33,2.88.76,4.37-1.2,3.11-4.69,3.17-6.18,6.46-.14.31.06.93.42.98,2.1.25,2.77-1.86,4.28-1.13,1.33.64,1.69,2.07,1.41,3.42s-.81,2.68-2.07,3.42c-3.08,1.8-4.59,1.43-7.27,3.06-2.41,1.46-3.99,3.83-4.3,6.7-.34,3.14.29,6.33,1.76,9.14.7,1.34,3.67,5.59,5.02,5.41.22-.03.57-.32.71-.55,1.98-3.36-1.17-7.37-2.49-10.76-.84-2.16-.15-4.63,1.85-5.84,1.53-.92,3.37-.1,4.08,1.48.19.42.35,1.11.7,1.39.62.49,1.79.03,2.15-.71,2.31-4.67,4.01-9.6,4.72-14.8.32-2.33.53-4.54,1.11-6.76s2.28-3.47,4.43-3.71c2.27-.26,4.04.76,5.12,2.7,1.18,2.12,1.15,4.39-.27,6.44-1,1.43-3.39,4.65-3.12,6.23.12.73.96,1,1.54,1.01,1.87.03,1.98-3,4.36-3.78,2.27-.75,4.42.73,5.25,2.81.77,1.94.41,3.88-1.23,5.26-3.63,3.06-11.73,1.69-14.8,8.05-.29.59.03,1.31.45,1.67.5.43,1.29.42,1.86-.02l1.57-1.23c1.12-.88,2.62-.77,3.48.39,1.52,2.06.96,4.9-1.21,6.28-1.4.89-2.95,1.21-4.6,1.34-3.62.27-6.76,2.06-8.59,5.23-2.37,4.1-3.33,8.78-2.83,13.46,2.21-.47,3.96-1.87,5.18-3.76,1.28-1.98,1.64-4.2,1.65-6.53.01-2.09,1.36-4.04,3.37-4.32,1.73-.25,3.18.73,3.25,2.45l.06,1.52c0,.17.17.52.31.59s.51.08.67.02c2.35-.89,4.11-2.64,5.26-4.88,1.69-3.28,1.72-5.78,2.82-8.9.74-2.09,2.53-3.34,4.67-3.57,2.15-.23,3.9.75,4.98,2.56,1.57,2.63,1.33,5.81-.89,8-2.4,2.37-4.1,2.91-6.01,5.53-.24.32-.25,1.01-.02,1.31.2.25.83.47,1.22.39,2.08-.42,5.54-1.45,6.57,1.39.64,1.77.27,3.68-.88,5.08-1.17,1.43-3.02,2.13-4.97,1.81-2.8-.45-5.29-2.64-6.21-1.42-.16.22-.2.79-.09,1.05.94,2.23.21,4.35-1.72,5.62-2.82,1.86-4.24-.28-6.26-1.63-1.9-1.27-4.21-1.14-6.02.26-2.93,2.27-4.7,5.53-5.44,9.18-.05.25-.02.65.05.85s.64.36.88.25l6.41-3.08Z"/>
      <path class="cls-1" d="M62.72,86.26c-4.94-2.57-9.37-1.96-14.12.57-6.81,3.63-13.72,3.84-20.53.1-1.35-.74-2.65-1.38-4.13-1.83-3.09-.94-6.36-.71-9.23.82-2.6,1.38-5.31,2.07-8.3,2-2.34-.06-4.33.04-5.81-1.88-.68-.88-.77-1.84-.32-2.78.38-.79,1.35-1.73,2.46-1.46,3.56.87,7.04.45,10.3-1.29,4.94-2.62,10.49-2.53,15.28.36,6.34,3.82,12.62,4.07,19.16.45,2.56-1.42,5.18-2.47,8.15-2.66,2.98-.19,5.88.5,8.49,1.96,6.1,3.41,9.29.1,11.33,1.42.81.52,1.12,1.53,1.1,2.37-.03.97-.64,1.8-1.47,2.35-1.48.98-3.19,1.11-4.95,1.13-2.64.04-5.08-.41-7.42-1.63Z"/>
    </g>
  </g>
</svg>