<?xml version="1.0" encoding="UTF-8"?>
<svg id="Capa_2" data-name="Capa 2" xmlns="http://www.w3.org/2000/svg" viewBox="0 0 83.13 79.78">
  <defs>
    <style>
      .cls-1 {
        fill: #6ebf4f;
      }
    </style>
  </defs>
  <g id="Layer_1" data-name="Layer 1">
    <g>
      <path class="cls-1" d="M14.44,40.48c-3.73-4.71-4.72-11.28-10-14.84-1.16-.78-2.38-1.28-3.7-1.68-.41-.12-.7-.54-.73-.89s.17-.86.59-1.04c5.33-2.27,11.02-3.31,16.73-1.86,6.95,1.76,12.45,7.23,13.59,14.28.83,5.13-1.13,4.6-1.66,6.47,2.73,2.73,6.48,4.72,8.56,8.11.64-2.63,1.25-4.97,2.1-7.36-1.28-1.79-1.93-3.76-2.16-5.9-.79-8.63,3.78-14.02,10.43-18.66l5.87-4.09c2.02-1.41,3.87-2.87,5.57-4.62,2.1-2.18,3.53-4.74,4.05-7.72.06-.35.69-.64.98-.66.33-.02.77.26.97.64,1.74,3.21,2.81,6.67,3.16,10.34.95,9.99-3.48,22.54-10.44,28.98l-2.53,2.34c1.91-.65,3.51-1.17,5.35-1.39,6.84-.81,13.28,1.77,17.6,7.05,6.34,7.76,5.7,18.99-1.26,26.03-6.93,7.01-18.14,7.8-25.96,1.58-4.05-3.22-6.67-7.8-7.31-13.06-.44.84-.09,1.67-.25,2.49-.32,1.64-1.67,2.83-3.21,2.98-1.73.16-3.13-.92-3.8-2.49l-.39-7.11c-2.12-4.97-6.7-11.76-10.06-15.9-4.38.77-9.26,1.57-12.08-1.99ZM75.4,73.11c3.29-3.03,5.19-7.02,5.57-11.33.87-9.9-6.67-18.48-16.55-18.93-9.38-.43-17.36,6.56-18.19,15.93-.62,7.05,3.19,13.78,9.36,16.96,6.49,3.34,14.41,2.33,19.8-2.64ZM44.6,55.49c1.27-4.1,3.97-8.22,7.33-10.91-1.87.5-4.67.07-6.55-.23-.49,1.93-.14,4.23-.62,7.86-.09.65-.26,2.78-.16,3.28Z"/>
      <path class="cls-1" d="M62.36,75.35c-7.61-.65-13.51-6.81-13.87-14.36-.22-4.64,1.64-8.97,5.07-12.05,5.22-4.68,13.03-5.1,18.72-1.11,7.53,5.29,8.73,15.84,2.5,22.67-3.09,3.39-7.68,5.26-12.41,4.85ZM63.62,52.21l3.73-2.16v-2.3c-2.47-.72-4.96-.75-7.44,0-.06.81-.05,1.58.02,2.38l3.68,2.09ZM57.8,50.09v-1.51c-1.66.79-2.81,1.79-4,2.99l-.04.47c0,.09.38.16.49.1l3.55-2.04ZM72.97,52.12c.18.1.68-.19.55-.34-1.17-1.38-2.42-2.43-4.08-3.19l-.02,1.48,3.55,2.05ZM62.54,58.29v-4.29s-3.65-2.11-3.65-2.11l-3.73,2.11v4.28s3.72,2.13,3.72,2.13l3.66-2.12ZM72.04,58.24v-4.23s-3.68-2.12-3.68-2.12l-3.69,2.12.02,4.28,3.66,2.12,3.68-2.16ZM53.1,58.28l.02-3.85c0-.35-.46-.84-.79-.69-1.15,1.83-1.68,3.88-1.74,5.97l2.52-1.42ZM76.57,59.65c.08-2.37-.72-4.16-1.67-5.98-.26.04-.75.28-.75.5v4.11s2.42,1.37,2.42,1.37ZM54.19,68.59l3.64-2.1v-4.24s-3.72-2.14-3.72-2.14l-3.4,2c.08,1.52,1.76,6.28,3.48,6.48ZM64.54,68.12l2.82-1.64v-4.23s-3.78-2.16-3.78-2.16l-3.7,2.15v4.27s3.55,2.05,3.55,2.05c.26.15.84-.28,1.11-.44ZM73.47,68.82c1.72-2.05,2.69-4.26,3.05-6.74l-3.37-1.96-3.74,2.12-.03,4.22,4.08,2.36ZM62.52,73.25v-2.79s-3.65-2.11-3.65-2.11l-3.47,2.04c2.14,1.71,4.44,2.63,7.12,2.87ZM71.86,70.36l-3.5-2.05-3.66,2.12v2.84c2.6-.22,5.01-1.14,7.16-2.9Z"/>
    </g>
  </g>
</svg>