<?xml version="1.0" encoding="UTF-8"?>
<svg id="Capa_2" data-name="Capa 2" xmlns="http://www.w3.org/2000/svg" viewBox="0 0 70.86 75.82">
  <defs>
    <style>
      .cls-1 {
        fill: #fff;
      }

      .cls-2 {
        fill: #b64b85;
      }
    </style>
  </defs>
  <g id="Layer_1" data-name="Layer 1">
    <g>
      <g>
        <path class="cls-2" d="M55.31,75.56c-.53.31-1.03.37-1.54.08l-9.17-5.37c-3.72-2.18-5.99-6.17-6.41-10.47-.18-1.83-.04-3.59.01-5.4l.08-3.1c.01-.52.13-.99-.01-1.54l-3.73,3.73v18.72c0,.75-.56,1.26-1.17,1.32-.58.06-1.4-.32-1.4-1.07l-.02-12.41-10.3-10.3-4.2-.05c-6.46-.54-12.35-2.82-15.3-9C.32,36.8-.19,32.29.06,27.99c.03-.46.1-.94.38-1.24.33-.37.79-.42,1.31-.46,4.15-.3,8.71.26,12.47,1.99,6.22,2.85,8.62,8.64,9.22,15.11.1,1.53.09,2.98.06,4.52l8.46,8.42.02-21.19c-4.41-3.62-8.61-8.84-9.7-14.46-1.63-7.95,4.28-15.75,10.13-20.37.54-.43,1.21-.4,1.73.01,1.01.8,1.91,1.63,2.84,2.55,5.01,4.93,9.03,11.78,6.98,19.04-1.47,5.19-5.21,9.74-9.4,13.22v14.64s3.92-3.87,3.92-3.87l.09-2.33.15-4.14c.02-.57.61-.92,1.1-1.04l3.22-.79c.4-6.79,2.84-12.98,9.35-15.89,3.89-1.74,8.31-2.19,12.54-1.94.92.06,1.44.59,1.5,1.5.33,5.2-.45,11.33-3.86,15.74,2.33.41,4.5.82,6.7,1.41.6.16.98.63,1.02,1.25l.08,2.44.1,3.32.23,6.91.08,2.54c.05,1.64.18,3.22.02,4.85-.46,4.5-2.9,8.5-6.81,10.78l-8.66,5.04ZM54.49,73.06l8.58-5c2.96-1.93,4.74-5.01,5.17-8.51.07-1.47.01-2.89-.03-4.37l-.1-3.4-.12-3.25-.11-3.99-.18-3.88c-8.74-2.2-17.74-2.2-26.48.01l-.1,2.73-.23,7.16-.21,6.54c-.02.66-.06,1.25,0,1.92.28,3.78,2.2,7.27,5.51,9.19l8.31,4.83Z"/>
        <path class="cls-1" d="M54.49,73.06l-8.31-4.83c-3.31-1.92-5.22-5.42-5.51-9.19-.06-.67-.02-1.26,0-1.92l.21-6.54.23-7.16.1-2.73c8.74-2.21,17.74-2.22,26.48-.01l.18,3.88.11,3.99.12,3.25.1,3.4c.05,1.48.1,2.89.03,4.37-.43,3.51-2.22,6.58-5.17,8.51l-8.58,5ZM48.09,54.88l4.76,4.77c.3.3,1.19.3,1.5,0l7.93-7.92c.52-.52.55-1.26.12-1.79-.35-.42-1.25-.71-1.76-.2l-7.04,7.01-3.62-3.58c-.51-.5-1.32-.44-1.79.03-.35.36-.6,1.18-.09,1.68Z"/>
        <path class="cls-2" d="M48.09,54.88c-.51-.51-.26-1.32.09-1.68.46-.48,1.28-.53,1.79-.03l3.62,3.58,7.04-7.01c.51-.51,1.42-.23,1.76.2.43.53.41,1.26-.12,1.79l-7.93,7.92c-.31.31-1.2.31-1.5,0l-4.76-4.77Z"/>
      </g>
      <path class="cls-1" d="M21.43,49.47l-8.3-8.32c-.49-.5-.33-1.29.05-1.69s1.21-.66,1.73-.15l8.35,8.32-1.83,1.85Z"/>
      <path class="cls-1" d="M47.14,37.06l5.98-5.93c.5-.49,1.29-.32,1.69.05.39.37.66,1.21.14,1.73l-3.73,3.72-4.09.42Z"/>
      <path class="cls-1" d="M31.86,35.19l.1-18.09c0-.7.69-1.14,1.24-1.15s1.32.4,1.32,1.12l-.06,18.12h-2.6Z"/>
    </g>
  </g>
</svg>