<?xml version="1.0" encoding="UTF-8"?>
<svg id="Capa_2" data-name="Capa 2" xmlns="http://www.w3.org/2000/svg" viewBox="0 0 102.08 63.76">
  <defs>
    <style>
      .cls-1 {
        fill: #6e3f30;
      }
    </style>
  </defs>
  <g id="Layer_1" data-name="Layer 1">
    <path class="cls-1" d="M52.9,48.51l-.1,13.69c0,.93-.78,1.5-1.6,1.55-.98.06-1.72-.55-1.75-1.57l-.3-13.72c-1.62,1.38-2.32,3.27-3.14,5.13-.29.66-.92,1.13-1.57,1.07-.59-.05-1.44-.72-1.23-1.47.43-1.49,1.07-2.92,1.78-4.32,2.01-3.97,4.24-3.63,4.17-6.85l-.39-17.11-2.58,2.79c.1,4.78-1.07,9.27-3.11,13.54-.99,2.07-1.18,4.18-.89,6.42.17,1.33,0,2.73-.27,4.06l-1.56,7.45c-.15.73-.78,1.18-1.4,1.22s-1.57-.42-1.48-1.28c.54-5.13,2.09-8.45.9-13.58-1.66,1.23-3.45,2.24-4.91,3.54l-3.61,7.12c-.41.82-1.17,1.17-1.85.91-.84-.32-1.19-1.14-.82-1.98l2.98-6.75c.52-1.18,1.31-2.07,2.33-2.83,1.31-.98,2.52-1.99,3.78-3.05,3.62-3.04,4.59-6.73,5.14-11.4-2.01,1.38-4.06,2.37-6.29,3.28-1.52.62-2.8,1.38-3.97,2.53-1.38,1.35.76,2.15-.1,6.51-.16.81-.91,1.21-1.64,1.09-1.81-.29-.78-2.99-1.23-4.47-.84,1.11-1.41,2.21-2.07,3.41l-2.91,5.3c-.32.58-.99,1.15-1.63,1.28-.48.09-1.1-.26-1.32-.56-1.02-1.43.91-3.21,2-5.75l3.06-7.12c-1.61-.04-2.9-.06-4.31.05l-12.17,7.35c-.28.17-.97.22-1.24.12-.3-.11-.65-.59-.77-.96-.29-.93.3-1.6,1.04-2.07,2.63-1.67,5.3-3.14,7.8-4.99,1.91-1.42,3.78-2.55,6.12-3.13l6.58-1.65c5.49-1.37,10.02-3.43,12.64-8.87-2.75,1.46-5.49,2.25-8.47,2.7-2.17.32-4.17.9-5.84,2.36l-6.62,4.65c-.65.46-1.51.24-1.92-.37-.33-.49-.38-1.34.21-1.85,1.5-1.32,3.14-2.3,4.71-3.85-7.24,1.01-14.12,2.84-20.96,5.04-.87.28-1.61.09-1.93-.59-.35-.72-.25-1.85.63-2.13l10.49-3.33c3.5-1.11,6.94-1.82,10.52-2.65l12.92-2.98c5.31-1.22,10.49-5.77,11.17-11.51.31-2.64.32-5.22.29-7.91h9.83c.03,2.6-.11,5.09.21,7.69.6,4.87,4,8.86,8.52,10.64,1.82.72,3.55,1.14,5.46,1.61l20.56,5.04c3.6.88,6.91,2.12,10.39,3.29.62.21.99,1.02.89,1.62-.07.42-.29.88-.53,1.06-.31.23-1,.27-1.42.14-4.61-1.45-9.12-2.71-13.83-3.75-2.44-.54-4.68-.96-7.26-1.19l4.59,3.64c.59.47.63,1.36.34,1.83-.42.66-1.31.97-2.01.49l-6.81-4.76c-1.44-1.01-2.76-1.83-4.59-2.09-3.18-.45-6.11-1.34-9.21-2.78,1.63,4.4,6.79,7.32,11.06,8.41l8.71,2.21c.67.17,1.47.36,2.05.73l11.56,7.53c.67.44.88,1.35.61,1.93-.29.61-1.16,1.23-1.89.79l-10.74-6.51c-.94-.57-1.88-1.07-2.99-1.06h-2.87c1.48,3.95,3.18,7.56,5.18,11.13.49.87.06,1.89-.82,2.26-.73.31-1.62-.08-2.11-.95l-5.16-9.1c-.47,1.35.61,4.41-1.28,4.66-2.26.3-2.18-4-1.29-6.03.36-.83.05-1.18-.57-1.65-1.5-1.14-3.01-2.09-4.76-2.79-1.93-.78-3.55-1.78-5.41-2.96,1.03,4.6,1.25,8.06,4.97,11.11l4.6,3.77c.45.37,1.05.91,1.28,1.44l3.51,7.82c.32.71-.14,1.53-.69,1.81-.64.32-1.58.14-1.94-.61l-2.79-5.87c-.58-1.21-1.45-2.03-2.57-2.73s-2.15-1.52-3.32-2.36c-.31,2.01-.6,3.98-.25,5.95l1.28,7.26c.11.62-.25,1.12-.79,1.43-.4.23-.97.34-1.43.17-.32-.12-.58-.7-.67-1.14l-1.45-6.78c-.51-2.4-.49-4.7-.23-7.12.12-1.1-.4-2.25-.79-3.3-.95-2.56-1.98-4.97-2.67-7.62-1.21-4.63.87-5.63-3.27-9.25l-.37,17.44c-.03,1.22.63,1.99,1.46,2.79,2.2,2.12,3.6,4.91,4.41,7.86.17.63-.43,1.3-.88,1.46-.57.2-1.36.01-1.69-.61l-2.49-4.71c-.18-.34-.43-.63-.93-.78Z"/>
  </g>
</svg>