<?xml version="1.0" encoding="UTF-8"?>
<svg id="Capa_2" data-name="Capa 2" xmlns="http://www.w3.org/2000/svg" viewBox="0 0 79.24 79.11">
  <defs>
    <style>
      .cls-1 {
        fill: #97adda;
      }
    </style>
  </defs>
  <g id="Layer_1" data-name="Layer 1">
    <path class="cls-1" d="M78.79,45.07c-3.05,20.82-21.4,35.56-42.28,33.91-13.73-1.08-25.65-8.91-31.97-21.05-2.49-4.79-3.95-9.68-4.4-14.96C-1.82,19.72,16.41-.13,39.5,0c1.12,0,2.27.04,3.48.12,8.81.61,16.92,4.37,23.46,10.28,6.82,6.16,10.84,14.42,12.36,23.45.65,3.87.56,7.35,0,11.22ZM38.19,35.91l-.44-3.19c-.73-5.31-.63-10.51-.45-15.83.07-2.16-.22-4.3,0-6.41l.46-4.64c.11-1.1.26-1.94.47-3.16-4.07.98-4.11,17.78-3.78,20.85l.47,4.36c.21,1.96,1.13,7.58,3.28,8.02ZM42.6,26.76l.26-4.05c.17-2.7.42-19.51-3.92-20.14.21,1.94.83,3.86.83,5.83l.08,18.77c0,.86.05,1.84-.06,2.7l-.76,6.09c2.57-.52,3.45-7.53,3.56-9.2ZM75.8,27.38c-1.94-4.89-3.24-7.66-6.55-11.82-1.05-1.31-3.23-3.65-4.44-4.63l-2.11-1.72c-3.13-2.55-6.9-4.39-10.69-5.86-2.7-1.05-7.63,4.04-7.1,10.83.38,4.83,2.6,9.78,6.56,12.64,6.76,4.87,16.89,6.54,24.55,2.73.14-.68.02-1.56-.23-2.17ZM21.55,29.69c8.23-1.89,9.77-8.12,10.81-15.62-.71-4.97-.87-8.43-6.38-10.26C17.45,7.05,9.71,13.92,5.62,22.11c-.4.8-1.26,2.21-.97,3.11,1.08,3.4,4.58,5.03,7.93,5,3.07.52,5.97.16,8.97-.53ZM32.03,40.03l-3.78.33-11.83.08c-3.61.03-7.06.05-10.68-.49l-3.47-.51c.35,3.04,9.47,3.61,11.88,3.76,5.61.35,14.24.24,19.44-1.77,1.4-.54,2.59-2.13,1.52-3.56-.6-.8-2.18-1.5-3.3-1.75-5.54-1.25-11.09-1.68-16.74-1.24-2.73.21-12.1.68-12.8,3.73l4.03-.51,3.13-.31c.98-.1,1.9-.09,2.88-.05l2.04.08c6.06.24,10.26-.27,16.19.17l2.09.16c1.09.08,1.96.11,2.76,1.11-1.21.46-2.14.66-3.36.77ZM41.9,39.03c1.34-.79,2.29-.86,3.62-.93l5.14-.28c.77-.04,1.55.02,2.33.01l11.37-.02c1.01,0,1.94-.11,2.93-.03l3.71.31c1.39.12,2.53.27,4.01.52-.25-2.78-9.62-3.58-11.88-3.75-3.37-.26-21.55-.51-21.4,4.36.12,4,14.09,4.14,16.95,4.14,2.89,0,15.75-.17,16.44-3.89l-3.79.51-3.17.32c-1.25.13-2.5.03-3.76.04l-5.44.02c-4.3.01-13.19.68-17.05-1.32ZM38.87,42.34c.28,1.69.84,3.27.85,4.75l.12,18.28c.02,3.56-.16,6.83-.83,10.22,4.34-.92,4.06-17.71,3.85-20.76l-.23-3.2c-.17-2.39-1.01-7.54-2.84-9.09-.92-.78-2.56-.06-3.04.92-2.24,4.53-2.79,14.9-2.26,19.81l.47,4.42c.19,1.77,1.05,7.32,3.14,7.92.19-.5-.14-1.13-.19-1.67l-.34-3.72-.27-3.45c-.09-1.15-.61-24.44,1.57-24.42ZM50.42,74.16c2.05,1.22,3.93.75,5.86-.3,1.65-.9,3.28-1.78,4.89-2.85,6.47-4.32,12.04-11.66,14.43-19.09-.31-1.25-1.04-2.96-1.98-3.71-5.03-3.98-16.11-2.92-21.59.15-3.58,2-5.84,5.23-6.69,9.13-1.28,5.9-.6,13.28,5.08,16.66ZM27.95,75.93c4.7-1.71,4.74-12.23,4.15-16.04-.62-4.02-1.71-7.85-4.88-10.54-3.54-3-9.41-3.28-13.8-2.69l-4.05.54c-2.67.36-5.7,2.52-5.62,4.68.08,2.02,1.16,3.66,2.1,5.32.56.99,1,2.04,1.64,2.99,5.13,7.56,11.8,12.9,20.46,15.74Z"/>
  </g>
</svg>