<?xml version="1.0" encoding="UTF-8"?>
<svg id="Capa_2" data-name="Capa 2" xmlns="http://www.w3.org/2000/svg" viewBox="0 0 53.21 84.13">
  <defs>
    <style>
      .cls-1 {
        fill: #e7e0d4;
      }

      .cls-2 {
        fill: #59aa47;
      }
    </style>
  </defs>
  <g id="Layer_1" data-name="Layer 1">
    <g>
      <path class="cls-2" d="M39.63,67.78c7.95.28,13.72,6.72,13.58,14.08-.02,1.01-.95,2.27-2.16,2.27H2.2c-1.51,0-2.23-1.59-2.2-2.77.13-5.64,3.55-10.63,9-12.74,2.48-3.44,2.65-7.86.44-11.47l-2.09-3.43c-2.74-4.48-2.17-10,1.38-13.93,2.69-2.97,3.55-7.03,2.05-10.72l-1.1-2.7c-.36-.89-.06-1.83.7-2.35.76-.52,1.86-.56,2.64.12,4.1,3.61,5.7,8.95,4.31,14.14-1.16,4.33-.39,8.64,2.59,12.19l1.2-1.83c2.43-3.69,2.56-8.31.25-12.1l-2.34-3.84c-2.93-4.82-2.37-10.81,1.46-15.04,3.05-3.37,3.89-7.92,2.18-12.1l-1.16-2.82c-.4-.97.19-2,1-2.45.89-.5,1.91-.37,2.71.35,4.42,3.97,6.06,9.74,4.56,15.37-1.16,4.33-.49,8.6,2.12,12.3,2.99,4.22,3.42,9.47,1.6,14.23-.92,2.41-1.36,4.84-.95,7.38l.67,4.17c1.11-2.12,1.31-4.34.98-6.59-.59-4.05.95-7.86,3.87-10.75,2.52-2.49,3.42-5.86,3.1-9.3-.45-4.88,1.7-9.47,6.04-12.08.83-.5,1.8-.21,2.4.37.7.68.72,1.6.19,2.43l-1.29,2.04c-1.93,3.05-1.76,6.75.26,9.74,2.62,3.87,2.35,8.81-.72,12.34l-2.74,3.14c-2.36,2.71-2.96,6.25-1.56,9.51,1.82,4.26.52,9.04-3.16,11.96-.35.28-.65.55-.98.86ZM18.31,67.74l.11-2c-1.02-1.69-1.55-3.55-1.83-5.44l-1.7,7.43h3.41Z"/>
      <path class="cls-1" d="M14.41,58.67c.67-2.93.09-5.91-1.4-8.59l-3.22-5.77c-.12-.21.08-.79.3-.88s.82.02.94.23l3.42,6.15c1.01,1.82,1.46,3.77,1.62,5.75l-1.65,3.11Z"/>
      <path class="cls-1" d="M31.39,67.38l4.36-4.65c1.88-2.01,2.74-4.55,2.61-7.25l-.34-7.16c-.15-3.1.68-6,2.76-8.39l4.4-5.03c.21-.24.75-.27.96-.12s.35.71.16.93l-4.51,5.19c-1.59,1.83-2.45,4.13-2.36,6.54l.32,8.87c.1,2.77-1.14,5.35-3,7.36l-3.41,3.69-1.96.03Z"/>
      <path class="cls-1" d="M24.15,67.07c-1.69-6.11-1.04-12.39,1.83-18.03,3.92-7.71,3.35-16.65-1.53-23.91-.19-.28.09-.83.29-.89s.75-.03.88.17c5.1,7.5,5.78,16.99,1.68,25.06-2.81,5.53-3.46,11.71-1.68,17.65l-1.49-.06Z"/>
    </g>
  </g>
</svg>