<?xml version="1.0" encoding="UTF-8"?>
<svg id="Capa_2" data-name="Capa 2" xmlns="http://www.w3.org/2000/svg" viewBox="0 0 84.12 82.19">
  <defs>
    <style>
      .cls-1 {
        fill: #ef4242;
      }
    </style>
  </defs>
  <g id="Layer_1" data-name="Layer 1">
    <path class="cls-1" d="M42.61,31.16c-2.11.35-3.96,1.28-5.55,2.63-2.86,2.43-4.32,5.84-5.04,9.48,5.42,1.33,8.9,6.15,8.31,11.67-.48,4.53-3.9,8.16-8.09,9.14-4.69,1.1-9.28-.99-11.64-4.92-2.44-4.08-1.84-9.27,1.35-12.68.68-.72,1.35-1.27,2.15-1.8s2.36-1.2,3.32-1.36l1.15-.2.49-2.18c.13-.59.31-1.12.52-1.69,1.61-4.42,3.99-7.65,8.31-10-2.46-.42-4.82-.2-7.21.02l-2.29.22c-3.52.33-6.98.39-10.5.21-1.32-.07-2.6-.63-3.84-.59-1.05.04-3.41,1.35-6.7.89-2.13-.3-3.92-1.42-5.21-3.13-1.2-1.59-1.8-3.48-2.12-5.44-.16-1.01.28-1.81,1.24-2.16,3.73-1.37,7.52-.96,10.49,1.83,1.32,1.24,2.23,2.75,3.01,4.4.27.57,3.78.86,4.52.89,2.48.12,4.92.04,7.45-.17-1.32-1.28-2.29-2.63-2.95-4.28-.88-2.23-1.25-4.6-.96-6.98.11-.92,1.06-1.57,2.01-1.33,4.08,1.04,7.58,3.77,9.74,7.39.88,1.48,1.47,2.96,1.92,4.61.37.07.69.11,1.08.14,5.2.5,9.97,2.5,14.18,5.74-2.21-6.51-3.87-12.81-4.22-19.54-.18-3.36,0-7.74,1.16-10.89.34-.94,1.37-1.31,2.17-1,1.01.4,1.26,1.38.93,2.35-.68,1.98-.8,4.07-.92,6.16-.15,2.78.32,7.52.98,10.48,2.87-6.15,8.3-8.91,14.72-9.74,2.63-4.77,9.4-5.5,14.22-4.91l1.88.23c1.06.13,1.61,1.13,1.42,2.12-.77,4.05-3.43,6.97-7.58,7.57-3.34.48-6.65-.45-9.77-1.6-5.3.57-10.42,3.38-12.22,8.72-.49,1.45-1.08,3.21-.79,4.77.5,2.69,1.65,5.14,2.59,7.69,1.24,3.37,2.44,6.93,3.24,10.43,1.35,5.96,2.06,11.66,2.02,17.8-.02,3.35-.26,6.62-.85,10.02,5.61.36,10.79,2.91,14.49,7.13.47.53.6,1.2.3,1.84-.25.55-.82,1.01-1.54,1.01H18.56c-.84,0-1.44-.77-1.55-1.42-.13-.79.33-1.57,1.08-1.84.42-.15.82-.15,1.31-.15h49.96c.15-.02.26-.03.15-.12-2.65-1.66-5.65-3.06-8.87-3.06l-37.67-.07c-.92,0-1.6-.64-1.69-1.54-.07-.66.44-1.78,1.35-1.78l34.68-.02c.69-3.87,1-8.55.85-12.33l-.05-1.31c-.19-4.62-.81-9.15-1.91-13.64l-.34-1.36c-.26-1.07-.56-2.11-.89-3.16l-.37-1.16c-2.68-3.67-6.29-6.54-10.48-8.34-.49.11-.94.17-1.5.26ZM80.29,7.81l-1.45-.13c-.71-.06-1.4-.04-2.12,0-2.3.15-5.22.68-6.74,2.65,3.67,1.17,8.55,1.68,10.31-2.52ZM32.94,25.57c-1.15-3.56-3.55-6.29-6.76-7.87.39,3.97,2.75,7.15,6.76,7.87ZM11.41,26.29c-1.61-3.2-4.09-5.05-7.81-4.22.25,1.03.63,1.92,1.22,2.74,1.57,2.19,4.18,2.23,6.59,1.47ZM30.75,60.96c3.83-.54,6.52-3.92,6.29-7.68-.23-3.75-3.32-6.73-7.08-6.83-3.77-.11-7.01,2.68-7.45,6.49-.26,2.23.58,4.47,2.16,6.01,1.6,1.55,3.79,2.34,6.08,2.01Z"/>
  </g>
</svg>