<?xml version="1.0" encoding="UTF-8"?>
<svg id="Capa_2" data-name="Capa 2" xmlns="http://www.w3.org/2000/svg" viewBox="0 0 79.26 79.29">
  <defs>
    <style>
      .cls-1 {
        fill: #ee3d8a;
      }
    </style>
  </defs>
  <g id="Layer_1" data-name="Layer 1">
    <g>
      <path class="cls-1" d="M26.47,55.86c-2.71.46-4.98-1.15-6.48-2.86-2.16-2.46-.62-4.99-.79-7.41-.35-5-1.14-10.22,1.65-14.95-2.93-2.75-2.72-7.14-.1-9.81,2.66-2.71,7.03-2.81,9.86-.08l2.12-.85c.41-4.24,3.17-7.83,6.84-9.44,4.23-1.87,8.94-1.08,12.31,1.83,3.78,3.27,5.07,8.52,3.15,13.22,5.24,5.68,6.93,13.79,4.31,21.15,2.07,3.65,1.44,8.17-1.49,11.13-2.95,2.98-7.51,3.63-11.18,1.55-6.92,2.44-14.56,1.15-20.19-3.49ZM51.13,22.17c.57-3.75-1.86-7.06-5.32-7.86-3.36-.78-6.97,1.09-8.07,4.51,4.84-.4,9.34.77,13.38,3.36ZM25.11,23.5c-1.32.37-2,1.72-1.59,2.94.38,1.13,1.61,1.83,2.78,1.5s1.96-1.59,1.62-2.8-1.53-2-2.81-1.64ZM31.06,53.42c3.66,2.26,7.81,2.93,11.92,2.11-1.89-3.74-1.12-8.05,1.72-10.88,2.87-2.85,7.19-3.5,10.82-1.68,1.29-6.15-1.07-12.26-5.77-16.01-4.84-3.87-11.47-4.63-17.09-1.97.42,4.48-3.31,8.1-7.69,7.68-1.42,3.05-1.89,6.33-1.35,9.59,3.07-.94,6.24.29,7.92,2.85,1.69,2.58,1.48,5.88-.48,8.31ZM25.12,46.71c-1.34.38-1.99,1.72-1.6,2.92s1.59,1.87,2.81,1.51,1.95-1.59,1.6-2.8c-.33-1.15-1.54-1.99-2.81-1.63ZM50.44,46.7c-2.62.47-4.22,2.97-3.74,5.42s2.86,4.12,5.34,3.68c2.51-.44,4.21-2.85,3.75-5.37-.44-2.43-2.76-4.19-5.35-3.73Z"/>
      <path class="cls-1" d="M73.39,60.34c-7.19,11.63-19.7,18.79-33.41,18.95-1.45.02-2.6-.79-2.68-2.25-.08-1.32,1.04-2.43,2.34-2.43,19.87-.02,35.79-16.65,34.91-36.5-.26-5.74-2-11.34-5.08-16.4l-3.13,3.12c-.58.58-1.32.79-2.18.63-.62-.12-1.39-.6-1.66-1.39l-4.95-14.84c-.3-.91-.09-1.8.52-2.41.66-.67,1.55-.9,2.5-.58l14.57,4.85c.84.28,1.43.89,1.61,1.58.25.92.01,1.74-.61,2.37l-3.27,3.3c8.37,12.83,8.49,29.11.53,42ZM70.2,14.38l-6.75-2.26,2.25,6.74,4.5-4.48Z"/>
      <path class="cls-1" d="M21.05,69.74c.32.95-.11,1.89-.71,2.41-.67.59-1.51.72-2.4.42l-14.72-4.92c-.71-.24-1.23-.88-1.4-1.44-.21-.7-.18-1.59.35-2.12l3.79-3.83C-5.66,41.54.31,17.57,18.72,6.01,24.89,2.13,31.99.09,39.28,0c1.42-.02,2.53.72,2.68,2.17.12,1.13-.86,2.52-2.11,2.51C19.89,4.6,3.82,21.23,4.72,41.19c.24,5.43,1.82,10.74,4.64,15.64l2.87-2.84c.6-.6,1.42-.84,2.22-.63.78.21,1.39.74,1.68,1.62l4.91,14.77ZM15.1,66.69l-2.24-6.72-4.48,4.48,6.72,2.24Z"/>
    </g>
  </g>
</svg>