<?xml version="1.0" encoding="UTF-8"?>
<svg id="Capa_2" data-name="Capa 2" xmlns="http://www.w3.org/2000/svg" viewBox="0 0 72.53 72.53">
  <defs>
    <style>
      .cls-1 {
        fill: #00addf;
        stroke: #00addf;
        stroke-miterlimit: 10;
        stroke-width: .25px;
      }
    </style>
  </defs>
  <g id="Layer_1" data-name="Layer 1">
    <g>
      <path class="cls-1" d="M18.56,11.17c1.25,1.98.72,4.5-.99,6.05-2.01,1.83-5.2,1.84-7.22,0-1.73-1.57-2.25-4.14-.96-6.11l4.57-6.97,2.28,3.43,1.78-1.18L13.96.23l-6.21,9.42c-1.58,2.4-1.64,5.37-.03,7.78,1.35,2.03,3.6,3.22,5.97,3.3,2.41.08,4.71-.94,6.22-2.89,1.82-2.35,2.02-5.55.37-8l-1.13-1.68-1.75,1.17,1.17,1.84ZM63.16,11.17c1.25,1.98.72,4.5-.99,6.05-2.01,1.83-5.2,1.84-7.22,0-1.73-1.57-2.25-4.14-.96-6.11l4.57-6.97,2.28,3.43,1.78-1.18L58.56.23l-6.21,9.42c-1.58,2.4-1.64,5.37-.03,7.78,1.35,2.03,3.6,3.22,5.97,3.3,2.41.08,4.71-.94,6.22-2.89,1.82-2.35,2.02-5.55.37-8l-1.13-1.68-1.75,1.17,1.16,1.84ZM42.89,18.75c-.42,3.46-3.31,5.77-6.64,5.77s-6.19-2.33-6.63-5.7c-.18-1.42.15-2.82.93-4.01l5.69-8.68,3.3,4.99,1.77-1.19-5.06-7.72-7.52,11.48c-1.86,2.84-1.73,6.44.2,9.2,1.68,2.41,4.4,3.77,7.26,3.79,2.85.02,5.54-1.29,7.26-3.62,2.05-2.79,2.2-6.47.32-9.36l-1.3-2-1.78,1.16,1.35,2.13c.68,1.07,1.01,2.38.84,3.76ZM13.03,41.58l-1.52-1.49-2.39,2.31v-18.48s-2.17-.02-2.17-.02v18.47s-2.41-2.29-2.41-2.29l-1.5,1.51,4.99,4.99,5-5ZM69.48,41.58l-1.52-1.49-2.39,2.31v-18.48s-2.17-.02-2.17-.02v18.47s-2.41-2.28-2.41-2.28l-1.5,1.51,4.99,4.99,5-5ZM27.14,41.59l-1.49-1.52-2.4,2.31-.02-15.68-2.16.02v15.66s-2.42-2.32-2.42-2.32l-1.48,1.52,4.98,4.98,4.99-4.98ZM55.36,41.59l-1.49-1.52-2.4,2.31-.02-15.68-2.16.02v15.66s-2.42-2.32-2.42-2.32l-1.48,1.52,4.98,4.98,4.99-4.98ZM41.25,41.59l-1.51-1.51-2.39,2.32-.02-12.86-2.16.02-.02,12.84-2.39-2.31-1.51,1.5,4.99,4.99,4.99-4.99ZM4.38,37.11l-.04-2.16H.13s.02,2.18.02,2.18l4.23-.02ZM18.49,37.11l-.04-2.16h-6.75s.02,2.17.02,2.17h6.77ZM32.6,37.11l-.04-2.16h-6.75s.02,2.17.02,2.17h6.77ZM46.71,37.11l-.04-2.16h-6.75s.02,2.17.02,2.17h6.77ZM60.83,37.11l-.04-2.16h-6.75s.02,2.17.02,2.17h6.77ZM72.4,37.11l-.04-2.16h-4.21s.02,2.18.02,2.18l4.23-.02ZM72.37,53.75l.02-2.15c-5.68.02-5.87-2.27-12.14-2.25-6.05.02-6.25,2.23-11.87,2.25-5.85.02-6-2.34-12.4-2.25-6.02.09-6.24,2.33-11.96,2.25-5.66-.08-5.82-2.35-12.17-2.25-5.86.09-6.24,2.29-11.71,2.25l.02,2.14c5.65.12,6.36-2.21,11.98-2.25,5.32-.04,5.72,1.94,11.01,2.23,2.65.15,5.16-.21,7.59-1.21,3.36-1.38,7.79-1.36,11.15.03,2.36.98,4.79,1.31,7.36,1.19,5.38-.25,5.78-2.27,11.15-2.24s6.32,2.36,11.98,2.25ZM72.37,60.81l.02-2.15c-5.68.02-5.87-2.27-12.14-2.25-6.05.02-6.25,2.23-11.87,2.25-5.85.02-6-2.34-12.4-2.25-6.02.09-6.24,2.33-11.96,2.25s-5.82-2.35-12.17-2.25c-5.86.09-6.24,2.29-11.71,2.25l.02,2.14c5.65.12,6.36-2.21,11.98-2.25,5.32-.04,5.72,1.94,11.01,2.23,2.65.15,5.16-.21,7.59-1.21,3.36-1.38,7.79-1.36,11.15.03,2.36.98,4.79,1.31,7.36,1.19,5.38-.25,5.78-2.27,11.15-2.24,5.61.03,6.32,2.36,11.98,2.25ZM13.26,65.34l-.02-2.17-2.11.02.02,2.15h2.11ZM37.36,65.31l-.03-2.13h-2.14s0,2.16,0,2.16l2.17-.03ZM61.39,65.34l-.02-2.17-2.11.02.02,2.15h2.11ZM2.26,68.16l-.02-2.17-2.11.02.02,2.15h2.11ZM25.26,68.16l-.02-2.17-2.11.02.02,2.15h2.11ZM49.39,68.16l-.02-2.17-2.11.02.02,2.15h2.11ZM72.39,68.16l-.02-2.17-2.11.02.02,2.15h2.11ZM11.71,72.39v-2.16s-11.57,0-11.57,0l.02,2.17h11.55ZM42.04,72.4l-.06-2.16H13.83s.02,2.17.02,2.17h28.19ZM72.38,72.4l-.06-2.16h-28.15s.02,2.17.02,2.17h28.19Z"/>
      <path class="cls-1" d="M72.37,53.75c-5.65.11-6.37-2.22-11.98-2.25s-5.77,1.99-11.15,2.24c-2.56.12-5-.22-7.36-1.19-3.36-1.39-7.79-1.42-11.15-.03-2.44,1-4.95,1.36-7.59,1.21-5.29-.29-5.69-2.27-11.01-2.23-5.62.04-6.32,2.37-11.98,2.25l-.02-2.14c5.47.04,5.85-2.16,11.71-2.25,6.35-.1,6.51,2.17,12.17,2.25,5.72.08,5.94-2.16,11.96-2.25,6.4-.09,6.55,2.27,12.4,2.25,5.62-.02,5.82-2.23,11.87-2.25,6.27-.02,6.46,2.27,12.14,2.25l-.02,2.15Z"/>
      <path class="cls-1" d="M72.37,60.81c-5.65.11-6.37-2.22-11.98-2.25-5.37-.03-5.77,1.99-11.15,2.24-2.56.12-5-.22-7.36-1.19-3.36-1.39-7.79-1.42-11.15-.03-2.44,1-4.95,1.36-7.59,1.21-5.29-.29-5.69-2.27-11.01-2.23-5.62.04-6.32,2.37-11.98,2.25l-.02-2.14c5.47.04,5.85-2.16,11.71-2.25,6.35-.1,6.51,2.17,12.17,2.25s5.94-2.16,11.96-2.25c6.4-.09,6.55,2.27,12.4,2.25,5.62-.02,5.82-2.23,11.87-2.25,6.27-.02,6.46,2.27,12.14,2.25l-.02,2.15Z"/>
      <path class="cls-1" d="M42.89,18.75c.17-1.38-.16-2.69-.84-3.76l-2.51-3.88,1.7-1.31,2.53,3.9c1.88,2.89,1.73,6.57-.32,9.36-1.72,2.34-4.41,3.64-7.26,3.62-2.86-.02-5.58-1.38-7.26-3.79-1.93-2.76-2.06-6.36-.2-9.2l7.52-11.48,5.06,7.72-1.77,1.19-3.3-4.99-5.69,8.68c-.78,1.19-1.11,2.59-.93,4.01.43,3.37,3.29,5.71,6.63,5.7s6.22-2.31,6.64-5.77Z"/>
      <path class="cls-1" d="M18.56,11.17l-2.33-3.6,1.78-1.18,2.26,3.45c1.65,2.45,1.45,5.65-.37,8-1.51,1.95-3.81,2.98-6.22,2.89-2.37-.08-4.61-1.27-5.97-3.3-1.61-2.41-1.55-5.38.03-7.78L13.96.23l4.06,6.16-1.78,1.18-2.28-3.43-4.57,6.97c-1.29,1.96-.76,4.54.96,6.11,2.02,1.84,5.2,1.83,7.22,0,1.71-1.56,2.25-4.07.99-6.05Z"/>
      <path class="cls-1" d="M63.16,11.17l-2.33-3.6,1.78-1.18,2.26,3.45c1.65,2.45,1.45,5.65-.37,8-1.51,1.95-3.81,2.98-6.22,2.89-2.37-.08-4.61-1.27-5.97-3.3-1.61-2.41-1.55-5.38.03-7.78L58.56.23l4.06,6.16-1.78,1.18-2.28-3.43-4.57,6.97c-1.29,1.96-.77,4.54.96,6.11,2.02,1.84,5.2,1.83,7.22,0,1.71-1.56,2.25-4.07.99-6.05Z"/>
      <polygon class="cls-1" points="13.03 41.58 8.04 46.58 3.04 41.59 4.54 40.08 6.94 42.36 6.96 23.9 9.12 23.92 9.13 42.4 11.52 40.08 13.03 41.58"/>
      <polygon class="cls-1" points="69.48 41.58 64.49 46.58 59.49 41.59 60.99 40.08 63.39 42.36 63.41 23.9 65.57 23.92 65.58 42.4 67.97 40.08 69.48 41.58"/>
      <polygon class="cls-1" points="27.14 41.59 22.15 46.58 17.17 41.6 18.65 40.08 21.05 42.4 21.07 26.74 23.22 26.72 23.25 42.39 25.65 40.08 27.14 41.59"/>
      <polygon class="cls-1" points="55.36 41.59 50.37 46.58 45.39 41.6 46.87 40.08 49.28 42.4 49.29 26.74 51.45 26.72 51.47 42.39 53.87 40.08 55.36 41.59"/>
      <polygon class="cls-1" points="42.04 72.4 13.85 72.4 13.83 70.24 41.98 70.23 42.04 72.4"/>
      <polygon class="cls-1" points="72.38 72.4 44.19 72.4 44.18 70.24 72.33 70.23 72.38 72.4"/>
      <polygon class="cls-1" points="41.25 41.59 36.26 46.58 31.27 41.58 32.78 40.09 35.17 42.4 35.18 29.56 37.34 29.54 37.36 42.4 39.75 40.08 41.25 41.59"/>
      <polygon class="cls-1" points="11.71 72.39 .15 72.4 .14 70.24 11.7 70.23 11.71 72.39"/>
      <polygon class="cls-1" points="18.49 37.11 11.72 37.13 11.7 34.96 18.45 34.95 18.49 37.11"/>
      <polygon class="cls-1" points="32.6 37.11 25.83 37.13 25.81 34.96 32.56 34.95 32.6 37.11"/>
      <polygon class="cls-1" points="46.71 37.11 39.95 37.13 39.93 34.96 46.67 34.95 46.71 37.11"/>
      <polygon class="cls-1" points="60.83 37.11 54.06 37.13 54.04 34.96 60.79 34.95 60.83 37.11"/>
      <polygon class="cls-1" points="4.38 37.11 .15 37.13 .13 34.97 4.34 34.95 4.38 37.11"/>
      <polygon class="cls-1" points="72.4 37.11 68.17 37.13 68.15 34.97 72.36 34.95 72.4 37.11"/>
      <polygon class="cls-1" points="37.36 65.31 35.18 65.34 35.19 63.19 37.33 63.18 37.36 65.31"/>
      <polygon class="cls-1" points="13.26 65.34 11.15 65.34 11.13 63.19 13.24 63.17 13.26 65.34"/>
      <polygon class="cls-1" points="61.39 65.34 59.28 65.34 59.26 63.19 61.36 63.17 61.39 65.34"/>
      <polygon class="cls-1" points="2.26 68.16 .14 68.16 .13 66.02 2.23 65.99 2.26 68.16"/>
      <polygon class="cls-1" points="25.26 68.16 23.15 68.16 23.13 66.02 25.24 65.99 25.26 68.16"/>
      <polygon class="cls-1" points="49.39 68.16 47.28 68.16 47.26 66.02 49.37 65.99 49.39 68.16"/>
      <polygon class="cls-1" points="72.39 68.16 70.28 68.16 70.26 66.02 72.37 65.99 72.39 68.16"/>
    </g>
  </g>
</svg>