<svg xmlns="http://www.w3.org/2000/svg" xmlns:xlink="http://www.w3.org/1999/xlink" width="500" zoomAndPan="magnify" viewBox="0 0 375 374.999991" height="500" preserveAspectRatio="xMidYMid meet" version="1.0"><path fill="#c5e0e4" d="M 293.476562 269.402344 L 336.121094 226.929688 C 348.667969 214.4375 349.40625 195.019531 337.3125 182.359375 C 325.386719 169.808594 305.175781 169.296875 292.511719 181.902344 L 260.148438 214.15625 C 255.492188 218.8125 247.882812 217.675781 243.851562 213.417969 C 239.421875 208.816406 239.308594 201.492188 244.136719 196.667969 L 277.636719 163.449219 C 299.382812 143.121094 333.28125 144.484375 353.777344 165.210938 C 374.277344 185.933594 375.695312 220.570312 354.460938 241.808594 L 249.757812 346.679688 C 228.40625 368.085938 193.996094 367.347656 172.875 346.851562 C 151.640625 326.183594 149.9375 291.320312 171.34375 269.742188 L 222.445312 218.242188 C 227.554688 213.074219 234.597656 211.597656 240.5 216.425781 L 293.476562 269.457031 Z M 232.722656 330.15625 L 276.671875 286.210938 L 232.496094 241.863281 L 188.660156 285.699219 C 176.851562 298.132812 177.191406 317.382812 188.945312 329.304688 C 200.699219 341.230469 219.890625 342.136719 232.777344 330.15625 Z M 232.722656 330.15625 " fill-opacity="1" fill-rule="nonzero"/><path fill="#84bcc5" d="M 273.605469 70.5 L 201.207031 112.289062 L 201.207031 165.210938 C 201.09375 172.082031 194.964844 177.132812 188.886719 176.851562 C 181.847656 176.566406 177.359375 171.058594 177.359375 164.015625 L 177.359375 112.347656 C 177.359375 112.347656 104.964844 70.441406 104.964844 70.441406 L 39.894531 108.257812 C 37.679688 115.980469 32.398438 123.191406 24.335938 124.382812 C 15.308594 125.746094 7.132812 121.660156 3.386719 113.992188 C -0.363281 106.328125 1.398438 96.617188 8.042969 90.882812 C 13.492188 86.171875 20.816406 85.71875 27.515625 87.703125 L 92.929688 50.003906 L 92.929688 13.4375 C 92.929688 6.679688 98.324219 1.570312 104.570312 1.453125 C 110.8125 1.339844 116.492188 6.167969 116.664062 12.980469 L 116.664062 49.945312 C 116.664062 49.945312 189.171875 91.792969 189.171875 91.792969 L 261.679688 49.945312 L 261.679688 11.675781 C 262.703125 5.316406 268.152344 1.113281 274.230469 1.570312 C 280.304688 2.023438 285.359375 7.078125 285.359375 13.777344 L 285.359375 50.003906 C 285.359375 50.003906 317.15625 68.285156 317.15625 68.285156 C 323.230469 71.75 325.613281 78.675781 322.265625 84.808594 C 319.085938 90.601562 311.703125 92.644531 305.683594 89.179688 L 273.492188 70.558594 Z M 273.605469 70.5 " fill-opacity="1" fill-rule="nonzero"/><path fill="#84bcc5" d="M 182.128906 220.628906 L 110.8125 261.792969 C 107.238281 263.894531 102.808594 263.953125 99.117188 261.792969 L 14.003906 212.621094 C 10.652344 210.691406 8.667969 206.546875 8.667969 202.796875 L 8.667969 142.496094 C 8.722656 136.195312 14.457031 131.765625 19.679688 131.425781 C 25.984375 130.972656 31.265625 135.285156 32.34375 141.703125 L 32.34375 195.816406 C 32.34375 195.816406 104.910156 237.71875 104.910156 237.71875 L 170.09375 200.074219 C 171.96875 188.886719 181.960938 181.902344 193.429688 184.230469 C 204.332031 186.332031 210.691406 197.519531 207.683594 207.964844 C 204.671875 218.414062 193.488281 224.828125 182.074219 220.570312 Z M 182.128906 220.628906 " fill-opacity="1" fill-rule="nonzero"/><path fill="#84bcc5" d="M 116.777344 335.269531 C 125.804688 342.707031 126.484375 355.425781 119.160156 363.429688 C 111.835938 371.4375 98.71875 371.835938 91.113281 363.828125 C 83.503906 355.820312 84.183594 342.820312 93.042969 335.269531 L 93.042969 282.0625 C 93.042969 275.195312 98.550781 270.195312 104.683594 270.140625 C 111.722656 270.027344 116.777344 275.476562 116.777344 282.632812 Z M 116.777344 335.269531 " fill-opacity="1" fill-rule="nonzero"/></svg>