<?xml version="1.0" encoding="UTF-8"?>
<svg id="Capa_2" data-name="Capa 2" xmlns="http://www.w3.org/2000/svg" viewBox="0 0 79.03 102.8">
  <defs>
    <style>
      .cls-1 {
        fill: #a9674a;
      }

      .cls-2 {
        fill: #aa744e;
      }
    </style>
  </defs>
  <g id="Layer_1" data-name="Layer 1">
    <g>
      <path class="cls-1" d="M48.4,29.24c-1.59,4.93-7.57,5.91-11.63,4.46-4.73-1.69-3.82-5.27-5.41-5.16-2.21.15.93,4.54,1.99,5.33-.93,1.4-1.99,2.62-3.27,3.71-2.95-1.34-5.45-3.25-7.73-5.44-.25-.24-1.07-.06-1.26.22s-.13.93.2,1.25c2.13,2.11,4.45,3.71,7.07,5.22-3.87,2.6-8.34,2.47-12.37.82-2.83-1.16-4.93-3.29-5.4-6.46-.51-3.39.31-7.11,2.65-9.66l1.13-1.23c-2.2-5.77,1.77-11.95,7.14-14.12,4.72-1.9,6.96.83,7.43-.85C30.99,0,40.77-1.65,47.08,1.57c4.52,2.31,4.38,6.05,5.21,6.3s5.32-2.14,10.77,2.72c3.34,2.98,4.8,7.39,3.35,11.67.3.43.77.83,1.11,1.24,2.31,2.73,3.25,6.5,2.65,10.03-1.16,6.81-12.34,9.44-17.79,5.32,2.67-1.53,4.99-3.15,7.18-5.32.19-.19.25-.8.18-1.06-.08-.3-.95-.64-1.24-.37-2.31,2.12-4.85,4.18-7.82,5.47-1.29-1.1-2.39-2.37-3.25-3.73,1.12-.89,3.96-4.81,2.16-5.27-.48-.12-1.02.16-1.18.66ZM30.89,14.41c1.78-1.29,4.06-1.73,6.02-.79.49.24,1.05.3,1.39-.09.24-.27.18-1.07-.17-1.29-3.75-2.36-8.72-.11-10.79,3.61-.69,1.23-.98,2.93-.59,4.27.09.32,1.02.46,1.27.27.92-.73-.53-3.51,2.87-5.97ZM52.46,20.04c-.02.48,1.42.57,1.54.12,1.11-4.3-3.12-8.59-7.75-8.88-1.06-.07-4.37.43-3.91,2.04.53,1.86,2.59-1.91,7,.77,2.15,1.3,3.21,3.32,3.12,5.96Z"/>
      <path class="cls-1" d="M47.46,78.49l-7.09-7.68-7.05,7.63c-1.19,2.97-1.69,6-1.75,9.28,0,.48-.52.96-.88.98-2.21.12-.25-6.55-.14-8.19-3.69,2.85-6.29,6.06-7.54,10.51-.13.44-.67.83-1.08.77-2.39-.36,1.64-6.67,2.39-7.77,2-2.93,4.8-4.71,7.45-6.94,2.86-2.41,5.03-5.52,7.69-8.07l-.11-4.43-15.29,15.45c-.3.31-1.05.34-1.32.12-.37-.31-.37-1.1-.05-1.42l2.06-2.08c-4.1-.01-8.16,3.63-9.61,7.61-.21.57-.72.87-1.31.7-2.06-.59,2.49-6.69,3.81-7.42,2.51-2.13,5.62-3.07,8.94-2.76l4.67-4.77-8.89.1c-2.17.02-3.9,1.66-5.32,3.15-.27.28-.94.37-1.25.24-1.99-.85,3.2-5.32,6.93-5.34l10.5-.07,3.57-3.71c-4.94.07-9.51-.26-14.34.14-2.35.19-4.61,1.98-6.51,3.25-2.79,1.86-4.82,4.19-6.91,6.76-.22.27-1.01.28-1.28.06-.33-.28-.35-1.01-.05-1.41,2.76-3.61,6.01-6.53,9.94-8.8l-16.68-.02c-.47,0-.94-.43-.96-.79-.03-.55.36-1.02.99-1.02l30.43-.19c3.07-.02,5.92-3.27,6.19-5.99.31-3.08.12-5.69.1-8.67-.01-1.49-.9-2.87-1.7-4.05-1.49-1.73-3.27-2.96-5.57-3.9,1.58-1.48,2.99-2.96,4.4-4.76,3.45,1.45,7.45,1.52,11.01,0,1.36,1.69,2.74,3.21,4.46,4.73-3.73,1.49-7.51,4.62-7.37,8.93.09,2.64-.19,4.97.14,7.71.33,2.75,3.13,5.96,6.24,5.98l28.59.18c.53,0,.94.24,1.11.64.14.32-.21,1.17-.63,1.17l-15.13.04c3.93,2.42,7.17,5.26,9.89,8.93.21.29.09,1.05-.16,1.26s-1.06.21-1.27-.05c-2.43-3.07-5-5.76-8.41-7.78-1.39-.83-3.17-2.15-4.83-2.24-4.85-.26-9.38-.09-14.49-.1l3.55,3.69,10.5.08c3.34.02,8.56,4,7.05,5.22-.36.29-1.03.23-1.37-.13-1.45-1.55-3.29-3.07-5.52-3.17-2.91-.14-5.64-.08-8.61-.01l4.61,4.74c3.43-.35,6.61.69,9.17,2.94,1.18.73,5.61,6.62,3.54,7.22-.66.19-1.12-.24-1.36-.88-1.43-3.84-5.55-7.52-9.52-7.43l2.13,2.17c.21.22.16.97.03,1.23s-1.05.41-1.33.12l-15.38-15.53-.14,4.42c2.69,2.57,4.83,5.63,7.66,8.04,2.51,2.13,5.19,3.8,7.16,6.54,1.54,2.14,2.8,4.3,3.46,6.94.1.41-.25,1.07-.6,1.18-.5.17-1.1-.2-1.25-.74-1.13-4.24-4.02-7.85-7.56-10.51.13,1.66,1.95,7.96.04,8.19-.37.05-1.07-.39-1.07-.99-.02-3.21-.55-6.16-1.69-9.22Z"/>
      <path class="cls-2" d="M41.35,101.84c0,.42-.49.9-.77.95-.33.07-1.14-.33-1.14-.78v-14.12c-2.22,2.03-3.72,4.38-4.77,7.14-.16.42-.79.67-1.23.58-.34-.07-.73-.78-.57-1.2,1.38-3.59,3.46-6.65,6.55-8.92v-8.96c0-.35.45-.94.75-1.05.33-.12,1.15.39,1.15.75l.05,9.28c3.12,2.3,5.17,5.33,6.53,8.91.12.31-.16.99-.43,1.12-.33.16-1.14-.01-1.29-.37-1.14-2.75-2.47-5.19-4.82-7.18l-.02,13.83Z"/>
    </g>
  </g>
</svg>