<?xml version="1.0" encoding="UTF-8"?>
<svg id="Capa_2" data-name="Capa 2" xmlns="http://www.w3.org/2000/svg" viewBox="0 0 81.15 77.39">
  <defs>
    <style>
      .cls-1 {
        fill: #e6b222;
      }

      .cls-2 {
        fill: #fff;
      }
    </style>
  </defs>
  <g id="Layer_1" data-name="Layer 1">
    <g>
      <path class="cls-2" d="M55.16,6.63c1.52.81,3.36,1.91,4.19.27.28-.55.05-1.28-.59-1.72C53.24,1.38,44.51-.56,37.89.14c-6.19.66-12.36,2.3-17.37,6.01-.74.54-1.02,1.3-.56,2.08.39.67,1.27.99,2.03.51l1.82-1.14c4.3-2.7,9.23-4.08,14.33-4.53,5.82-.52,11.91.84,17.02,3.56ZM78.56,29.87c1.36-1.82,2.22-3.7,2.48-5.9.42-3.57-.44-6.89-1.97-10.08-2.47-5.14-6.24-9.72-10.45-13.57-1.11.77-1.87,1.55-2.72,2.45-2.23,2.37-4.21,4.85-5.95,7.62-2.95,4.72-5.4,11.02-3.15,16.47,1.79,4.33,5.78,7.51,10.46,8.01s8.63-1.4,11.3-4.99ZM18.87,34.23c6.1-1.72,10.46-6.95,10.99-13.21.13-1.55.07-5.63-.95-6.78-2.09-1.36-6.04-.44-8.45.27-.69-1.76-3.51-7.23-5.7-7.06s-5.04,4.95-5.63,7.05c-2.5-1.08-5.13-.98-7.72-.65-.73.31-1.1.75-1.2,1.52-.69,5.59.39,11.19,4.44,15.3,3.69,3.75,9.08,5.01,14.24,3.55ZM42.49,19.46c2.64-1.66,3.37.75,4.85,1.03,1.11.21,1.74-.92,1.84-1.86.33-2.96,3.79.21,4.34-2.29.08-.38,0-1.09-.32-1.33-2.15-1.62-5.12-.9-6.37,1.5-3.04-1.29-6.6-.4-7.92,2.84-1.07-.11-2.15-.24-3.02.28-.74.45-1.04,1.27-.73,1.93s1.1.92,1.85.76c2.16-.48,1.65,1.63,3.5.97,1.35-.48.16-2.68,1.98-3.83ZM77.9,36.92c-.08-.71-.69-1.2-1.09-1.31-.49-.13-1.32-.05-1.54.52s-.22,1.18-.25,1.91h-5.22c-2.54,0-4.95-.03-7.48.08-.54.02-1.07.37-1.27.76-.24.49-.12.98.14,1.51.41.31.92.66,1.46.66h12.43c-.29,15.21-11.03,28-25.29,32.03-2.44-1.4-4.87-2.27-7.67-2.78-.24-1.49-.16-2.94.16-4.42.48-1.34,2.81-1.35,4.12-1.36l5.91-.05c3.4-.03,3.84-4.4,6.55-4.3,5.39.21,6.8-6.35,6.67-10.51-1.66-.14-3.11.09-4.6.53-3.32.98-6.63,3.78-5.1,7.62-1.12,1.21-2.17,2.3-3.37,3.42-.32.3-1.06.25-1.37.11,1.11-1.34,2.45-2.66,2.28-4.42-.07-.75-.69-1.29-1.28-1.34-1.69-.14-1.41,1.86-2.69,3.17l-2.64,2.69-2.81.04c-.63,0-1.39.34-1.99.51l-.03-6.86,4.72-4.73c.32-.32.76-.45,1.2-.32,2.73.8,5.46-.37,6.9-2.81,1.36-2.32,1.85-4.96,2.05-7.65.04-.56.13-1.12-.13-1.68-4.68-.03-13.79,3.57-11.57,9.72l-2.41,2.36c-.26.26-.47.45-.78.72v-10.65c.71-.74,1.36-1.51,1.59-2.49,1.04-4.37-3.25-8.69-6.72-10.69-.31-.18-.72,0-.84.32-.89,2.39-1.44,4.79-1.59,7.34-.09,3.1.72,6.41,4.52,6.48v9.25s-3.78-3.58-3.78-3.58c.34-1.24.68-2.53.28-3.78-1.44-4.17-8.31-5.99-12.31-6,.23,3.87,1.9,10.85,6.05,11.93,1.26.42,2.47.36,3.74-.19l6.03,5.93.09,12.86c0,.94-.07,1.78-.37,2.69l-6.71-6.26c-1.05-.98-3.35-5.71-1.1-8.41l1-1.2c.49-.59.33-1.43-.16-1.93-.4-.41-1.27-.43-1.83-.04-2.23,1.54-3.15,4.14-3.02,7.05-5.97-4.77-1.53-7.03-3.4-8.75-.37-.34-1.07-.46-1.51-.18-2.33,1.49-1.53,5.18-.31,7.43-1.29.29-4.33.86-4.51,2.38-.04.37.19.88.47,1.18.53.57,1.27.71,1.95.28,3.58-2.28,6.6.95,9.09,3.21l6.76,6.13c-1.4.63-2.59,1.19-3.9,1.97-3.5-.85-6.78-2.27-9.83-4.25-9.24-5.94-15.86-16.38-15.84-27.72l13.53-.02c.87,0,1.47-.87,1.41-1.51-.07-.65-.59-1.41-1.45-1.41l-13.4-.04c.11-.75.24-1.43.19-2.05-.07-.97-.78-1.51-1.65-1.45-.64.04-1.42.6-1.45,1.48l-.18,5.25c-.08,2.2.2,4.23.64,6.41,2.71,13.31,13.11,23.92,25.92,27.98,15.67,4.96,32.93-1.08,42.35-14.44,4.98-7.07,7.23-15.69,6.25-24.31ZM15.54,50.91c1.31-.65.51-2.18,1.25-2.55,1.06-.52,2.08.88,3.05-.19.42-.46.75-1.09.33-1.69-.81-1.15-2.18-1.33-3.52-1.29-1.22.04-1.88,1.34-2.91,1.83-1.02.49-2.43.23-3.15,1.57-.21.38-.53,1.12-.24,1.6.53.86,1.54.86,2.3.34,1.21-.83,1.59,1.03,2.89.38Z"/>
      <path class="cls-1" d="M77.9,36.92c.98,8.63-1.27,17.25-6.25,24.31-9.42,13.36-26.68,19.4-42.35,14.44-12.81-4.06-23.21-14.67-25.92-27.98-.44-2.18-.72-4.21-.64-6.41l.18-5.25c.03-.88.81-1.43,1.45-1.48.87-.06,1.58.49,1.65,1.45.04.63-.08,1.31-.19,2.05l13.4.04c.85,0,1.38.76,1.45,1.41.07.64-.54,1.51-1.41,1.51l-13.53.02c-.02,11.34,6.6,21.78,15.84,27.72,3.05,1.99,6.32,3.4,9.83,4.25,1.32-.78,2.5-1.34,3.9-1.97l-6.76-6.13c-2.5-2.26-5.51-5.49-9.09-3.21-.67.43-1.42.29-1.95-.28-.27-.3-.51-.8-.47-1.18.18-1.52,3.23-2.09,4.51-2.38-1.22-2.25-2.02-5.94.31-7.43.44-.28,1.14-.16,1.51.18,1.87,1.73-2.57,3.98,3.4,8.75-.13-2.91.79-5.51,3.02-7.05.56-.39,1.44-.37,1.83.04.49.5.65,1.34.16,1.93l-1,1.2c-2.25,2.7.05,7.42,1.1,8.41l6.71,6.26c.3-.91.38-1.75.37-2.69l-.09-12.86-6.03-5.93c-1.27.54-2.48.61-3.74.19-4.16-1.08-5.83-8.06-6.05-11.93,4,0,10.87,1.82,12.31,6,.4,1.26.06,2.54-.28,3.78l3.78,3.58v-9.25c-3.79-.07-4.61-3.39-4.52-6.48.15-2.55.69-4.95,1.59-7.34.12-.32.53-.5.84-.32,3.47,2,7.76,6.32,6.72,10.69-.24.99-.89,1.75-1.6,2.49v10.65c.33-.27.53-.46.79-.72l2.41-2.36c-2.21-6.15,6.89-9.74,11.57-9.72.26.56.18,1.12.13,1.68-.2,2.69-.69,5.33-2.05,7.65-1.44,2.45-4.17,3.62-6.9,2.81-.44-.13-.88,0-1.2.32l-4.72,4.73.03,6.86c.6-.17,1.36-.5,1.99-.51l2.81-.04,2.64-2.69c1.28-1.31,1-3.31,2.69-3.17.59.05,1.21.59,1.28,1.34.16,1.76-1.17,3.07-2.28,4.42.31.14,1.05.19,1.37-.11,1.2-1.13,2.25-2.21,3.37-3.42-1.53-3.84,1.77-6.64,5.1-7.62,1.49-.44,2.95-.67,4.6-.53.13,4.16-1.27,10.72-6.67,10.51-2.71-.1-3.15,4.27-6.55,4.3l-5.91.05c-1.31.01-3.65.02-4.12,1.36-.32,1.48-.4,2.93-.16,4.42,2.8.5,5.23,1.37,7.67,2.78,14.25-4.04,25-16.82,25.29-32.02h-12.43c-.54-.01-1.05-.36-1.46-.67-.26-.53-.38-1.03-.14-1.51.19-.39.73-.74,1.27-.76,2.53-.11,4.95-.07,7.48-.07h5.22c.03-.73.03-1.35.25-1.91s1.05-.66,1.54-.52c.4.11,1.01.59,1.09,1.31Z"/>
      <path class="cls-1" d="M18.87,34.23c-5.16,1.46-10.55.2-14.24-3.55C.58,26.56-.49,20.96.19,15.37c.1-.77.47-1.21,1.2-1.52,2.59-.33,5.22-.43,7.72.65.59-2.11,3.54-6.89,5.63-7.05s5.01,5.29,5.7,7.06c2.41-.71,6.36-1.63,8.45-.27,1.03,1.15,1.08,5.24.95,6.78-.53,6.26-4.89,11.49-10.99,13.21ZM14.86,19.16c.86-1.34,1.78-2.24,2.9-3.16-.5-1.92-1.33-3.72-2.86-5.06-1.5,1.43-2.66,3.16-3.07,5.08,1.14,1.02,2.1,2.04,3.04,3.14ZM8.66,23.04c-.16-.49.13-1.11.45-1.36,1.2-.92,3.28,1.25,4.25,2.15-.12-2.09-1.29-3.75-2.81-5.03-1.94-1.64-4.32-2.56-6.88-2.31-.17.02-.55.14-.61.28s-.08.42-.1.65c-.54,7.05,3.25,13.07,10.39,14.48-.14-.93-.33-1.76-.58-2.64-1.07-3.74-3.47-4.29-4.1-6.22ZM19.21,25.55c-1.73,1.64-2.47,3.91-2.63,6.26,2-.38,3.74-1.12,5.33-2.25,2.11-1.52,3.57-3.59,4.39-6.08.79-2.24.77-4.62.32-6.99-4.76-.32-9.46,2.05-10.02,7.16.93-.87,3.07-3.21,4.28-1.73.46.56.53,1.35.05,1.98l-1.73,1.65Z"/>
      <path class="cls-1" d="M78.56,29.87c-2.68,3.59-6.81,5.47-11.3,4.99s-8.67-3.67-10.46-8.01c-2.25-5.45.2-11.75,3.15-16.47,1.74-2.77,3.72-5.25,5.95-7.62.84-.9,1.61-1.68,2.72-2.45,4.2,3.85,7.97,8.42,10.45,13.57,1.54,3.19,2.4,6.52,1.97,10.08-.26,2.2-1.12,4.08-2.48,5.9ZM76.68,27.35c2.71-4.18,1.31-9.2-.76-13.23-1.9-3.7-4.41-6.63-7.31-9.81-4.57,4.18-11.3,14.22-9.38,20.57,1.03,3.4,3.74,5.94,7.22,6.82,3.99,1.01,7.98-.87,10.23-4.34Z"/>
      <path class="cls-1" d="M55.16,6.63c-5.12-2.72-11.21-4.08-17.02-3.56-5.1.45-10.03,1.84-14.33,4.53l-1.82,1.14c-.76.48-1.64.15-2.03-.51-.45-.78-.18-1.54.56-2.08C25.54,2.45,31.71.81,37.89.14c6.62-.71,15.35,1.23,20.87,5.04.64.44.87,1.18.59,1.72-.83,1.64-2.68.53-4.19-.27Z"/>
      <path class="cls-1" d="M42.49,19.46c-1.82,1.14-.63,3.34-1.98,3.83-1.85.66-1.34-1.44-3.5-.97-.74.16-1.54-.09-1.85-.76s0-1.49.73-1.93c.87-.53,1.95-.4,3.02-.28,1.32-3.25,4.88-4.14,7.92-2.84,1.25-2.4,4.22-3.12,6.37-1.5.32.24.41.95.32,1.33-.55,2.51-4.02-.67-4.34,2.29-.1.94-.73,2.07-1.84,1.86-1.48-.28-2.21-2.69-4.85-1.03Z"/>
      <path class="cls-1" d="M15.54,50.91c-1.3.65-1.68-1.21-2.89-.38-.76.52-1.76.52-2.3-.34-.29-.47.03-1.21.24-1.6.72-1.34,2.13-1.08,3.15-1.57,1.02-.49,1.68-1.79,2.91-1.83,1.34-.04,2.71.14,3.52,1.29.42.6.09,1.23-.33,1.69-.97,1.06-1.99-.34-3.05.19-.74.36.06,1.9-1.25,2.55Z"/>
      <path class="cls-2" d="M19.21,25.55l1.73-1.65c.47-.63.4-1.42-.05-1.98-1.21-1.48-3.35.86-4.28,1.73.56-5.11,5.27-7.48,10.02-7.16.45,2.37.47,4.74-.32,6.99-.81,2.49-2.27,4.55-4.39,6.08-1.6,1.13-3.34,1.86-5.33,2.25.16-2.35.9-4.61,2.63-6.26Z"/>
      <path class="cls-2" d="M8.66,23.04c.63,1.93,3.04,2.48,4.1,6.22.25.88.44,1.7.58,2.64-7.14-1.42-10.93-7.43-10.39-14.48.02-.23.04-.52.1-.65s.43-.26.61-.28c2.56-.25,4.95.68,6.88,2.31,1.52,1.28,2.68,2.94,2.81,5.03-.96-.9-3.05-3.07-4.25-2.15-.32.25-.61.87-.45,1.36Z"/>
      <path class="cls-2" d="M14.86,19.16c-.94-1.09-1.89-2.11-3.04-3.14.42-1.92,1.57-3.65,3.07-5.08,1.53,1.34,2.36,3.14,2.86,5.06-1.12.92-2.03,1.82-2.9,3.16Z"/>
      <path class="cls-2" d="M76.68,27.35c-2.25,3.47-6.24,5.35-10.23,4.34-3.48-.88-6.19-3.42-7.22-6.82-1.92-6.34,4.82-16.39,9.38-20.57,2.89,3.18,5.41,6.11,7.31,9.81,2.07,4.04,3.47,9.05.76,13.23ZM70.07,19.99c-.02-.62-.31-1.21-.72-1.41-.45-.22-1.03-.22-1.45,0-.78.42-1.1,1.09-.83,1.97.16.54.92,1.14,1.66,1.02.67-.11,1.38-.67,1.34-1.58ZM66.69,21.57c.07-.68-.14-1.2-.55-1.51-.38-.28-.94-.38-1.39-.2-.84.32-1.2,1.01-1.03,1.84.13.61.77,1.18,1.47,1.21.65.02,1.41-.51,1.5-1.33ZM72.59,22.66c.72-.56,1.03-1.37.66-2.08-.34-.64-1.04-1.03-1.8-.76-.95.34-1.43,1.25-1.06,2.1.38.86,1.36,1.38,2.2.73ZM68.9,26.36c1.44-.66,1.45-2.78.49-3.81-.21-.23-.64-.42-.86-.38-1.08.18-1.27,1.74-1.24,2.79.02.72.69,1.83,1.62,1.41ZM66.19,28.6c.6-.56.77-1.28.49-1.89-.25-.54-.85-.82-1.59-.91.38-.63.55-1.32.12-1.96-.27-.4-.95-.82-1.52-.68-.92.24-1.26,1.06-1.08,1.9.17.77.75,1.13,1.62,1.11-.44.74-.58,1.54.02,2.15.43.44,1.34.85,1.95.28ZM72.07,28.79c.57-.11,1-.7,1.11-1.09.12-.45-.06-1.09-.25-1.48.61-.15,1.18-.48,1.37-.98.18-.47.12-1.13-.19-1.54-.59-.78-1.61-.71-2.2-.08s-.52,1.41.15,2.17c-.86.07-1.58.34-1.81,1.12-.28.96.65,2.09,1.82,1.87ZM70.08,28.43c.01-.77-.37-1.27-1.03-1.39-.62-.11-1.33.14-1.67.54-.42.5-.53,1.29-.2,1.85.34.6,1.2.82,1.77.62.62-.22,1.12-.84,1.13-1.62Z"/>
      <path class="cls-1" d="M66.19,28.6c-.61.57-1.52.15-1.95-.28-.59-.6-.46-1.41-.02-2.15-.87.02-1.45-.34-1.62-1.11-.18-.84.16-1.66,1.08-1.9.57-.15,1.25.28,1.52.68.43.65.26,1.34-.12,1.96.74.09,1.34.36,1.59.91.29.61.11,1.34-.49,1.89Z"/>
      <path class="cls-1" d="M72.07,28.79c-1.17.23-2.1-.91-1.82-1.87.23-.79.95-1.05,1.81-1.12-.67-.76-.73-1.54-.15-2.17s1.61-.7,2.2.08c.31.41.37,1.07.19,1.54-.19.5-.77.82-1.37.98.19.39.37,1.03.25,1.48-.11.38-.54.98-1.11,1.09Z"/>
      <path class="cls-1" d="M68.9,26.36c-.93.42-1.6-.69-1.62-1.41-.03-1.05.16-2.6,1.24-2.79.22-.04.65.16.86.38.96,1.04.95,3.16-.49,3.81Z"/>
      <path class="cls-1" d="M70.07,19.99c.04.91-.68,1.47-1.34,1.58-.73.12-1.5-.48-1.66-1.02-.27-.89.05-1.56.83-1.97.42-.23,1-.23,1.45,0,.41.21.7.79.72,1.41Z"/>
      <path class="cls-1" d="M70.08,28.43c-.01.78-.51,1.41-1.13,1.62-.57.2-1.43-.02-1.77-.62-.32-.57-.22-1.35.2-1.85.34-.4,1.05-.65,1.67-.54.67.12,1.05.62,1.03,1.39Z"/>
      <path class="cls-1" d="M72.59,22.66c-.84.65-1.82.13-2.2-.73-.37-.85.11-1.76,1.06-2.1.76-.27,1.46.12,1.8.76.37.71.06,1.52-.66,2.08Z"/>
      <path class="cls-1" d="M66.69,21.57c-.09.83-.85,1.36-1.5,1.33-.71-.03-1.34-.59-1.47-1.21-.17-.82.19-1.52,1.03-1.84.45-.17,1.01-.08,1.39.2.41.3.62.83.55,1.51Z"/>
    </g>
  </g>
</svg>