<?xml version="1.0" encoding="UTF-8"?>
<svg id="Capa_2" data-name="Capa 2" xmlns="http://www.w3.org/2000/svg" viewBox="0 0 62.77 70.92">
  <defs>
    <style>
      .cls-1 {
        fill: #336147;
      }
    </style>
  </defs>
  <g id="Layer_1" data-name="Layer 1">
    <g>
      <path class="cls-1" d="M16.74,39.7c-2.72.74-6.38,1.08-9.06-.01-.97-.4-1.86-.81-2.67-1.54-.61-.55-1.28-1.15-1.71-1.86-.9-1.47-1.14-1.86-1.68-3.42l-.52-1.52c-.36-1.05-.36-1.06-.56-2.11l-.19-1.03c-.12-.62-.18-1.21-.23-1.82L0,25.22c-.02-.26.11-.75.38-.87,1.76-.8,3.51-1.48,5.41-1.85l1.35-.27c.42-.08.83-.15,1.27-.16l1.71-.06c.63-.02,1.26.05,1.94.11.24.02.68.17.96.23,2.17.46,3.95,1.71,5.25,3.46,1.38,1.86,2.13,3.98,2.73,6.21l.38,1.4c.18.66.04,1.39.25,2.08.22.71,2.94,2.27,3.76,2.65.51.23.99.6,1.49.92l3.27,2.1-.22-8.28c-3.37-2.53-6.15-5.12-8.38-8.67-.97-1.54-1.66-3.18-2.02-4.99-.05-.23-.17-.61-.19-.8-.31-3.41.47-6.19,2.29-9.07,2.43-3.83,5.57-6.64,9.26-9.2.31-.21.72-.21,1.02,0,1.56,1.06,2.95,2.2,4.37,3.46,1.66,1.48,3.08,3.11,4.35,4.93s2.15,3.62,2.62,5.75c.07.34.18.77.22,1.11.83,7.2-5.12,13.36-10.45,17.38l.04,7.06-.04,1.08,8.17-4.83c.38-4.31,1.62-9.17,5.15-12.11,1.04-.75,2.1-1.31,3.37-1.61.37-.09.9-.25,1.29-.27,2.09-.11,3.3-.12,5.27.26s3.93,1.07,5.82,1.84c.6.25.74.59.67,1.22l-.37,3.06c-.03.27-.11.65-.19.93l-.99,3.66c-.41,1.49-1.01,2.02-1.79,3.19-.6.9-1.38,1.61-2.17,2.34-.94.87-1.76,1.06-2.97,1.34-1.51.35-3.03.46-4.58.29-.68-.08-1.38-.09-2.03-.23-1.01-.22-1.99-.48-2.95-.8-.64-.22-1.19-.45-1.89-.57l-9.82,6.05-.03,2.64h-3.13s-.05-2.67-.05-2.67l-9.17-5.55c-1.05-.64-2.99.35-3.89.59Z"/>
      <path class="cls-1" d="M42.2,56.93c1.5,6.27-2.16,12.28-8.31,13.74-1.42.34-2.91.3-4.42.1-1.83-.24-3.54-1.08-5.01-2.23-2.39-1.87-3.88-4.63-4.2-7.66-.73-6.82,5.06-12.82,11.95-12.22.47.04.94.04,1.38.14,2.51.53,4.69,1.78,6.33,3.75,1.09,1.3,1.89,2.72,2.29,4.38ZM32.65,66.92l.02-9.74,2.25,2.21,1.81-1.81-2.49-2.44-1.54-1.51c-.45-.44-.91-.93-1.31-1.31l-1.88,1.94-3.38,3.36,1.77,1.75,2.24-2.18.02,9.74h2.49Z"/>
      <path class="cls-1" d="M16.94,56.76c-1.66,2.17-3.94,3.52-6.7,3.65-.43.02-.83.04-1.28-.01-3.87-.39-7.27-3.35-7.83-7.24-.13-.93-.18-2.01-.03-2.96.83-5.25,6.11-8.55,11.17-7.05,4.36,1.3,7.12,5.78,6.17,10.12-.27,1.26-.72,2.47-1.5,3.49ZM10.43,57.2c.16,0,.37-.31.37-.45v-7.24c.73.62,1.18,1.08,1.73,1.7l1.34-1.35-4.08-4.04-4.05,4.06,1.28,1.28,1.61-1.6c.07.02.24.22.24.35v7.25s1.56.04,1.56.04Z"/>
      <path class="cls-1" d="M58.28,58.58c-1.92,1.32-4.29,2.13-6.62,1.61l-1.01-.23c-1.43-.32-2.58-1.07-3.66-2.04-2.86-2.58-3.59-7.3-1.58-10.64,1.35-2.27,3.53-3.9,6.21-4.31.94-.14,1.92-.03,2.88-.04,2.34.63,3.86,1.39,5.37,3.26,2.41,2.98,2.45,7.68.11,10.66-.52.66-1.01,1.27-1.69,1.73ZM54.05,57.27l.02-7.65,1.77,1.66,1.36-1.42-2.91-2.87c-.29-.29-.58-.54-.85-.86-.09-.11-.25-.26-.36-.28s-.33.12-.42.21l-3.82,3.83,1.44,1.39,1.58-1.57s.16.23.16.3v6.57c-.01.24-.06.39-.03.49s.35.14.46.15l1.6.05Z"/>
    </g>
  </g>
</svg>