<?xml version="1.0" encoding="UTF-8"?>
<svg id="Capa_2" data-name="Capa 2" xmlns="http://www.w3.org/2000/svg" viewBox="0 0 78.14 79.57">
  <defs>
    <style>
      .cls-1 {
        fill: #645faa;
      }
    </style>
  </defs>
  <g id="Layer_1" data-name="Layer 1">
    <g>
      <path class="cls-1" d="M39.91,60.39c2.64.68,4.47,2.96,4.56,5.67.03.84-.51,1.51-1.34,1.57-.72.05-1.49-.53-1.5-1.35,0-1.75-1.35-3.16-3.07-3.21-1.71-.04-3.15,1.31-3.21,3.02s1.3,3.22,3.09,3.24c.8.01,1.41.57,1.47,1.34.05.69-.48,1.46-1.27,1.49-3.05.12-5.65-2.18-6.07-5.12s1.48-5.9,4.49-6.67v-3.79c-4-.41-7.6-2.4-10.09-5.61l-9.56,6.58c2.31,3.58,1.47,8.27-1.82,10.85-3.33,2.62-8.1,2.24-10.99-.84s-2.95-7.85-.14-11.01c2.79-3.13,7.54-3.68,10.97-1.11l10.01-6.89c-1.37-2.8-1.84-5.93-1.28-9.05l-13.44-4.19c-1.14,1.45-2.81,2.3-4.64,2.34-.83.02-1.47-.55-1.52-1.33s.54-1.51,1.38-1.51c1.75,0,3.14-1.38,3.17-3.08.03-1.71-1.32-3.13-3.01-3.19-1.75-.07-3.24,1.3-3.26,3.09,0,.82-.62,1.44-1.39,1.46C.66,33.13,0,32.51,0,31.66c.03-3.53,3.06-6.23,6.51-5.93,3.45.31,5.97,3.5,5.37,6.98l13.06,4.07c1.07-2.67,2.84-4.91,5.19-6.57l-3.58-7.19c-4.53.62-8.77-2.36-9.79-6.77-1.04-4.51,1.59-9.03,5.97-10.41,4.39-1.38,9.09.87,10.82,5.11,1.73,4.26-.11,9.12-4.24,11.21l3.32,6.63c4.67-2.04,10.03-1.54,14.23,1.43l7.71-7.34c-1.3-2.26-1.03-5.01.67-6.95,1.64-1.88,4.34-2.6,6.78-1.6,2.2.9,3.8,3.16,3.69,5.68-.03.78-.8,1.32-1.49,1.28-.8-.06-1.34-.69-1.35-1.49-.03-1.75-1.48-3.09-3.17-3.07s-3.08,1.4-3.1,3.11c-.02,1.72,1.37,3.15,3.14,3.17.81,0,1.41.65,1.42,1.41.01.77-.62,1.44-1.44,1.44-1.14,0-2.21-.33-3.18-.92l-7.52,7.15c2.22,2.37,3.61,5.32,3.93,8.6h9.5c.76-4.04,4.44-6.83,8.52-6.45,4.03.37,7.16,3.79,7.16,7.85,0,4.05-3.1,7.49-7.15,7.88-4.02.38-7.75-2.35-8.52-6.43h-9.51c-.3,2.93-1.42,5.58-3.29,7.86l9.37,9.61c3.49-1.27,7.3.32,8.9,3.59,1.6,3.28.45,7.24-2.63,9.19-3.09,1.95-7.16,1.24-9.42-1.64-2.27-2.89-2-7.03.68-9.6l-8.92-9.15c-2.22,1.78-4.83,2.89-7.73,3.18v3.79ZM24.63,8.35c-3.35.41-5.61,3.47-5.2,6.7.42,3.24,3.38,5.54,6.59,5.17,3.3-.38,5.66-3.37,5.26-6.65s-3.33-5.63-6.66-5.21ZM37.81,30.45c-6.51.38-11.41,6-11,12.41.41,6.42,5.95,11.33,12.38,10.94,6.43-.39,11.36-5.93,10.97-12.38-.38-6.36-5.87-11.34-12.35-10.97ZM69.37,37.15c-2.83.49-4.59,3.19-4.09,5.89s3.1,4.5,5.78,4.05c2.76-.46,4.62-3.08,4.16-5.81-.46-2.73-3.03-4.63-5.85-4.14ZM10.03,56.72c-3,.29-5.08,2.97-4.76,5.86.32,2.89,2.92,5,5.81,4.71,2.9-.3,5.05-2.9,4.75-5.82-.29-2.85-2.83-5.04-5.8-4.75ZM60.69,63.52c-2.42.47-3.88,2.8-3.4,5.12.48,2.28,2.73,3.78,5.01,3.34,2.33-.45,3.87-2.7,3.43-5.02s-2.65-3.91-5.05-3.44Z"/>
      <path class="cls-1" d="M25.46,2.84c-6.38-.01-11.54,5.11-11.53,11.48,0,.77-.67,1.37-1.41,1.38s-1.42-.58-1.43-1.33C11.02,6.5,17.42.04,25.29,0c.78,0,1.43.52,1.49,1.32.05.67-.47,1.52-1.32,1.51Z"/>
      <path class="cls-1" d="M10.7,74.9c-.9.01-1.55-.58-1.58-1.39-.03-.87.66-1.46,1.52-1.47,5.55-.05,9.96-4.58,9.95-10.1,0-.8.73-1.37,1.46-1.35s1.38.65,1.38,1.42c0,7.04-5.68,12.79-12.74,12.89Z"/>
      <path class="cls-1" d="M61.68,79.57c-.91.02-1.57-.56-1.6-1.41-.02-.8.63-1.45,1.46-1.45,4.92-.02,8.91-4.01,8.93-8.93,0-.84.65-1.48,1.45-1.46.84.01,1.41.71,1.4,1.54-.07,6.4-5.23,11.6-11.66,11.72Z"/>
      <path class="cls-1" d="M26.78,16.39v-4.23c0-.81-.62-1.43-1.4-1.44-.73-.01-1.44.56-1.44,1.37v4.39c0,.79.73,1.37,1.44,1.35.76-.02,1.41-.61,1.41-1.45Z"/>
      <path class="cls-1" d="M11.97,62.71v-1.63c0-.82-.66-1.43-1.43-1.43s-1.42.62-1.42,1.43v1.66c0,.8.67,1.41,1.42,1.41s1.43-.6,1.43-1.44Z"/>
      <path class="cls-1" d="M71.67,43.62v-3.05c0-.83-.69-1.45-1.47-1.43s-1.39.68-1.39,1.51v3c0,.84.67,1.47,1.47,1.45s1.39-.63,1.39-1.48Z"/>
      <path class="cls-1" d="M38.36,33.74c4.66-.07,8.42,3.67,8.51,8.22.09,4.64-3.62,8.47-8.23,8.55s-8.42-3.59-8.54-8.18c-.11-4.61,3.56-8.52,8.26-8.59ZM38.12,36.6c-3.12.2-5.39,2.92-5.16,5.94s2.87,5.31,5.9,5.1c3.03-.21,5.35-2.85,5.14-5.91-.21-2.98-2.78-5.33-5.88-5.13Z"/>
      <path class="cls-1" d="M26.78,16.39c0,.84-.65,1.43-1.41,1.45-.71.02-1.43-.56-1.43-1.35v-4.39c0-.81.71-1.39,1.44-1.37.78.01,1.4.63,1.4,1.44v4.23Z"/>
      <path class="cls-1" d="M11.97,62.71c0,.84-.68,1.44-1.43,1.44s-1.42-.6-1.42-1.41v-1.66c0-.82.66-1.43,1.42-1.43s1.43.61,1.43,1.43v1.63Z"/>
      <path class="cls-1" d="M71.67,43.62c0,.85-.63,1.46-1.39,1.48s-1.46-.62-1.46-1.45v-3c0-.83.58-1.49,1.39-1.51s1.46.6,1.46,1.43v3.05Z"/>
    </g>
  </g>
</svg>